<?xml version="1.0" encoding="utf-8" standalone="no"?>
<!DOCTYPE svg PUBLIC "-//W3C//DTD SVG 1.1//EN"
  "http://www.w3.org/Graphics/SVG/1.1/DTD/svg11.dtd">
<svg xmlns:xlink="http://www.w3.org/1999/xlink" width="225.408189pt" height="156.787087pt" viewBox="0 0 225.408189 156.787087" xmlns="http://www.w3.org/2000/svg" version="1.1">
 <metadata>
  <rdf:RDF xmlns:dc="http://purl.org/dc/elements/1.1/" xmlns:cc="http://creativecommons.org/ns#" xmlns:rdf="http://www.w3.org/1999/02/22-rdf-syntax-ns#">
   <cc:Work>
    <dc:type rdf:resource="http://purl.org/dc/dcmitype/StillImage"/>
    <dc:date>2025-11-18T07:50:38.444248</dc:date>
    <dc:format>image/svg+xml</dc:format>
    <dc:creator>
     <cc:Agent>
      <dc:title>Matplotlib v3.10.3, https://matplotlib.org/</dc:title>
     </cc:Agent>
    </dc:creator>
   </cc:Work>
  </rdf:RDF>
 </metadata>
 <defs>
  <style type="text/css">*{stroke-linejoin: round; stroke-linecap: butt}</style>
 </defs>
 <g id="figure_1">
  <g id="patch_1">
   <path d="M 0 156.787087 
L 225.408189 156.787087 
L 225.408189 0 
L 0 0 
z
" style="fill: #ffffff; fill-opacity: 0.95"/>
  </g>
  <g id="axes_1">
   <g id="patch_2">
    <path d="M 28.176024 139.540507 
L 167.929101 139.540507 
L 167.929101 18.81445 
L 28.176024 18.81445 
z
" style="fill: #ffffff; fill-opacity: 0.95"/>
   </g>
   <g id="QuadContourSet_1">
    <path d="M 101.730275 139.258107 
L 109.0857 138.834507 
L 116.441125 138.410907 
L 123.79655 138.096415 
L 131.151975 137.807597 
L 138.5074 138.693307 
L 145.862825 138.385234 
L 153.218251 138.128506 
L 160.573676 137.846106 
L 167.929101 137.663188 
L 167.929101 139.540507 
L 160.573676 139.540507 
L 153.218251 139.540507 
L 145.862825 139.540507 
L 138.5074 139.540507 
L 131.151975 139.540507 
L 123.79655 139.540507 
L 116.441125 139.540507 
L 109.0857 139.540507 
L 101.730275 139.540507 
L 98.052562 139.540507 
z
" clip-path="url(#p4cc2404511)" style="fill: #3e51c5"/>
    <path d="M 64.953149 139.540507 
L 72.308574 138.385234 
L 79.663999 137.518779 
L 87.019425 136.857706 
L 94.37485 136.219096 
L 101.730275 135.728105 
L 109.0857 135.304505 
L 116.441125 134.880905 
L 123.79655 134.486187 
L 131.151975 134.197368 
L 138.5074 135.163305 
L 145.862825 134.775005 
L 153.218251 134.598505 
L 160.573676 134.316105 
L 167.929101 134.052959 
L 167.929101 137.663188 
L 160.573676 137.846106 
L 153.218251 138.128506 
L 145.862825 138.385234 
L 138.5074 138.693307 
L 131.151975 137.807597 
L 123.79655 138.096415 
L 116.441125 138.410907 
L 109.0857 138.834507 
L 101.730275 139.258107 
L 98.052562 139.540507 
L 94.37485 139.540507 
L 87.019425 139.540507 
L 79.663999 139.540507 
L 72.308574 139.540507 
L 64.953149 139.540507 
L 64.953149 139.540507 
z
" clip-path="url(#p4cc2404511)" style="fill: #455cce"/>
    <path d="M 50.242299 139.396098 
L 57.597724 137.37437 
L 64.953149 135.930278 
L 72.308574 134.775005 
L 79.663999 133.90855 
L 87.019425 133.327704 
L 88.49051 133.186504 
L 94.37485 132.621704 
L 101.730275 132.17564 
L 109.0857 131.742413 
L 116.441125 131.309185 
L 123.79655 130.927303 
L 131.151975 130.644903 
L 138.5074 131.598003 
L 145.862825 131.209703 
L 153.218251 131.020367 
L 160.573676 130.731548 
L 167.929101 130.44273 
L 167.929101 133.186504 
L 167.929101 134.052959 
L 160.573676 134.316105 
L 153.218251 134.598505 
L 145.862825 134.775005 
L 138.5074 135.163305 
L 131.151975 134.197368 
L 123.79655 134.486187 
L 116.441125 134.880905 
L 109.0857 135.304505 
L 101.730275 135.728105 
L 94.37485 136.219096 
L 87.019425 136.857706 
L 79.663999 137.518779 
L 72.308574 138.385234 
L 64.953149 139.540507 
L 64.953149 139.540507 
L 57.597724 139.540507 
L 50.242299 139.540507 
L 49.874528 139.540507 
z
" clip-path="url(#p4cc2404511)" style="fill: #4c66d6"/>
    <path d="M 42.886874 138.674052 
L 50.242299 135.785869 
L 57.597724 133.764141 
L 60.539894 133.186504 
L 64.953149 132.339304 
L 72.308574 131.209703 
L 79.663999 130.362503 
L 87.019425 129.720684 
L 94.37485 129.091702 
L 101.730275 128.565411 
L 109.0857 128.132184 
L 116.441125 127.698956 
L 123.79655 127.397301 
L 131.151975 127.114901 
L 138.5074 127.987774 
L 145.862825 127.679702 
L 153.218251 127.410138 
L 160.573676 127.121319 
L 167.929101 126.832501 
L 167.929101 126.832501 
L 167.929101 126.832501 
L 167.929101 130.44273 
L 160.573676 130.731548 
L 153.218251 131.020367 
L 145.862825 131.209703 
L 138.5074 131.598003 
L 131.151975 130.644903 
L 123.79655 130.927303 
L 116.441125 131.309185 
L 109.0857 131.742413 
L 101.730275 132.17564 
L 94.37485 132.621704 
L 88.49051 133.186504 
L 87.019425 133.327704 
L 79.663999 133.90855 
L 72.308574 134.775005 
L 64.953149 135.930278 
L 57.597724 137.37437 
L 50.242299 139.396098 
L 49.874528 139.540507 
L 42.886874 139.540507 
L 41.507732 139.540507 
z
" clip-path="url(#p4cc2404511)" style="fill: #5470de"/>
    <path d="M 42.886874 135.063823 
L 47.6679 133.186504 
L 50.242299 132.17564 
L 57.597724 130.221303 
L 64.953149 128.809302 
L 72.308574 127.679702 
L 79.663999 126.832501 
L 79.663999 126.832501 
L 87.019425 126.110455 
L 94.37485 125.532819 
L 101.730275 124.955182 
L 109.0857 124.521955 
L 116.441125 124.1497 
L 123.79655 123.799909 
L 131.151975 123.51109 
L 138.5074 124.377545 
L 145.862825 124.088727 
L 153.218251 123.799909 
L 160.573676 123.5849 
L 167.929101 123.302499 
L 167.929101 126.832501 
L 167.929101 126.832501 
L 160.573676 127.121319 
L 153.218251 127.410138 
L 145.862825 127.679702 
L 138.5074 127.987774 
L 131.151975 127.114901 
L 123.79655 127.397301 
L 116.441125 127.698956 
L 109.0857 128.132184 
L 101.730275 128.565411 
L 94.37485 129.091702 
L 87.019425 129.720684 
L 79.663999 130.362503 
L 72.308574 131.209703 
L 64.953149 132.339304 
L 60.539894 133.186504 
L 57.597724 133.764141 
L 50.242299 135.785869 
L 42.886874 138.674052 
L 41.507732 139.540507 
L 35.761306 139.540507 
z
" clip-path="url(#p4cc2404511)" style="fill: #5b7ae5"/>
    <path d="M 35.531449 136.074687 
L 40.128589 133.186504 
L 42.886874 131.492103 
L 50.242299 128.565411 
L 57.031922 126.832501 
L 57.597724 126.688092 
L 64.953149 125.244 
L 72.308574 124.088727 
L 79.663999 123.222272 
L 87.019425 122.500226 
L 94.37485 121.92259 
L 101.730275 121.344953 
L 109.0857 120.911726 
L 116.441125 120.619698 
L 118.892933 120.478498 
L 123.79655 120.18968 
L 131.151975 119.900861 
L 136.055592 120.478498 
L 138.5074 120.767316 
L 145.862825 120.478498 
L 145.862825 120.478498 
L 153.218251 120.196098 
L 160.573676 120.045271 
L 167.929101 119.756452 
L 167.929101 120.478498 
L 167.929101 123.302499 
L 160.573676 123.5849 
L 153.218251 123.799909 
L 145.862825 124.088727 
L 138.5074 124.377545 
L 131.151975 123.51109 
L 123.79655 123.799909 
L 116.441125 124.1497 
L 109.0857 124.521955 
L 101.730275 124.955182 
L 94.37485 125.532819 
L 87.019425 126.110455 
L 79.663999 126.832501 
L 79.663999 126.832501 
L 72.308574 127.679702 
L 64.953149 128.809302 
L 57.597724 130.221303 
L 50.242299 132.17564 
L 47.6679 133.186504 
L 42.886874 135.063823 
L 35.761306 139.540507 
L 35.531449 139.540507 
L 32.773164 139.540507 
z
" clip-path="url(#p4cc2404511)" style="fill: #6384eb"/>
    <path d="M 34.956806 133.186504 
L 35.531449 132.480504 
L 42.886874 127.962102 
L 45.688941 126.832501 
L 50.242299 124.9969 
L 57.597724 123.077863 
L 64.953149 121.633771 
L 72.308574 120.478498 
L 72.308574 120.478498 
L 79.663999 119.612043 
L 87.019425 118.925297 
L 94.37485 118.312361 
L 101.730275 117.795697 
L 109.0857 117.372097 
L 116.441125 117.012678 
L 123.79655 116.579451 
L 131.151975 116.290633 
L 138.5074 117.230897 
L 145.862825 116.948496 
L 153.218251 116.666096 
L 160.573676 116.435042 
L 167.929101 116.146223 
L 167.929101 119.756452 
L 160.573676 120.045271 
L 153.218251 120.196098 
L 145.862825 120.478498 
L 145.862825 120.478498 
L 138.5074 120.767316 
L 136.055592 120.478498 
L 131.151975 119.900861 
L 123.79655 120.18968 
L 118.892933 120.478498 
L 116.441125 120.619698 
L 109.0857 120.911726 
L 101.730275 121.344953 
L 94.37485 121.92259 
L 87.019425 122.500226 
L 79.663999 123.222272 
L 72.308574 124.088727 
L 64.953149 125.244 
L 57.597724 126.688092 
L 57.031922 126.832501 
L 50.242299 128.565411 
L 42.886874 131.492103 
L 40.128589 133.186504 
L 35.531449 136.074687 
L 32.773164 139.540507 
L 29.899951 139.540507 
z
" clip-path="url(#p4cc2404511)" style="fill: #6b8df0"/>
    <path d="M 32.083593 133.186504 
L 35.531449 128.950502 
L 38.979304 126.832501 
L 42.886874 124.377545 
L 50.242299 121.466899 
L 53.920012 120.478498 
L 57.597724 119.467634 
L 64.953149 118.023542 
L 72.308574 116.948496 
L 79.663999 116.001814 
L 87.019425 115.395296 
L 94.37485 114.702132 
L 101.730275 114.265695 
L 104.182083 114.124495 
L 109.0857 113.835677 
L 116.441125 113.402449 
L 123.79655 112.994895 
L 131.151975 112.712494 
L 138.5074 113.691268 
L 145.862825 113.402449 
L 153.218251 113.113631 
L 160.573676 112.824813 
L 167.929101 112.571294 
L 167.929101 114.124495 
L 167.929101 116.146223 
L 160.573676 116.435042 
L 153.218251 116.666096 
L 145.862825 116.948496 
L 138.5074 117.230897 
L 131.151975 116.290633 
L 123.79655 116.579451 
L 116.441125 117.012678 
L 109.0857 117.372097 
L 101.730275 117.795697 
L 94.37485 118.312361 
L 87.019425 118.925297 
L 79.663999 119.612043 
L 72.308574 120.478498 
L 72.308574 120.478498 
L 64.953149 121.633771 
L 57.597724 123.077863 
L 50.242299 124.9969 
L 45.688941 126.832501 
L 42.886874 127.962102 
L 35.531449 132.480504 
L 34.956806 133.186504 
L 29.899951 139.540507 
L 28.176024 139.540507 
L 28.176024 138.096415 
z
" clip-path="url(#p4cc2404511)" style="fill: #7396f5"/>
    <path d="M 29.21038 133.186504 
L 34.382164 126.832501 
L 35.531449 125.38841 
L 42.886874 120.767316 
L 43.622416 120.478498 
L 50.242299 117.879133 
L 57.597724 115.857405 
L 64.953149 114.413313 
L 67.054699 114.124495 
L 72.308574 113.402449 
L 79.663999 112.430094 
L 87.019425 111.813949 
L 94.37485 111.159294 
L 101.730275 110.658675 
L 109.0857 110.225448 
L 116.441125 109.79222 
L 123.79655 109.464893 
L 131.151975 109.182493 
L 138.5074 110.081039 
L 145.862825 109.79222 
L 153.218251 109.503402 
L 160.573676 109.214584 
L 167.929101 109.041293 
L 167.929101 112.571294 
L 160.573676 112.824813 
L 153.218251 113.113631 
L 145.862825 113.402449 
L 138.5074 113.691268 
L 131.151975 112.712494 
L 123.79655 112.994895 
L 116.441125 113.402449 
L 109.0857 113.835677 
L 104.182083 114.124495 
L 101.730275 114.265695 
L 94.37485 114.702132 
L 87.019425 115.395296 
L 79.663999 116.001814 
L 72.308574 116.948496 
L 64.953149 118.023542 
L 57.597724 119.467634 
L 53.920012 120.478498 
L 50.242299 121.466899 
L 42.886874 124.377545 
L 38.979304 126.832501 
L 35.531449 128.950502 
L 32.083593 133.186504 
L 28.176024 138.096415 
L 28.176024 134.486187 
z
" clip-path="url(#p4cc2404511)" style="fill: #7b9ff9"/>
    <path d="M 28.176024 133.186504 
L 28.176024 130.927303 
L 31.508951 126.832501 
L 35.531449 121.778181 
L 37.600162 120.478498 
L 42.886874 117.157087 
L 50.242299 114.268904 
L 50.767686 114.124495 
L 57.597724 112.288894 
L 64.953149 110.876894 
L 72.308574 109.79222 
L 79.663999 108.900093 
L 87.019425 108.20372 
L 92.535993 107.770492 
L 94.37485 107.626083 
L 101.730275 107.064492 
L 109.0857 106.615219 
L 116.441125 106.217291 
L 123.79655 105.893173 
L 131.151975 105.604355 
L 138.5074 106.499692 
L 145.862825 106.181991 
L 153.218251 105.934891 
L 160.573676 105.652491 
L 167.929101 105.459946 
L 167.929101 107.770492 
L 167.929101 109.041293 
L 160.573676 109.214584 
L 153.218251 109.503402 
L 145.862825 109.79222 
L 138.5074 110.081039 
L 131.151975 109.182493 
L 123.79655 109.464893 
L 116.441125 109.79222 
L 109.0857 110.225448 
L 101.730275 110.658675 
L 94.37485 111.159294 
L 87.019425 111.813949 
L 79.663999 112.430094 
L 72.308574 113.402449 
L 67.054699 114.124495 
L 64.953149 114.413313 
L 57.597724 115.857405 
L 50.242299 117.879133 
L 43.622416 120.478498 
L 42.886874 120.767316 
L 35.531449 125.38841 
L 34.382164 126.832501 
L 29.21038 133.186504 
L 28.176024 134.486187 
z
" clip-path="url(#p4cc2404511)" style="fill: #84a7fc"/>
    <path d="M 28.635738 126.832501 
L 33.692592 120.478498 
L 35.531449 118.167952 
L 41.967446 114.124495 
L 42.886874 113.559695 
L 50.242299 110.735694 
L 57.597724 108.758893 
L 62.746522 107.770492 
L 64.953149 107.337265 
L 72.308574 106.181991 
L 79.663999 105.315536 
L 87.019425 104.664091 
L 94.37485 104.015854 
L 101.730275 103.53449 
L 109.0857 103.00499 
L 116.441125 102.68729 
L 123.79655 102.282944 
L 131.151975 101.994126 
L 138.5074 102.96969 
L 145.862825 102.571762 
L 153.218251 102.40489 
L 160.573676 102.12249 
L 167.929101 101.849717 
L 167.929101 105.459946 
L 160.573676 105.652491 
L 153.218251 105.934891 
L 145.862825 106.181991 
L 138.5074 106.499692 
L 131.151975 105.604355 
L 123.79655 105.893173 
L 116.441125 106.217291 
L 109.0857 106.615219 
L 101.730275 107.064492 
L 94.37485 107.626083 
L 92.535993 107.770492 
L 87.019425 108.20372 
L 79.663999 108.900093 
L 72.308574 109.79222 
L 64.953149 110.876894 
L 57.597724 112.288894 
L 50.767686 114.124495 
L 50.242299 114.268904 
L 42.886874 117.157087 
L 37.600162 120.478498 
L 35.531449 121.778181 
L 31.508951 126.832501 
L 28.176024 130.927303 
L 28.176024 127.397301 
z
" clip-path="url(#p4cc2404511)" style="fill: #8db0fe"/>
    <path d="M 28.176024 126.832501 
L 28.176024 123.799909 
L 30.81938 120.478498 
L 35.531449 114.557723 
L 36.22102 114.124495 
L 42.886874 110.029693 
L 48.771214 107.770492 
L 50.242299 107.192856 
L 57.597724 105.171127 
L 64.953149 103.727036 
L 72.308574 102.571762 
L 79.663999 101.705307 
L 83.341712 101.416489 
L 87.019425 101.127671 
L 94.37485 100.428089 
L 101.730275 99.972398 
L 109.0857 99.439688 
L 116.441125 99.105943 
L 123.79655 98.733688 
L 131.151975 98.383897 
L 138.5074 99.394761 
L 145.862825 99.016088 
L 153.218251 98.817124 
L 160.573676 98.528306 
L 167.929101 98.239488 
L 167.929101 101.416489 
L 167.929101 101.849717 
L 160.573676 102.12249 
L 153.218251 102.40489 
L 145.862825 102.571762 
L 138.5074 102.96969 
L 131.151975 101.994126 
L 123.79655 102.282944 
L 116.441125 102.68729 
L 109.0857 103.00499 
L 101.730275 103.53449 
L 94.37485 104.015854 
L 87.019425 104.664091 
L 79.663999 105.315536 
L 72.308574 106.181991 
L 64.953149 107.337265 
L 62.746522 107.770492 
L 57.597724 108.758893 
L 50.242299 110.735694 
L 42.886874 113.559695 
L 41.967446 114.124495 
L 35.531449 118.167952 
L 33.692592 120.478498 
L 28.635738 126.832501 
L 28.176024 127.397301 
z
" clip-path="url(#p4cc2404511)" style="fill: #96b7ff"/>
    <path d="M 28.176024 120.478498 
L 28.176024 120.18968 
L 33.003021 114.124495 
L 35.531449 111.018094 
L 40.818161 107.770492 
L 42.886874 106.47081 
L 50.242299 103.582627 
L 57.597724 101.560898 
L 58.333267 101.416489 
L 64.953149 100.116807 
L 72.308574 99.016088 
L 79.663999 98.168888 
L 87.019425 97.517442 
L 94.37485 96.898087 
L 101.730275 96.362169 
L 109.0857 95.909687 
L 116.441125 95.495714 
L 123.79655 95.203686 
L 126.248358 95.062486 
L 131.151975 94.780086 
L 133.253525 95.062486 
L 138.5074 95.784532 
L 145.862825 95.486086 
L 153.218251 95.206895 
L 156.895963 95.062486 
L 160.573676 94.918077 
L 167.929101 94.638886 
L 167.929101 95.062486 
L 167.929101 98.239488 
L 160.573676 98.528306 
L 153.218251 98.817124 
L 145.862825 99.016088 
L 138.5074 99.394761 
L 131.151975 98.383897 
L 123.79655 98.733688 
L 116.441125 99.105943 
L 109.0857 99.439688 
L 101.730275 99.972398 
L 94.37485 100.428089 
L 87.019425 101.127671 
L 83.341712 101.416489 
L 79.663999 101.705307 
L 72.308574 102.571762 
L 64.953149 103.727036 
L 57.597724 105.171127 
L 50.242299 107.192856 
L 48.771214 107.770492 
L 42.886874 110.029693 
L 36.22102 114.124495 
L 35.531449 114.557723 
L 30.81938 120.478498 
L 28.176024 123.799909 
z
" clip-path="url(#p4cc2404511)" style="fill: #9ebeff"/>
    <path d="M 30.129808 114.124495 
L 35.301592 107.770492 
L 35.531449 107.481674 
L 42.886874 102.860581 
L 46.564586 101.416489 
L 50.242299 99.972398 
L 57.597724 98.027688 
L 64.953149 96.506578 
L 72.308574 95.486086 
L 75.986287 95.062486 
L 79.663999 94.629259 
L 87.019425 93.907213 
L 94.37485 93.329576 
L 101.730275 92.75194 
L 109.0857 92.318712 
L 116.441125 91.885485 
L 123.79655 91.596666 
L 131.151975 91.250084 
L 138.5074 92.174303 
L 145.862825 91.885485 
L 153.218251 91.596666 
L 160.573676 91.307848 
L 167.929101 91.108884 
L 167.929101 94.638886 
L 160.573676 94.918077 
L 156.895963 95.062486 
L 153.218251 95.206895 
L 145.862825 95.486086 
L 138.5074 95.784532 
L 133.253525 95.062486 
L 131.151975 94.780086 
L 126.248358 95.062486 
L 123.79655 95.203686 
L 116.441125 95.495714 
L 109.0857 95.909687 
L 101.730275 96.362169 
L 94.37485 96.898087 
L 87.019425 97.517442 
L 79.663999 98.168888 
L 72.308574 99.016088 
L 64.953149 100.116807 
L 58.333267 101.416489 
L 57.597724 101.560898 
L 50.242299 103.582627 
L 42.886874 106.47081 
L 40.818161 107.770492 
L 35.531449 111.018094 
L 33.003021 114.124495 
L 28.176024 120.18968 
L 28.176024 116.579451 
z
" clip-path="url(#p4cc2404511)" style="fill: #a6c4fe"/>
    <path d="M 28.176024 114.124495 
L 28.176024 112.994895 
L 32.428379 107.770492 
L 35.531449 103.871445 
L 39.439018 101.416489 
L 42.886874 99.250352 
L 50.242299 96.362169 
L 55.334516 95.062486 
L 57.597724 94.48485 
L 64.953149 92.944485 
L 72.308574 91.885485 
L 79.663999 91.01903 
L 87.019425 90.296984 
L 94.37485 89.719347 
L 101.730275 89.141711 
L 109.0857 88.708483 
L 109.0857 88.708483 
L 116.441125 88.284883 
L 123.79655 87.986437 
L 131.151975 87.697619 
L 138.5074 88.567283 
L 145.862825 88.275256 
L 153.218251 88.002483 
L 160.573676 87.720083 
L 167.929101 87.55321 
L 167.929101 88.708483 
L 167.929101 91.108884 
L 160.573676 91.307848 
L 153.218251 91.596666 
L 145.862825 91.885485 
L 138.5074 92.174303 
L 131.151975 91.250084 
L 123.79655 91.596666 
L 116.441125 91.885485 
L 109.0857 92.318712 
L 101.730275 92.75194 
L 94.37485 93.329576 
L 87.019425 93.907213 
L 79.663999 94.629259 
L 75.986287 95.062486 
L 72.308574 95.486086 
L 64.953149 96.506578 
L 57.597724 98.027688 
L 50.242299 99.972398 
L 46.564586 101.416489 
L 42.886874 102.860581 
L 35.531449 107.481674 
L 35.301592 107.770492 
L 30.129808 114.124495 
L 28.176024 116.579451 
z
" clip-path="url(#p4cc2404511)" style="fill: #aec9fc"/>
    <path d="M 29.555166 107.770492 
L 34.612021 101.416489 
L 35.531449 100.286889 
L 42.886874 95.640123 
L 44.357959 95.062486 
L 50.242299 92.803285 
L 57.597724 90.874621 
L 64.953149 89.414484 
L 69.55029 88.708483 
L 72.308574 88.275256 
L 79.663999 87.408801 
L 87.019425 86.731682 
L 94.37485 86.109118 
L 101.730275 85.602082 
L 109.0857 85.178482 
L 116.441125 84.754881 
L 123.79655 84.376208 
L 131.151975 84.08739 
L 138.5074 85.037281 
L 145.862825 84.665027 
L 153.218251 84.472481 
L 160.573676 84.190081 
L 167.929101 83.942981 
L 167.929101 87.55321 
L 160.573676 87.720083 
L 153.218251 88.002483 
L 145.862825 88.275256 
L 138.5074 88.567283 
L 131.151975 87.697619 
L 123.79655 87.986437 
L 116.441125 88.284883 
L 109.0857 88.708483 
L 109.0857 88.708483 
L 101.730275 89.141711 
L 94.37485 89.719347 
L 87.019425 90.296984 
L 79.663999 91.01903 
L 72.308574 91.885485 
L 64.953149 92.944485 
L 57.597724 94.48485 
L 55.334516 95.062486 
L 50.242299 96.362169 
L 42.886874 99.250352 
L 39.439018 101.416489 
L 35.531449 103.871445 
L 32.428379 107.770492 
L 28.176024 112.994895 
L 28.176024 109.464893 
z
" clip-path="url(#p4cc2404511)" style="fill: #b6cefa"/>
    <path d="M 28.176024 107.770492 
L 28.176024 105.893173 
L 31.738808 101.416489 
L 35.531449 96.756887 
L 38.206149 95.062486 
L 42.886874 92.097285 
L 50.242299 89.273283 
L 52.343849 88.708483 
L 57.597724 87.264392 
L 64.953149 85.8203 
L 72.308574 84.665027 
L 79.663999 83.798572 
L 87.019425 83.201681 
L 94.37485 82.498889 
L 96.826658 82.35448 
L 101.730275 82.065662 
L 109.0857 81.632434 
L 116.441125 81.199207 
L 123.79655 80.801279 
L 131.151975 80.518879 
L 138.5074 81.488025 
L 145.862825 81.08368 
L 153.218251 80.910389 
L 160.573676 80.62157 
L 167.929101 80.332752 
L 167.929101 82.35448 
L 167.929101 83.942981 
L 160.573676 84.190081 
L 153.218251 84.472481 
L 145.862825 84.665027 
L 138.5074 85.037281 
L 131.151975 84.08739 
L 123.79655 84.376208 
L 116.441125 84.754881 
L 109.0857 85.178482 
L 101.730275 85.602082 
L 94.37485 86.109118 
L 87.019425 86.731682 
L 79.663999 87.408801 
L 72.308574 88.275256 
L 69.55029 88.708483 
L 64.953149 89.414484 
L 57.597724 90.874621 
L 50.242299 92.803285 
L 44.357959 95.062486 
L 42.886874 95.640123 
L 35.531449 100.286889 
L 34.612021 101.416489 
L 29.555166 107.770492 
L 28.176024 109.464893 
z
" clip-path="url(#p4cc2404511)" style="fill: #bed2f6"/>
    <path d="M 28.865595 101.416489 
L 34.037378 95.062486 
L 35.531449 93.185167 
L 42.657017 88.708483 
L 42.886874 88.564074 
L 50.242299 85.675891 
L 57.597724 83.654163 
L 64.217607 82.35448 
L 64.953149 82.21328 
L 72.308574 81.08368 
L 79.663999 80.236479 
L 87.019425 79.610706 
L 94.37485 78.965679 
L 101.730275 78.455433 
L 109.0857 78.022205 
L 116.441125 77.588978 
L 123.79655 77.271278 
L 131.151975 76.988878 
L 138.5074 77.877796 
L 145.862825 77.553678 
L 153.218251 77.30016 
L 160.573676 77.011341 
L 167.929101 76.722523 
L 167.929101 80.332752 
L 160.573676 80.62157 
L 153.218251 80.910389 
L 145.862825 81.08368 
L 138.5074 81.488025 
L 131.151975 80.518879 
L 123.79655 80.801279 
L 116.441125 81.199207 
L 109.0857 81.632434 
L 101.730275 82.065662 
L 96.826658 82.35448 
L 94.37485 82.498889 
L 87.019425 83.201681 
L 79.663999 83.798572 
L 72.308574 84.665027 
L 64.953149 85.8203 
L 57.597724 87.264392 
L 52.343849 88.708483 
L 50.242299 89.273283 
L 42.886874 92.097285 
L 38.206149 95.062486 
L 35.531449 96.756887 
L 31.738808 101.416489 
L 28.176024 105.893173 
L 28.176024 102.282944 
z
" clip-path="url(#p4cc2404511)" style="fill: #c5d6f2"/>
    <path d="M 28.176024 101.416489 
L 28.176024 98.733688 
L 31.164165 95.062486 
L 35.531449 89.574938 
L 36.910591 88.708483 
L 42.886874 84.953845 
L 49.506756 82.35448 
L 50.242299 82.065662 
L 57.597724 80.095279 
L 64.953149 78.683279 
L 72.308574 77.553678 
L 79.663999 76.706478 
L 87.019425 76.000477 
L 87.019425 76.000477 
L 94.37485 75.422841 
L 101.730275 74.845204 
L 109.0857 74.411976 
L 116.441125 74.023676 
L 123.79655 73.689931 
L 131.151975 73.401112 
L 138.5074 74.267567 
L 145.862825 73.978749 
L 153.218251 73.689931 
L 160.573676 73.458876 
L 167.929101 73.176476 
L 167.929101 76.000477 
L 167.929101 76.722523 
L 160.573676 77.011341 
L 153.218251 77.30016 
L 145.862825 77.553678 
L 138.5074 77.877796 
L 131.151975 76.988878 
L 123.79655 77.271278 
L 116.441125 77.588978 
L 109.0857 78.022205 
L 101.730275 78.455433 
L 94.37485 78.965679 
L 87.019425 79.610706 
L 79.663999 80.236479 
L 72.308574 81.08368 
L 64.953149 82.21328 
L 64.217607 82.35448 
L 57.597724 83.654163 
L 50.242299 85.675891 
L 42.886874 88.564074 
L 42.657017 88.708483 
L 35.531449 93.185167 
L 34.037378 95.062486 
L 28.865595 101.416489 
L 28.176024 102.282944 
z
" clip-path="url(#p4cc2404511)" style="fill: #ccd9ed"/>
    <path d="M 28.290952 95.062486 
L 33.347807 88.708483 
L 35.531449 85.964709 
L 41.277875 82.35448 
L 42.886874 81.36608 
L 50.242299 78.455433 
L 57.597724 76.565278 
L 60.539894 76.000477 
L 64.953149 75.134022 
L 72.308574 73.978749 
L 79.663999 73.112294 
L 87.019425 72.390248 
L 94.37485 71.812612 
L 101.730275 71.234975 
L 109.0857 70.801748 
L 116.441125 70.493675 
L 123.79655 70.079702 
L 131.151975 69.790883 
L 138.5074 70.657338 
L 145.862825 70.36852 
L 153.218251 70.079702 
L 160.573676 69.928874 
L 167.929101 69.646474 
L 167.929101 69.646474 
L 167.929101 69.646474 
L 167.929101 73.176476 
L 160.573676 73.458876 
L 153.218251 73.689931 
L 145.862825 73.978749 
L 138.5074 74.267567 
L 131.151975 73.401112 
L 123.79655 73.689931 
L 116.441125 74.023676 
L 109.0857 74.411976 
L 101.730275 74.845204 
L 94.37485 75.422841 
L 87.019425 76.000477 
L 87.019425 76.000477 
L 79.663999 76.706478 
L 72.308574 77.553678 
L 64.953149 78.683279 
L 57.597724 80.095279 
L 50.242299 82.065662 
L 49.506756 82.35448 
L 42.886874 84.953845 
L 36.910591 88.708483 
L 35.531449 89.574938 
L 31.164165 95.062486 
L 28.176024 98.733688 
L 28.176024 95.203686 
z
" clip-path="url(#p4cc2404511)" style="fill: #d3dbe7"/>
    <path d="M 28.176024 95.062486 
L 28.176024 91.596666 
L 30.474594 88.708483 
L 35.531449 82.35448 
L 35.531449 82.35448 
L 42.886874 77.836078 
L 47.440232 76.000477 
L 50.242299 74.870877 
L 57.597724 72.967885 
L 64.953149 71.523793 
L 72.308574 70.36852 
L 78.438095 69.646474 
L 79.663999 69.502065 
L 87.019425 68.799274 
L 94.37485 68.202383 
L 101.730275 67.669673 
L 109.0857 67.246073 
L 116.441125 66.9027 
L 123.79655 66.469473 
L 131.151975 66.180654 
L 138.5074 67.104873 
L 145.862825 66.822473 
L 153.218251 66.540073 
L 160.573676 66.325064 
L 167.929101 66.036245 
L 167.929101 69.646474 
L 167.929101 69.646474 
L 160.573676 69.928874 
L 153.218251 70.079702 
L 145.862825 70.36852 
L 138.5074 70.657338 
L 131.151975 69.790883 
L 123.79655 70.079702 
L 116.441125 70.493675 
L 109.0857 70.801748 
L 101.730275 71.234975 
L 94.37485 71.812612 
L 87.019425 72.390248 
L 79.663999 73.112294 
L 72.308574 73.978749 
L 64.953149 75.134022 
L 60.539894 76.000477 
L 57.597724 76.565278 
L 50.242299 78.455433 
L 42.886874 81.36608 
L 41.277875 82.35448 
L 35.531449 85.964709 
L 33.347807 88.708483 
L 28.290952 95.062486 
L 28.176024 95.203686 
z
" clip-path="url(#p4cc2404511)" style="fill: #d9dce1"/>
    <path d="M 28.176024 88.708483 
L 28.176024 87.986437 
L 32.658236 82.35448 
L 35.531449 78.824479 
L 40.128589 76.000477 
L 42.886874 74.267567 
L 50.242299 71.340875 
L 56.546949 69.646474 
L 57.597724 69.357656 
L 64.953149 67.913564 
L 72.308574 66.822473 
L 79.663999 65.891836 
L 87.019425 65.269272 
L 94.37485 64.592154 
L 101.730275 64.139672 
L 109.0857 63.716071 
L 116.441125 63.292471 
L 116.441125 63.292471 
L 123.79655 62.868871 
L 131.151975 62.586471 
L 136.40585 63.292471 
L 138.5074 63.574871 
L 145.862825 63.292471 
L 145.862825 63.292471 
L 153.218251 63.003653 
L 160.573676 62.714835 
L 167.929101 62.445271 
L 167.929101 63.292471 
L 167.929101 66.036245 
L 160.573676 66.325064 
L 153.218251 66.540073 
L 145.862825 66.822473 
L 138.5074 67.104873 
L 131.151975 66.180654 
L 123.79655 66.469473 
L 116.441125 66.9027 
L 109.0857 67.246073 
L 101.730275 67.669673 
L 94.37485 68.202383 
L 87.019425 68.799274 
L 79.663999 69.502065 
L 78.438095 69.646474 
L 72.308574 70.36852 
L 64.953149 71.523793 
L 57.597724 72.967885 
L 50.242299 74.870877 
L 47.440232 76.000477 
L 42.886874 77.836078 
L 35.531449 82.35448 
L 35.531449 82.35448 
L 30.474594 88.708483 
L 28.176024 91.596666 
z
" clip-path="url(#p4cc2404511)" style="fill: #e0dbd8"/>
    <path d="M 29.785023 82.35448 
L 34.956806 76.000477 
L 35.531449 75.278431 
L 42.886874 70.657338 
L 45.461273 69.646474 
L 50.242299 67.769155 
L 57.597724 65.747427 
L 64.953149 64.303335 
L 72.308574 63.292471 
L 72.308574 63.292471 
L 79.663999 62.304071 
L 87.019425 61.703971 
L 94.37485 61.03327 
L 101.730275 60.548697 
L 109.0857 60.11547 
L 116.441125 59.682242 
L 123.79655 59.338869 
L 131.151975 59.056469 
L 138.5074 59.971061 
L 145.862825 59.682242 
L 153.218251 59.393424 
L 160.573676 59.104606 
L 167.929101 58.915269 
L 167.929101 62.445271 
L 160.573676 62.714835 
L 153.218251 63.003653 
L 145.862825 63.292471 
L 145.862825 63.292471 
L 138.5074 63.574871 
L 136.40585 63.292471 
L 131.151975 62.586471 
L 123.79655 62.868871 
L 116.441125 63.292471 
L 116.441125 63.292471 
L 109.0857 63.716071 
L 101.730275 64.139672 
L 94.37485 64.592154 
L 87.019425 65.269272 
L 79.663999 65.891836 
L 72.308574 66.822473 
L 64.953149 67.913564 
L 57.597724 69.357656 
L 56.546949 69.646474 
L 50.242299 71.340875 
L 42.886874 74.267567 
L 40.128589 76.000477 
L 35.531449 78.824479 
L 32.658236 82.35448 
L 28.176024 87.986437 
L 28.176024 84.376208 
z
" clip-path="url(#p4cc2404511)" style="fill: #e6d7cf"/>
    <path d="M 28.176024 82.35448 
L 28.176024 80.801279 
L 32.083593 76.000477 
L 35.531449 71.668202 
L 38.749447 69.646474 
L 42.886874 67.047109 
L 50.242299 64.158926 
L 53.394624 63.292471 
L 57.597724 62.162871 
L 64.953149 60.75087 
L 72.308574 59.682242 
L 79.663999 58.774069 
L 87.019425 58.093742 
L 94.37485 57.503269 
L 101.730275 56.938468 
L 101.730275 56.938468 
L 109.0857 56.505241 
L 116.441125 56.091268 
L 123.79655 55.783195 
L 131.151975 55.494377 
L 138.5074 56.373668 
L 145.862825 56.072013 
L 153.218251 55.808868 
L 160.573676 55.526468 
L 167.929101 55.349968 
L 167.929101 56.938468 
L 167.929101 58.915269 
L 160.573676 59.104606 
L 153.218251 59.393424 
L 145.862825 59.682242 
L 138.5074 59.971061 
L 131.151975 59.056469 
L 123.79655 59.338869 
L 116.441125 59.682242 
L 109.0857 60.11547 
L 101.730275 60.548697 
L 94.37485 61.03327 
L 87.019425 61.703971 
L 79.663999 62.304071 
L 72.308574 63.292471 
L 72.308574 63.292471 
L 64.953149 64.303335 
L 57.597724 65.747427 
L 50.242299 67.769155 
L 45.461273 69.646474 
L 42.886874 70.657338 
L 35.531449 75.278431 
L 34.956806 76.000477 
L 29.785023 82.35448 
L 28.176024 84.376208 
z
" clip-path="url(#p4cc2404511)" style="fill: #ebd3c6"/>
    <path d="M 29.21038 76.000477 
L 34.267235 69.646474 
L 35.531449 68.057974 
L 42.886874 63.43688 
L 43.254645 63.292471 
L 50.242299 60.60967 
L 57.597724 58.632869 
L 64.953149 57.220868 
L 66.792005 56.938468 
L 72.308574 56.072013 
L 79.663999 55.205558 
L 87.019425 54.538067 
L 94.37485 53.905876 
L 101.730275 53.408467 
L 109.0857 52.895012 
L 116.441125 52.561266 
L 123.79655 52.172966 
L 131.151975 51.884148 
L 138.5074 52.843666 
L 145.862825 52.461784 
L 153.218251 52.278866 
L 160.573676 51.996466 
L 167.929101 51.739739 
L 167.929101 55.349968 
L 160.573676 55.526468 
L 153.218251 55.808868 
L 145.862825 56.072013 
L 138.5074 56.373668 
L 131.151975 55.494377 
L 123.79655 55.783195 
L 116.441125 56.091268 
L 109.0857 56.505241 
L 101.730275 56.938468 
L 101.730275 56.938468 
L 94.37485 57.503269 
L 87.019425 58.093742 
L 79.663999 58.774069 
L 72.308574 59.682242 
L 64.953149 60.75087 
L 57.597724 62.162871 
L 53.394624 63.292471 
L 50.242299 64.158926 
L 42.886874 67.047109 
L 38.749447 69.646474 
L 35.531449 71.668202 
L 32.083593 76.000477 
L 28.176024 80.801279 
L 28.176024 77.271278 
z
" clip-path="url(#p4cc2404511)" style="fill: #efcebd"/>
    <path d="M 28.176024 76.000477 
L 28.176024 73.689931 
L 31.394022 69.646474 
L 35.531449 64.447745 
L 37.370305 63.292471 
L 42.886874 59.90367 
L 50.242299 57.079668 
L 50.767686 56.938468 
L 57.597724 55.061149 
L 64.953149 53.617058 
L 72.308574 52.461784 
L 79.663999 51.595329 
L 87.019425 51.008066 
L 91.43268 50.584465 
L 94.37485 50.302065 
L 101.730275 49.86242 
L 109.0857 49.313665 
L 116.441125 48.995965 
L 123.79655 48.607664 
L 131.151975 48.273919 
L 138.5074 49.284783 
L 145.862825 48.890065 
L 153.218251 48.707146 
L 160.573676 48.418328 
L 167.929101 48.12951 
L 167.929101 50.584465 
L 167.929101 51.739739 
L 160.573676 51.996466 
L 153.218251 52.278866 
L 145.862825 52.461784 
L 138.5074 52.843666 
L 131.151975 51.884148 
L 123.79655 52.172966 
L 116.441125 52.561266 
L 109.0857 52.895012 
L 101.730275 53.408467 
L 94.37485 53.905876 
L 87.019425 54.538067 
L 79.663999 55.205558 
L 72.308574 56.072013 
L 66.792005 56.938468 
L 64.953149 57.220868 
L 57.597724 58.632869 
L 50.242299 60.60967 
L 43.254645 63.292471 
L 42.886874 63.43688 
L 35.531449 68.057974 
L 34.267235 69.646474 
L 29.21038 76.000477 
L 28.176024 77.271278 
z
" clip-path="url(#p4cc2404511)" style="fill: #f2c9b4"/>
    <path d="M 28.520809 69.646474 
L 33.577664 63.292471 
L 35.531449 60.89207 
L 41.967446 56.938468 
L 42.886874 56.360832 
L 50.242299 53.472648 
L 57.597724 51.45092 
L 62.010979 50.584465 
L 64.953149 50.006829 
L 72.308574 48.890065 
L 79.663999 48.042864 
L 87.019425 47.407464 
L 94.37485 46.772064 
L 101.730275 46.252191 
L 109.0857 45.783663 
L 116.441125 45.385736 
L 123.79655 45.077663 
L 131.151975 44.66369 
L 138.5074 45.674554 
L 145.862825 45.360063 
L 153.218251 45.096917 
L 160.573676 44.808099 
L 167.929101 44.519281 
L 167.929101 48.12951 
L 160.573676 48.418328 
L 153.218251 48.707146 
L 145.862825 48.890065 
L 138.5074 49.284783 
L 131.151975 48.273919 
L 123.79655 48.607664 
L 116.441125 48.995965 
L 109.0857 49.313665 
L 101.730275 49.86242 
L 94.37485 50.302065 
L 91.43268 50.584465 
L 87.019425 51.008066 
L 79.663999 51.595329 
L 72.308574 52.461784 
L 64.953149 53.617058 
L 57.597724 55.061149 
L 50.767686 56.938468 
L 50.242299 57.079668 
L 42.886874 59.90367 
L 37.370305 63.292471 
L 35.531449 64.447745 
L 31.394022 69.646474 
L 28.176024 73.689931 
L 28.176024 70.079702 
z
" clip-path="url(#p4cc2404511)" style="fill: #f5c2aa"/>
    <path d="M 28.176024 69.646474 
L 28.176024 66.469473 
L 30.704451 63.292471 
L 35.531449 57.362068 
L 36.22102 56.938468 
L 42.886874 52.750603 
L 48.403443 50.584465 
L 50.242299 49.86242 
L 57.597724 47.901664 
L 64.953149 46.3966 
L 72.308574 45.360063 
L 79.663999 44.512862 
L 82.606169 44.230462 
L 87.019425 43.797235 
L 94.37485 43.219598 
L 101.730275 42.641962 
L 109.0857 42.208734 
L 116.441125 41.775507 
L 123.79655 41.486688 
L 131.151975 41.124061 
L 138.5074 42.064325 
L 145.862825 41.775507 
L 153.218251 41.486688 
L 160.573676 41.19787 
L 167.929101 40.982861 
L 167.929101 44.230462 
L 167.929101 44.519281 
L 160.573676 44.808099 
L 153.218251 45.096917 
L 145.862825 45.360063 
L 138.5074 45.674554 
L 131.151975 44.66369 
L 123.79655 45.077663 
L 116.441125 45.385736 
L 109.0857 45.783663 
L 101.730275 46.252191 
L 94.37485 46.772064 
L 87.019425 47.407464 
L 79.663999 48.042864 
L 72.308574 48.890065 
L 64.953149 50.006829 
L 62.010979 50.584465 
L 57.597724 51.45092 
L 50.242299 53.472648 
L 42.886874 56.360832 
L 41.967446 56.938468 
L 35.531449 60.89207 
L 33.577664 63.292471 
L 28.520809 69.646474 
L 28.176024 70.079702 
z
" clip-path="url(#p4cc2404511)" style="fill: #f7bca1"/>
    <path d="M 28.176024 63.292471 
L 28.176024 62.868871 
L 33.003021 56.938468 
L 35.531449 53.761467 
L 40.588304 50.584465 
L 42.886874 49.140374 
L 50.242299 46.252191 
L 57.597724 44.371662 
L 58.266399 44.230462 
L 64.953149 42.818462 
L 72.308574 41.775507 
L 79.663999 40.909052 
L 87.019425 40.187006 
L 94.37485 39.609369 
L 101.730275 39.031733 
L 109.0857 38.598505 
L 116.441125 38.165278 
L 123.79655 37.876459 
L 123.79655 37.876459 
L 131.151975 37.587641 
L 133.603784 37.876459 
L 138.5074 38.454096 
L 145.862825 38.165278 
L 153.218251 37.876459 
L 153.218251 37.876459 
L 160.573676 37.594059 
L 167.929101 37.443232 
L 167.929101 37.876459 
L 167.929101 40.982861 
L 160.573676 41.19787 
L 153.218251 41.486688 
L 145.862825 41.775507 
L 138.5074 42.064325 
L 131.151975 41.124061 
L 123.79655 41.486688 
L 116.441125 41.775507 
L 109.0857 42.208734 
L 101.730275 42.641962 
L 94.37485 43.219598 
L 87.019425 43.797235 
L 82.606169 44.230462 
L 79.663999 44.512862 
L 72.308574 45.360063 
L 64.953149 46.3966 
L 57.597724 47.901664 
L 50.242299 49.86242 
L 48.403443 50.584465 
L 42.886874 52.750603 
L 36.22102 56.938468 
L 35.531449 57.362068 
L 30.704451 63.292471 
L 28.176024 66.469473 
z
" clip-path="url(#p4cc2404511)" style="fill: #f7b497"/>
    <path d="M 30.129808 56.938468 
L 35.186663 50.584465 
L 35.531449 50.160865 
L 42.886874 45.530145 
L 46.196815 44.230462 
L 50.242299 42.677262 
L 57.597724 40.764643 
L 64.953149 39.28846 
L 72.308574 38.165278 
L 74.760383 37.876459 
L 79.663999 37.298823 
L 87.019425 36.605659 
L 94.37485 35.99914 
L 101.730275 35.476058 
L 109.0857 35.052458 
L 116.441125 34.628858 
L 123.79655 34.26623 
L 131.151975 33.977412 
L 138.5074 34.911258 
L 145.862825 34.555049 
L 153.218251 34.346458 
L 160.573676 34.064058 
L 167.929101 33.833003 
L 167.929101 37.443232 
L 160.573676 37.594059 
L 153.218251 37.876459 
L 153.218251 37.876459 
L 145.862825 38.165278 
L 138.5074 38.454096 
L 133.603784 37.876459 
L 131.151975 37.587641 
L 123.79655 37.876459 
L 123.79655 37.876459 
L 116.441125 38.165278 
L 109.0857 38.598505 
L 101.730275 39.031733 
L 94.37485 39.609369 
L 87.019425 40.187006 
L 79.663999 40.909052 
L 72.308574 41.775507 
L 64.953149 42.818462 
L 58.266399 44.230462 
L 57.597724 44.371662 
L 50.242299 46.252191 
L 42.886874 49.140374 
L 40.588304 50.584465 
L 35.531449 53.761467 
L 33.003021 56.938468 
L 28.176024 62.868871 
L 28.176024 59.338869 
z
" clip-path="url(#p4cc2404511)" style="fill: #f7ac8e"/>
    <path d="M 28.176024 56.938468 
L 28.176024 55.783195 
L 32.31345 50.584465 
L 35.531449 46.630863 
L 39.320607 44.230462 
L 42.886874 41.971261 
L 50.242299 39.14726 
L 54.970787 37.876459 
L 57.597724 37.154414 
L 64.953149 35.710322 
L 72.308574 34.555049 
L 79.663999 33.688594 
L 87.019425 33.075657 
L 94.37485 32.388911 
L 101.730275 31.946057 
L 109.0857 31.522456 
L 109.0857 31.522456 
L 116.441125 31.089229 
L 123.79655 30.675256 
L 131.151975 30.392856 
L 138.5074 31.378047 
L 145.862825 30.957656 
L 153.218251 30.800411 
L 160.573676 30.511592 
L 167.929101 30.222774 
L 167.929101 31.522456 
L 167.929101 33.833003 
L 160.573676 34.064058 
L 153.218251 34.346458 
L 145.862825 34.555049 
L 138.5074 34.911258 
L 131.151975 33.977412 
L 123.79655 34.26623 
L 116.441125 34.628858 
L 109.0857 35.052458 
L 101.730275 35.476058 
L 94.37485 35.99914 
L 87.019425 36.605659 
L 79.663999 37.298823 
L 74.760383 37.876459 
L 72.308574 38.165278 
L 64.953149 39.28846 
L 57.597724 40.764643 
L 50.242299 42.677262 
L 46.196815 44.230462 
L 42.886874 45.530145 
L 35.531449 50.160865 
L 35.186663 50.584465 
L 30.129808 56.938468 
L 28.176024 59.338869 
z
" clip-path="url(#p4cc2404511)" style="fill: #f6a385"/>
    <path d="M 29.440237 50.584465 
L 34.612021 44.230462 
L 35.531449 43.075189 
L 42.886874 38.44126 
L 44.357959 37.876459 
L 50.242299 35.565913 
L 57.597724 33.544185 
L 64.953149 32.100093 
L 68.630862 31.522456 
L 72.308574 30.957656 
L 79.663999 30.110456 
L 87.019425 29.500728 
L 94.37485 28.839655 
L 101.730275 28.345455 
L 109.0857 27.912227 
L 116.441125 27.479 
L 123.79655 27.145254 
L 131.151975 26.862854 
L 138.5074 27.767818 
L 145.862825 27.427654 
L 153.218251 27.190182 
L 160.573676 26.901363 
L 167.929101 26.612545 
L 167.929101 30.222774 
L 160.573676 30.511592 
L 153.218251 30.800411 
L 145.862825 30.957656 
L 138.5074 31.378047 
L 131.151975 30.392856 
L 123.79655 30.675256 
L 116.441125 31.089229 
L 109.0857 31.522456 
L 109.0857 31.522456 
L 101.730275 31.946057 
L 94.37485 32.388911 
L 87.019425 33.075657 
L 79.663999 33.688594 
L 72.308574 34.555049 
L 64.953149 35.710322 
L 57.597724 37.154414 
L 54.970787 37.876459 
L 50.242299 39.14726 
L 42.886874 41.971261 
L 39.320607 44.230462 
L 35.531449 46.630863 
L 32.31345 50.584465 
L 28.176024 55.783195 
L 28.176024 52.172966 
z
" clip-path="url(#p4cc2404511)" style="fill: #f4987a"/>
    <path d="M 28.176024 50.584465 
L 28.176024 48.607664 
L 31.738808 44.230462 
L 35.531449 39.46496 
L 38.059876 37.876459 
L 42.886874 34.843867 
L 50.242299 31.955684 
L 51.818461 31.522456 
L 57.597724 29.969256 
L 64.953149 28.557255 
L 72.308574 27.427654 
L 79.663999 26.580454 
L 87.019425 25.890499 
L 94.37485 25.309653 
L 96.213706 25.168453 
L 101.730275 24.735226 
L 109.0857 24.301998 
L 116.441125 23.897653 
L 123.79655 23.579953 
L 131.151975 23.291134 
L 138.5074 24.157589 
L 145.862825 23.868771 
L 153.218251 23.579953 
L 160.573676 23.332853 
L 167.929101 23.050452 
L 167.929101 25.168453 
L 167.929101 26.612545 
L 160.573676 26.901363 
L 153.218251 27.190182 
L 145.862825 27.427654 
L 138.5074 27.767818 
L 131.151975 26.862854 
L 123.79655 27.145254 
L 116.441125 27.479 
L 109.0857 27.912227 
L 101.730275 28.345455 
L 94.37485 28.839655 
L 87.019425 29.500728 
L 79.663999 30.110456 
L 72.308574 30.957656 
L 68.630862 31.522456 
L 64.953149 32.100093 
L 57.597724 33.544185 
L 50.242299 35.565913 
L 44.357959 37.876459 
L 42.886874 38.44126 
L 35.531449 43.075189 
L 34.612021 44.230462 
L 29.440237 50.584465 
L 28.176024 52.172966 
z
" clip-path="url(#p4cc2404511)" style="fill: #f18f71"/>
    <path d="M 28.865595 44.230462 
L 33.922449 37.876459 
L 35.531449 35.854731 
L 42.42716 31.522456 
L 42.886874 31.240056 
L 50.242299 28.345455 
L 57.597724 26.439254 
L 64.217607 25.168453 
L 64.953149 25.024044 
L 72.308574 23.868771 
L 79.663999 23.002316 
L 87.019425 22.28027 
L 94.37485 21.702634 
L 101.730275 21.124997 
L 109.0857 20.691769 
L 116.441125 20.367651 
L 123.79655 19.969724 
L 131.151975 19.680905 
L 138.5074 20.54736 
L 145.862825 20.258542 
L 153.218251 19.969724 
L 160.573676 19.802851 
L 167.929101 19.520451 
L 167.929101 23.050452 
L 160.573676 23.332853 
L 153.218251 23.579953 
L 145.862825 23.868771 
L 138.5074 24.157589 
L 131.151975 23.291134 
L 123.79655 23.579953 
L 116.441125 23.897653 
L 109.0857 24.301998 
L 101.730275 24.735226 
L 96.213706 25.168453 
L 94.37485 25.309653 
L 87.019425 25.890499 
L 79.663999 26.580454 
L 72.308574 27.427654 
L 64.953149 28.557255 
L 57.597724 29.969256 
L 51.818461 31.522456 
L 50.242299 31.955684 
L 42.886874 34.843867 
L 38.059876 37.876459 
L 35.531449 39.46496 
L 31.738808 44.230462 
L 28.176024 48.607664 
L 28.176024 45.077663 
z
" clip-path="url(#p4cc2404511)" style="fill: #ee8468"/>
    <path d="M 28.176024 44.230462 
L 28.176024 41.486688 
L 31.049237 37.876459 
L 35.531449 32.244502 
L 36.680734 31.522456 
L 42.886874 27.710055 
L 49.191524 25.168453 
L 50.242299 24.744853 
L 57.597724 22.857907 
L 64.953149 21.413815 
L 72.308574 20.258542 
L 79.663999 19.392087 
L 85.54834 18.81445 
L 87.019425 18.81445 
L 94.37485 18.81445 
L 101.730275 18.81445 
L 109.0857 18.81445 
L 116.441125 18.81445 
L 123.79655 18.81445 
L 131.151975 18.81445 
L 138.5074 18.81445 
L 145.862825 18.81445 
L 153.218251 18.81445 
L 160.573676 18.81445 
L 167.929101 18.81445 
L 167.929101 19.520451 
L 160.573676 19.802851 
L 153.218251 19.969724 
L 145.862825 20.258542 
L 138.5074 20.54736 
L 131.151975 19.680905 
L 123.79655 19.969724 
L 116.441125 20.367651 
L 109.0857 20.691769 
L 101.730275 21.124997 
L 94.37485 21.702634 
L 87.019425 22.28027 
L 79.663999 23.002316 
L 72.308574 23.868771 
L 64.953149 25.024044 
L 64.217607 25.168453 
L 57.597724 26.439254 
L 50.242299 28.345455 
L 42.886874 31.240056 
L 42.42716 31.522456 
L 35.531449 35.854731 
L 33.922449 37.876459 
L 28.865595 44.230462 
L 28.176024 45.077663 
z
" clip-path="url(#p4cc2404511)" style="fill: #e97a5f"/>
    <path d="M 28.176024 37.876459 
L 28.176024 37.876459 
L 33.232878 31.522456 
L 35.531449 28.698455 
L 41.277875 25.168453 
L 42.886874 24.157589 
L 50.242299 21.214852 
L 57.597724 19.247678 
L 59.804352 18.81445 
L 64.953149 18.81445 
L 72.308574 18.81445 
L 79.663999 18.81445 
L 85.54834 18.81445 
L 79.663999 19.392087 
L 72.308574 20.258542 
L 64.953149 21.413815 
L 57.597724 22.857907 
L 50.242299 24.744853 
L 49.191524 25.168453 
L 42.886874 27.710055 
L 36.680734 31.522456 
L 35.531449 32.244502 
L 31.049237 37.876459 
L 28.176024 41.486688 
z
" clip-path="url(#p4cc2404511)" style="fill: #e46e56"/>
    <path d="M 30.359665 31.522456 
L 35.531449 25.168453 
L 35.531449 25.168453 
L 42.886874 20.54736 
L 47.300129 18.81445 
L 50.242299 18.81445 
L 57.597724 18.81445 
L 59.804352 18.81445 
L 57.597724 19.247678 
L 50.242299 21.214852 
L 42.886874 24.157589 
L 41.277875 25.168453 
L 35.531449 28.698455 
L 33.232878 31.522456 
L 28.176024 37.876459 
L 28.176024 34.26623 
z
" clip-path="url(#p4cc2404511)" style="fill: #df634e"/>
    <path d="M 28.176024 31.522456 
L 28.176024 30.675256 
L 32.658236 25.168453 
L 35.531449 21.558224 
L 39.898732 18.81445 
L 42.886874 18.81445 
L 47.300129 18.81445 
L 42.886874 20.54736 
L 35.531449 25.168453 
L 35.531449 25.168453 
L 30.359665 31.522456 
L 28.176024 34.26623 
z
" clip-path="url(#p4cc2404511)" style="fill: #d85646"/>
    <path d="M 29.785023 25.168453 
L 34.841878 18.81445 
L 35.531449 18.81445 
L 39.898732 18.81445 
L 35.531449 21.558224 
L 32.658236 25.168453 
L 28.176024 30.675256 
L 28.176024 27.145254 
z
" clip-path="url(#p4cc2404511)" style="fill: #d1493f"/>
    <path d="M 28.176024 25.168453 
L 28.176024 23.579953 
L 31.968665 18.81445 
L 34.841878 18.81445 
L 29.785023 25.168453 
L 28.176024 27.145254 
z
" clip-path="url(#p4cc2404511)" style="fill: #ca3b37"/>
    <path d="M 29.095452 18.81445 
L 31.968665 18.81445 
L 28.176024 23.579953 
L 28.176024 19.969724 
z
" clip-path="url(#p4cc2404511)" style="fill: #c12b30"/>
    <path d="M 28.176024 18.81445 
L 29.095452 18.81445 
L 28.176024 19.969724 
z
" clip-path="url(#p4cc2404511)" style="fill: #b8122a"/>
   </g>
   <g id="QuadContourSet_2">
    <path d="M 28.176024 133.186504 
L 28.176024 126.832501 
L 28.176024 120.478498 
L 28.176024 114.124495 
L 28.176024 107.770492 
L 28.176024 101.416489 
L 28.176024 95.062486 
L 28.176024 88.708483 
L 28.176024 82.35448 
L 28.176024 76.000477 
L 28.176024 75.856068 
L 33.11795 69.646474 
L 35.531449 66.613882 
L 40.818161 63.292471 
L 42.886874 62.021671 
L 50.242299 59.197669 
L 57.597724 57.220868 
L 59.068809 56.938468 
L 64.953149 55.783195 
L 72.308574 54.627922 
L 79.663999 53.761467 
L 87.019425 53.126067 
L 94.37485 52.461784 
L 101.730275 51.996466 
L 109.0857 51.45092 
L 116.441125 51.149266 
L 123.79655 50.728874 
L 127.474263 50.584465 
L 131.151975 50.440056 
L 132.20275 50.584465 
L 138.5074 51.431666 
L 145.862825 51.017693 
L 153.218251 50.866865 
L 160.573676 50.584465 
L 160.573676 50.584465 
L 167.929101 50.295647 
L 167.929101 50.584465 
L 167.929101 56.938468 
L 167.929101 63.292471 
L 167.929101 69.646474 
L 167.929101 76.000477 
L 167.929101 82.35448 
L 167.929101 88.708483 
L 167.929101 95.062486 
L 167.929101 101.416489 
L 167.929101 107.770492 
L 167.929101 114.124495 
L 167.929101 120.478498 
L 167.929101 123.302499 
L 160.573676 123.5849 
L 153.218251 123.799909 
L 145.862825 124.088727 
L 138.5074 124.377545 
L 131.151975 123.51109 
L 123.79655 123.799909 
L 116.441125 124.1497 
L 109.0857 124.521955 
L 101.730275 124.955182 
L 94.37485 125.532819 
L 87.019425 126.110455 
L 79.663999 126.832501 
L 79.663999 126.832501 
L 72.308574 127.679702 
L 64.953149 128.809302 
L 57.597724 130.221303 
L 50.242299 132.17564 
L 47.6679 133.186504 
L 42.886874 135.063823 
L 35.761306 139.540507 
L 35.531449 139.540507 
L 28.176024 139.540507 
z
" clip-path="url(#p4cc2404511)" style="fill: #d3d3d3; fill-opacity: 0.5"/>
   </g>
   <g id="matplotlib.axis_1">
    <g id="xtick_1">
     <g id="line2d_1">
      <defs>
       <path id="m576e59e3ba" d="M 0 0 
L 0 3.5 
" style="stroke: #000000; stroke-width: 0.8"/>
      </defs>
      <g>
       <use xlink:href="#m576e59e3ba" x="52.747993" y="139.540507" style="stroke: #000000; stroke-width: 0.8"/>
      </g>
     </g>
     <g id="text_1">
      <!-- 25 -->
      <g transform="translate(47.187056 153.69832) scale(0.1 -0.1)">
       <defs>
        <path id="ArialMT-32" d="M 3222 541 
L 3222 0 
L 194 0 
Q 188 203 259 391 
Q 375 700 629 1000 
Q 884 1300 1366 1694 
Q 2113 2306 2375 2664 
Q 2638 3022 2638 3341 
Q 2638 3675 2398 3904 
Q 2159 4134 1775 4134 
Q 1369 4134 1125 3890 
Q 881 3647 878 3216 
L 300 3275 
Q 359 3922 746 4261 
Q 1134 4600 1788 4600 
Q 2447 4600 2831 4234 
Q 3216 3869 3216 3328 
Q 3216 3053 3103 2787 
Q 2991 2522 2730 2228 
Q 2469 1934 1863 1422 
Q 1356 997 1212 845 
Q 1069 694 975 541 
L 3222 541 
z
" transform="scale(0.015625)"/>
        <path id="ArialMT-35" d="M 266 1200 
L 856 1250 
Q 922 819 1161 601 
Q 1400 384 1738 384 
Q 2144 384 2425 690 
Q 2706 997 2706 1503 
Q 2706 1984 2436 2262 
Q 2166 2541 1728 2541 
Q 1456 2541 1237 2417 
Q 1019 2294 894 2097 
L 366 2166 
L 809 4519 
L 3088 4519 
L 3088 3981 
L 1259 3981 
L 1013 2750 
Q 1425 3038 1878 3038 
Q 2478 3038 2890 2622 
Q 3303 2206 3303 1553 
Q 3303 931 2941 478 
Q 2500 -78 1738 -78 
Q 1113 -78 717 272 
Q 322 622 266 1200 
z
" transform="scale(0.015625)"/>
       </defs>
       <use xlink:href="#ArialMT-32"/>
       <use xlink:href="#ArialMT-35" transform="translate(55.615234 0)"/>
      </g>
     </g>
    </g>
    <g id="xtick_2">
     <g id="line2d_2">
      <g>
       <use xlink:href="#m576e59e3ba" x="91.141696" y="139.540507" style="stroke: #000000; stroke-width: 0.8"/>
      </g>
     </g>
     <g id="text_2">
      <!-- 50 -->
      <g transform="translate(85.580758 153.69832) scale(0.1 -0.1)">
       <defs>
        <path id="ArialMT-30" d="M 266 2259 
Q 266 3072 433 3567 
Q 600 4063 929 4331 
Q 1259 4600 1759 4600 
Q 2128 4600 2406 4451 
Q 2684 4303 2865 4023 
Q 3047 3744 3150 3342 
Q 3253 2941 3253 2259 
Q 3253 1453 3087 958 
Q 2922 463 2592 192 
Q 2263 -78 1759 -78 
Q 1097 -78 719 397 
Q 266 969 266 2259 
z
M 844 2259 
Q 844 1131 1108 757 
Q 1372 384 1759 384 
Q 2147 384 2411 759 
Q 2675 1134 2675 2259 
Q 2675 3391 2411 3762 
Q 2147 4134 1753 4134 
Q 1366 4134 1134 3806 
Q 844 3388 844 2259 
z
" transform="scale(0.015625)"/>
       </defs>
       <use xlink:href="#ArialMT-35"/>
       <use xlink:href="#ArialMT-30" transform="translate(55.615234 0)"/>
      </g>
     </g>
    </g>
    <g id="xtick_3">
     <g id="line2d_3">
      <g>
       <use xlink:href="#m576e59e3ba" x="129.535398" y="139.540507" style="stroke: #000000; stroke-width: 0.8"/>
      </g>
     </g>
     <g id="text_3">
      <!-- 75 -->
      <g transform="translate(123.974461 153.69832) scale(0.1 -0.1)">
       <defs>
        <path id="ArialMT-37" d="M 303 3981 
L 303 4522 
L 3269 4522 
L 3269 4084 
Q 2831 3619 2401 2847 
Q 1972 2075 1738 1259 
Q 1569 684 1522 0 
L 944 0 
Q 953 541 1156 1306 
Q 1359 2072 1739 2783 
Q 2119 3494 2547 3981 
L 303 3981 
z
" transform="scale(0.015625)"/>
       </defs>
       <use xlink:href="#ArialMT-37"/>
       <use xlink:href="#ArialMT-35" transform="translate(55.615234 0)"/>
      </g>
     </g>
    </g>
    <g id="xtick_4">
     <g id="line2d_4">
      <g>
       <use xlink:href="#m576e59e3ba" x="167.929101" y="139.540507" style="stroke: #000000; stroke-width: 0.8"/>
      </g>
     </g>
     <g id="text_4">
      <!-- 100 -->
      <g transform="translate(159.587695 153.69832) scale(0.1 -0.1)">
       <defs>
        <path id="ArialMT-31" d="M 2384 0 
L 1822 0 
L 1822 3584 
Q 1619 3391 1289 3197 
Q 959 3003 697 2906 
L 697 3450 
Q 1169 3672 1522 3987 
Q 1875 4303 2022 4600 
L 2384 4600 
L 2384 0 
z
" transform="scale(0.015625)"/>
       </defs>
       <use xlink:href="#ArialMT-31"/>
       <use xlink:href="#ArialMT-30" transform="translate(55.615234 0)"/>
       <use xlink:href="#ArialMT-30" transform="translate(111.230469 0)"/>
      </g>
     </g>
    </g>
    <g id="text_5">
     <!-- SAF production scale (MM gal/year) -->
     <g transform="translate(18.306468 166.965507) scale(0.1 -0.1)">
      <defs>
       <path id="ArialMT-53" d="M 288 1472 
L 859 1522 
Q 900 1178 1048 958 
Q 1197 738 1509 602 
Q 1822 466 2213 466 
Q 2559 466 2825 569 
Q 3091 672 3220 851 
Q 3350 1031 3350 1244 
Q 3350 1459 3225 1620 
Q 3100 1781 2813 1891 
Q 2628 1963 1997 2114 
Q 1366 2266 1113 2400 
Q 784 2572 623 2826 
Q 463 3081 463 3397 
Q 463 3744 659 4045 
Q 856 4347 1234 4503 
Q 1613 4659 2075 4659 
Q 2584 4659 2973 4495 
Q 3363 4331 3572 4012 
Q 3781 3694 3797 3291 
L 3216 3247 
Q 3169 3681 2898 3903 
Q 2628 4125 2100 4125 
Q 1550 4125 1298 3923 
Q 1047 3722 1047 3438 
Q 1047 3191 1225 3031 
Q 1400 2872 2139 2705 
Q 2878 2538 3153 2413 
Q 3553 2228 3743 1945 
Q 3934 1663 3934 1294 
Q 3934 928 3725 604 
Q 3516 281 3123 101 
Q 2731 -78 2241 -78 
Q 1619 -78 1198 103 
Q 778 284 539 648 
Q 300 1013 288 1472 
z
" transform="scale(0.015625)"/>
       <path id="ArialMT-41" d="M -9 0 
L 1750 4581 
L 2403 4581 
L 4278 0 
L 3588 0 
L 3053 1388 
L 1138 1388 
L 634 0 
L -9 0 
z
M 1313 1881 
L 2866 1881 
L 2388 3150 
Q 2169 3728 2063 4100 
Q 1975 3659 1816 3225 
L 1313 1881 
z
" transform="scale(0.015625)"/>
       <path id="ArialMT-46" d="M 525 0 
L 525 4581 
L 3616 4581 
L 3616 4041 
L 1131 4041 
L 1131 2622 
L 3281 2622 
L 3281 2081 
L 1131 2081 
L 1131 0 
L 525 0 
z
" transform="scale(0.015625)"/>
       <path id="ArialMT-20" transform="scale(0.015625)"/>
       <path id="ArialMT-70" d="M 422 -1272 
L 422 3319 
L 934 3319 
L 934 2888 
Q 1116 3141 1344 3267 
Q 1572 3394 1897 3394 
Q 2322 3394 2647 3175 
Q 2972 2956 3137 2557 
Q 3303 2159 3303 1684 
Q 3303 1175 3120 767 
Q 2938 359 2589 142 
Q 2241 -75 1856 -75 
Q 1575 -75 1351 44 
Q 1128 163 984 344 
L 984 -1272 
L 422 -1272 
z
M 931 1641 
Q 931 1000 1190 694 
Q 1450 388 1819 388 
Q 2194 388 2461 705 
Q 2728 1022 2728 1688 
Q 2728 2322 2467 2637 
Q 2206 2953 1844 2953 
Q 1484 2953 1207 2617 
Q 931 2281 931 1641 
z
" transform="scale(0.015625)"/>
       <path id="ArialMT-72" d="M 416 0 
L 416 3319 
L 922 3319 
L 922 2816 
Q 1116 3169 1280 3281 
Q 1444 3394 1641 3394 
Q 1925 3394 2219 3213 
L 2025 2691 
Q 1819 2813 1613 2813 
Q 1428 2813 1281 2702 
Q 1134 2591 1072 2394 
Q 978 2094 978 1738 
L 978 0 
L 416 0 
z
" transform="scale(0.015625)"/>
       <path id="ArialMT-6f" d="M 213 1659 
Q 213 2581 725 3025 
Q 1153 3394 1769 3394 
Q 2453 3394 2887 2945 
Q 3322 2497 3322 1706 
Q 3322 1066 3130 698 
Q 2938 331 2570 128 
Q 2203 -75 1769 -75 
Q 1072 -75 642 372 
Q 213 819 213 1659 
z
M 791 1659 
Q 791 1022 1069 705 
Q 1347 388 1769 388 
Q 2188 388 2466 706 
Q 2744 1025 2744 1678 
Q 2744 2294 2464 2611 
Q 2184 2928 1769 2928 
Q 1347 2928 1069 2612 
Q 791 2297 791 1659 
z
" transform="scale(0.015625)"/>
       <path id="ArialMT-64" d="M 2575 0 
L 2575 419 
Q 2259 -75 1647 -75 
Q 1250 -75 917 144 
Q 584 363 401 755 
Q 219 1147 219 1656 
Q 219 2153 384 2558 
Q 550 2963 881 3178 
Q 1213 3394 1622 3394 
Q 1922 3394 2156 3267 
Q 2391 3141 2538 2938 
L 2538 4581 
L 3097 4581 
L 3097 0 
L 2575 0 
z
M 797 1656 
Q 797 1019 1065 703 
Q 1334 388 1700 388 
Q 2069 388 2326 689 
Q 2584 991 2584 1609 
Q 2584 2291 2321 2609 
Q 2059 2928 1675 2928 
Q 1300 2928 1048 2622 
Q 797 2316 797 1656 
z
" transform="scale(0.015625)"/>
       <path id="ArialMT-75" d="M 2597 0 
L 2597 488 
Q 2209 -75 1544 -75 
Q 1250 -75 995 37 
Q 741 150 617 320 
Q 494 491 444 738 
Q 409 903 409 1263 
L 409 3319 
L 972 3319 
L 972 1478 
Q 972 1038 1006 884 
Q 1059 663 1231 536 
Q 1403 409 1656 409 
Q 1909 409 2131 539 
Q 2353 669 2445 892 
Q 2538 1116 2538 1541 
L 2538 3319 
L 3100 3319 
L 3100 0 
L 2597 0 
z
" transform="scale(0.015625)"/>
       <path id="ArialMT-63" d="M 2588 1216 
L 3141 1144 
Q 3050 572 2676 248 
Q 2303 -75 1759 -75 
Q 1078 -75 664 370 
Q 250 816 250 1647 
Q 250 2184 428 2587 
Q 606 2991 970 3192 
Q 1334 3394 1763 3394 
Q 2303 3394 2647 3120 
Q 2991 2847 3088 2344 
L 2541 2259 
Q 2463 2594 2264 2762 
Q 2066 2931 1784 2931 
Q 1359 2931 1093 2626 
Q 828 2322 828 1663 
Q 828 994 1084 691 
Q 1341 388 1753 388 
Q 2084 388 2306 591 
Q 2528 794 2588 1216 
z
" transform="scale(0.015625)"/>
       <path id="ArialMT-74" d="M 1650 503 
L 1731 6 
Q 1494 -44 1306 -44 
Q 1000 -44 831 53 
Q 663 150 594 308 
Q 525 466 525 972 
L 525 2881 
L 113 2881 
L 113 3319 
L 525 3319 
L 525 4141 
L 1084 4478 
L 1084 3319 
L 1650 3319 
L 1650 2881 
L 1084 2881 
L 1084 941 
Q 1084 700 1114 631 
Q 1144 563 1211 522 
Q 1278 481 1403 481 
Q 1497 481 1650 503 
z
" transform="scale(0.015625)"/>
       <path id="ArialMT-69" d="M 425 3934 
L 425 4581 
L 988 4581 
L 988 3934 
L 425 3934 
z
M 425 0 
L 425 3319 
L 988 3319 
L 988 0 
L 425 0 
z
" transform="scale(0.015625)"/>
       <path id="ArialMT-6e" d="M 422 0 
L 422 3319 
L 928 3319 
L 928 2847 
Q 1294 3394 1984 3394 
Q 2284 3394 2536 3286 
Q 2788 3178 2913 3003 
Q 3038 2828 3088 2588 
Q 3119 2431 3119 2041 
L 3119 0 
L 2556 0 
L 2556 2019 
Q 2556 2363 2490 2533 
Q 2425 2703 2258 2804 
Q 2091 2906 1866 2906 
Q 1506 2906 1245 2678 
Q 984 2450 984 1813 
L 984 0 
L 422 0 
z
" transform="scale(0.015625)"/>
       <path id="ArialMT-73" d="M 197 991 
L 753 1078 
Q 800 744 1014 566 
Q 1228 388 1613 388 
Q 2000 388 2187 545 
Q 2375 703 2375 916 
Q 2375 1106 2209 1216 
Q 2094 1291 1634 1406 
Q 1016 1563 777 1677 
Q 538 1791 414 1992 
Q 291 2194 291 2438 
Q 291 2659 392 2848 
Q 494 3038 669 3163 
Q 800 3259 1026 3326 
Q 1253 3394 1513 3394 
Q 1903 3394 2198 3281 
Q 2494 3169 2634 2976 
Q 2775 2784 2828 2463 
L 2278 2388 
Q 2241 2644 2061 2787 
Q 1881 2931 1553 2931 
Q 1166 2931 1000 2803 
Q 834 2675 834 2503 
Q 834 2394 903 2306 
Q 972 2216 1119 2156 
Q 1203 2125 1616 2013 
Q 2213 1853 2448 1751 
Q 2684 1650 2818 1456 
Q 2953 1263 2953 975 
Q 2953 694 2789 445 
Q 2625 197 2315 61 
Q 2006 -75 1616 -75 
Q 969 -75 630 194 
Q 291 463 197 991 
z
" transform="scale(0.015625)"/>
       <path id="ArialMT-61" d="M 2588 409 
Q 2275 144 1986 34 
Q 1697 -75 1366 -75 
Q 819 -75 525 192 
Q 231 459 231 875 
Q 231 1119 342 1320 
Q 453 1522 633 1644 
Q 813 1766 1038 1828 
Q 1203 1872 1538 1913 
Q 2219 1994 2541 2106 
Q 2544 2222 2544 2253 
Q 2544 2597 2384 2738 
Q 2169 2928 1744 2928 
Q 1347 2928 1158 2789 
Q 969 2650 878 2297 
L 328 2372 
Q 403 2725 575 2942 
Q 747 3159 1072 3276 
Q 1397 3394 1825 3394 
Q 2250 3394 2515 3294 
Q 2781 3194 2906 3042 
Q 3031 2891 3081 2659 
Q 3109 2516 3109 2141 
L 3109 1391 
Q 3109 606 3145 398 
Q 3181 191 3288 0 
L 2700 0 
Q 2613 175 2588 409 
z
M 2541 1666 
Q 2234 1541 1622 1453 
Q 1275 1403 1131 1340 
Q 988 1278 909 1158 
Q 831 1038 831 891 
Q 831 666 1001 516 
Q 1172 366 1500 366 
Q 1825 366 2078 508 
Q 2331 650 2450 897 
Q 2541 1088 2541 1459 
L 2541 1666 
z
" transform="scale(0.015625)"/>
       <path id="ArialMT-6c" d="M 409 0 
L 409 4581 
L 972 4581 
L 972 0 
L 409 0 
z
" transform="scale(0.015625)"/>
       <path id="ArialMT-65" d="M 2694 1069 
L 3275 997 
Q 3138 488 2766 206 
Q 2394 -75 1816 -75 
Q 1088 -75 661 373 
Q 234 822 234 1631 
Q 234 2469 665 2931 
Q 1097 3394 1784 3394 
Q 2450 3394 2872 2941 
Q 3294 2488 3294 1666 
Q 3294 1616 3291 1516 
L 816 1516 
Q 847 969 1125 678 
Q 1403 388 1819 388 
Q 2128 388 2347 550 
Q 2566 713 2694 1069 
z
M 847 1978 
L 2700 1978 
Q 2663 2397 2488 2606 
Q 2219 2931 1791 2931 
Q 1403 2931 1139 2672 
Q 875 2413 847 1978 
z
" transform="scale(0.015625)"/>
       <path id="ArialMT-28" d="M 1497 -1347 
Q 1031 -759 709 28 
Q 388 816 388 1659 
Q 388 2403 628 3084 
Q 909 3875 1497 4659 
L 1900 4659 
Q 1522 4009 1400 3731 
Q 1209 3300 1100 2831 
Q 966 2247 966 1656 
Q 966 153 1900 -1347 
L 1497 -1347 
z
" transform="scale(0.015625)"/>
       <path id="ArialMT-4d" d="M 475 0 
L 475 4581 
L 1388 4581 
L 2472 1338 
Q 2622 884 2691 659 
Q 2769 909 2934 1394 
L 4031 4581 
L 4847 4581 
L 4847 0 
L 4263 0 
L 4263 3834 
L 2931 0 
L 2384 0 
L 1059 3900 
L 1059 0 
L 475 0 
z
" transform="scale(0.015625)"/>
       <path id="ArialMT-67" d="M 319 -275 
L 866 -356 
Q 900 -609 1056 -725 
Q 1266 -881 1628 -881 
Q 2019 -881 2231 -725 
Q 2444 -569 2519 -288 
Q 2563 -116 2559 434 
Q 2191 0 1641 0 
Q 956 0 581 494 
Q 206 988 206 1678 
Q 206 2153 378 2554 
Q 550 2956 876 3175 
Q 1203 3394 1644 3394 
Q 2231 3394 2613 2919 
L 2613 3319 
L 3131 3319 
L 3131 450 
Q 3131 -325 2973 -648 
Q 2816 -972 2473 -1159 
Q 2131 -1347 1631 -1347 
Q 1038 -1347 672 -1080 
Q 306 -813 319 -275 
z
M 784 1719 
Q 784 1066 1043 766 
Q 1303 466 1694 466 
Q 2081 466 2343 764 
Q 2606 1063 2606 1700 
Q 2606 2309 2336 2618 
Q 2066 2928 1684 2928 
Q 1309 2928 1046 2623 
Q 784 2319 784 1719 
z
" transform="scale(0.015625)"/>
       <path id="ArialMT-2f" d="M 0 -78 
L 1328 4659 
L 1778 4659 
L 453 -78 
L 0 -78 
z
" transform="scale(0.015625)"/>
       <path id="ArialMT-79" d="M 397 -1278 
L 334 -750 
Q 519 -800 656 -800 
Q 844 -800 956 -737 
Q 1069 -675 1141 -563 
Q 1194 -478 1313 -144 
Q 1328 -97 1363 -6 
L 103 3319 
L 709 3319 
L 1400 1397 
Q 1534 1031 1641 628 
Q 1738 1016 1872 1384 
L 2581 3319 
L 3144 3319 
L 1881 -56 
Q 1678 -603 1566 -809 
Q 1416 -1088 1222 -1217 
Q 1028 -1347 759 -1347 
Q 597 -1347 397 -1278 
z
" transform="scale(0.015625)"/>
       <path id="ArialMT-29" d="M 791 -1347 
L 388 -1347 
Q 1322 153 1322 1656 
Q 1322 2244 1188 2822 
Q 1081 3291 891 3722 
Q 769 4003 388 4659 
L 791 4659 
Q 1378 3875 1659 3084 
Q 1900 2403 1900 1659 
Q 1900 816 1576 28 
Q 1253 -759 791 -1347 
z
" transform="scale(0.015625)"/>
      </defs>
      <use xlink:href="#ArialMT-53"/>
      <use xlink:href="#ArialMT-41" transform="translate(66.699219 0)"/>
      <use xlink:href="#ArialMT-46" transform="translate(133.398438 0)"/>
      <use xlink:href="#ArialMT-20" transform="translate(194.482422 0)"/>
      <use xlink:href="#ArialMT-70" transform="translate(222.265625 0)"/>
      <use xlink:href="#ArialMT-72" transform="translate(277.880859 0)"/>
      <use xlink:href="#ArialMT-6f" transform="translate(311.181641 0)"/>
      <use xlink:href="#ArialMT-64" transform="translate(366.796875 0)"/>
      <use xlink:href="#ArialMT-75" transform="translate(422.412109 0)"/>
      <use xlink:href="#ArialMT-63" transform="translate(478.027344 0)"/>
      <use xlink:href="#ArialMT-74" transform="translate(528.027344 0)"/>
      <use xlink:href="#ArialMT-69" transform="translate(555.810547 0)"/>
      <use xlink:href="#ArialMT-6f" transform="translate(578.027344 0)"/>
      <use xlink:href="#ArialMT-6e" transform="translate(633.642578 0)"/>
      <use xlink:href="#ArialMT-20" transform="translate(689.257812 0)"/>
      <use xlink:href="#ArialMT-73" transform="translate(717.041016 0)"/>
      <use xlink:href="#ArialMT-63" transform="translate(767.041016 0)"/>
      <use xlink:href="#ArialMT-61" transform="translate(817.041016 0)"/>
      <use xlink:href="#ArialMT-6c" transform="translate(872.65625 0)"/>
      <use xlink:href="#ArialMT-65" transform="translate(894.873047 0)"/>
      <use xlink:href="#ArialMT-20" transform="translate(950.488281 0)"/>
      <use xlink:href="#ArialMT-28" transform="translate(978.271484 0)"/>
      <use xlink:href="#ArialMT-4d" transform="translate(1011.572266 0)"/>
      <use xlink:href="#ArialMT-4d" transform="translate(1094.873047 0)"/>
      <use xlink:href="#ArialMT-20" transform="translate(1178.173828 0)"/>
      <use xlink:href="#ArialMT-67" transform="translate(1205.957031 0)"/>
      <use xlink:href="#ArialMT-61" transform="translate(1261.572266 0)"/>
      <use xlink:href="#ArialMT-6c" transform="translate(1317.1875 0)"/>
      <use xlink:href="#ArialMT-2f" transform="translate(1339.404297 0)"/>
      <use xlink:href="#ArialMT-79" transform="translate(1367.1875 0)"/>
      <use xlink:href="#ArialMT-65" transform="translate(1417.1875 0)"/>
      <use xlink:href="#ArialMT-61" transform="translate(1472.802734 0)"/>
      <use xlink:href="#ArialMT-72" transform="translate(1528.417969 0)"/>
      <use xlink:href="#ArialMT-29" transform="translate(1561.71875 0)"/>
     </g>
    </g>
   </g>
   <g id="matplotlib.axis_2">
    <g id="ytick_1">
     <g id="line2d_5">
      <defs>
       <path id="m18cfd0956d" d="M 0 0 
L -3.5 0 
" style="stroke: #000000; stroke-width: 0.8"/>
      </defs>
      <g>
       <use xlink:href="#m18cfd0956d" x="28.176024" y="139.540507" style="stroke: #000000; stroke-width: 0.8"/>
      </g>
     </g>
     <g id="text_6">
      <!-- 1.10 -->
      <g transform="translate(1.715086 143.119413) scale(0.1 -0.1)">
       <defs>
        <path id="ArialMT-2e" d="M 581 0 
L 581 641 
L 1222 641 
L 1222 0 
L 581 0 
z
" transform="scale(0.015625)"/>
       </defs>
       <use xlink:href="#ArialMT-31"/>
       <use xlink:href="#ArialMT-2e" transform="translate(55.615234 0)"/>
       <use xlink:href="#ArialMT-31" transform="translate(83.398438 0)"/>
       <use xlink:href="#ArialMT-30" transform="translate(139.013672 0)"/>
      </g>
     </g>
    </g>
    <g id="ytick_2">
     <g id="line2d_6">
      <g>
       <use xlink:href="#m18cfd0956d" x="28.176024" y="109.358993" style="stroke: #000000; stroke-width: 0.8"/>
      </g>
     </g>
     <g id="text_7">
      <!-- 1.98 -->
      <g transform="translate(1.715086 112.937899) scale(0.1 -0.1)">
       <defs>
        <path id="ArialMT-39" d="M 350 1059 
L 891 1109 
Q 959 728 1153 556 
Q 1347 384 1650 384 
Q 1909 384 2104 503 
Q 2300 622 2425 820 
Q 2550 1019 2634 1356 
Q 2719 1694 2719 2044 
Q 2719 2081 2716 2156 
Q 2547 1888 2255 1720 
Q 1963 1553 1622 1553 
Q 1053 1553 659 1965 
Q 266 2378 266 3053 
Q 266 3750 677 4175 
Q 1088 4600 1706 4600 
Q 2153 4600 2523 4359 
Q 2894 4119 3086 3673 
Q 3278 3228 3278 2384 
Q 3278 1506 3087 986 
Q 2897 466 2520 194 
Q 2144 -78 1638 -78 
Q 1100 -78 759 220 
Q 419 519 350 1059 
z
M 2653 3081 
Q 2653 3566 2395 3850 
Q 2138 4134 1775 4134 
Q 1400 4134 1122 3828 
Q 844 3522 844 3034 
Q 844 2597 1108 2323 
Q 1372 2050 1759 2050 
Q 2150 2050 2401 2323 
Q 2653 2597 2653 3081 
z
" transform="scale(0.015625)"/>
        <path id="ArialMT-38" d="M 1131 2484 
Q 781 2613 612 2850 
Q 444 3088 444 3419 
Q 444 3919 803 4259 
Q 1163 4600 1759 4600 
Q 2359 4600 2725 4251 
Q 3091 3903 3091 3403 
Q 3091 3084 2923 2848 
Q 2756 2613 2416 2484 
Q 2838 2347 3058 2040 
Q 3278 1734 3278 1309 
Q 3278 722 2862 322 
Q 2447 -78 1769 -78 
Q 1091 -78 675 323 
Q 259 725 259 1325 
Q 259 1772 486 2073 
Q 713 2375 1131 2484 
z
M 1019 3438 
Q 1019 3113 1228 2906 
Q 1438 2700 1772 2700 
Q 2097 2700 2305 2904 
Q 2513 3109 2513 3406 
Q 2513 3716 2298 3927 
Q 2084 4138 1766 4138 
Q 1444 4138 1231 3931 
Q 1019 3725 1019 3438 
z
M 838 1322 
Q 838 1081 952 856 
Q 1066 631 1291 507 
Q 1516 384 1775 384 
Q 2178 384 2440 643 
Q 2703 903 2703 1303 
Q 2703 1709 2433 1975 
Q 2163 2241 1756 2241 
Q 1359 2241 1098 1978 
Q 838 1716 838 1322 
z
" transform="scale(0.015625)"/>
       </defs>
       <use xlink:href="#ArialMT-31"/>
       <use xlink:href="#ArialMT-2e" transform="translate(55.615234 0)"/>
       <use xlink:href="#ArialMT-39" transform="translate(83.398438 0)"/>
       <use xlink:href="#ArialMT-38" transform="translate(139.013672 0)"/>
      </g>
     </g>
    </g>
    <g id="ytick_3">
     <g id="line2d_7">
      <g>
       <use xlink:href="#m18cfd0956d" x="28.176024" y="79.177479" style="stroke: #000000; stroke-width: 0.8"/>
      </g>
     </g>
     <g id="text_8">
      <!-- 2.85 -->
      <g transform="translate(1.715086 82.756385) scale(0.1 -0.1)">
       <use xlink:href="#ArialMT-32"/>
       <use xlink:href="#ArialMT-2e" transform="translate(55.615234 0)"/>
       <use xlink:href="#ArialMT-38" transform="translate(83.398438 0)"/>
       <use xlink:href="#ArialMT-35" transform="translate(139.013672 0)"/>
      </g>
     </g>
    </g>
    <g id="ytick_4">
     <g id="line2d_8">
      <g>
       <use xlink:href="#m18cfd0956d" x="28.176024" y="48.995965" style="stroke: #000000; stroke-width: 0.8"/>
      </g>
     </g>
     <g id="text_9">
      <!-- 3.72 -->
      <g transform="translate(1.715086 52.574871) scale(0.1 -0.1)">
       <defs>
        <path id="ArialMT-33" d="M 269 1209 
L 831 1284 
Q 928 806 1161 595 
Q 1394 384 1728 384 
Q 2125 384 2398 659 
Q 2672 934 2672 1341 
Q 2672 1728 2419 1979 
Q 2166 2231 1775 2231 
Q 1616 2231 1378 2169 
L 1441 2663 
Q 1497 2656 1531 2656 
Q 1891 2656 2178 2843 
Q 2466 3031 2466 3422 
Q 2466 3731 2256 3934 
Q 2047 4138 1716 4138 
Q 1388 4138 1169 3931 
Q 950 3725 888 3313 
L 325 3413 
Q 428 3978 793 4289 
Q 1159 4600 1703 4600 
Q 2078 4600 2393 4439 
Q 2709 4278 2876 4000 
Q 3044 3722 3044 3409 
Q 3044 3113 2884 2869 
Q 2725 2625 2413 2481 
Q 2819 2388 3044 2092 
Q 3269 1797 3269 1353 
Q 3269 753 2831 336 
Q 2394 -81 1725 -81 
Q 1122 -81 723 278 
Q 325 638 269 1209 
z
" transform="scale(0.015625)"/>
       </defs>
       <use xlink:href="#ArialMT-33"/>
       <use xlink:href="#ArialMT-2e" transform="translate(55.615234 0)"/>
       <use xlink:href="#ArialMT-37" transform="translate(83.398438 0)"/>
       <use xlink:href="#ArialMT-32" transform="translate(139.013672 0)"/>
      </g>
     </g>
    </g>
    <g id="ytick_5">
     <g id="line2d_9">
      <g>
       <use xlink:href="#m18cfd0956d" x="28.176024" y="18.81445" style="stroke: #000000; stroke-width: 0.8"/>
      </g>
     </g>
     <g id="text_10">
      <!-- 4.60 -->
      <g transform="translate(1.715086 22.393357) scale(0.1 -0.1)">
       <defs>
        <path id="ArialMT-34" d="M 2069 0 
L 2069 1097 
L 81 1097 
L 81 1613 
L 2172 4581 
L 2631 4581 
L 2631 1613 
L 3250 1613 
L 3250 1097 
L 2631 1097 
L 2631 0 
L 2069 0 
z
M 2069 1613 
L 2069 3678 
L 634 1613 
L 2069 1613 
z
" transform="scale(0.015625)"/>
        <path id="ArialMT-36" d="M 3184 3459 
L 2625 3416 
Q 2550 3747 2413 3897 
Q 2184 4138 1850 4138 
Q 1581 4138 1378 3988 
Q 1113 3794 959 3422 
Q 806 3050 800 2363 
Q 1003 2672 1297 2822 
Q 1591 2972 1913 2972 
Q 2475 2972 2870 2558 
Q 3266 2144 3266 1488 
Q 3266 1056 3080 686 
Q 2894 316 2569 119 
Q 2244 -78 1831 -78 
Q 1128 -78 684 439 
Q 241 956 241 2144 
Q 241 3472 731 4075 
Q 1159 4600 1884 4600 
Q 2425 4600 2770 4297 
Q 3116 3994 3184 3459 
z
M 888 1484 
Q 888 1194 1011 928 
Q 1134 663 1356 523 
Q 1578 384 1822 384 
Q 2178 384 2434 671 
Q 2691 959 2691 1453 
Q 2691 1928 2437 2201 
Q 2184 2475 1800 2475 
Q 1419 2475 1153 2201 
Q 888 1928 888 1484 
z
" transform="scale(0.015625)"/>
       </defs>
       <use xlink:href="#ArialMT-34"/>
       <use xlink:href="#ArialMT-2e" transform="translate(55.615234 0)"/>
       <use xlink:href="#ArialMT-36" transform="translate(83.398438 0)"/>
       <use xlink:href="#ArialMT-30" transform="translate(139.013672 0)"/>
      </g>
     </g>
    </g>
    <g id="text_11">
     <!-- Ethanol Price ($/gal) -->
     <g transform="translate(-4.389601 124.475135) rotate(-90) scale(0.1 -0.1)">
      <defs>
       <path id="ArialMT-45" d="M 506 0 
L 506 4581 
L 3819 4581 
L 3819 4041 
L 1113 4041 
L 1113 2638 
L 3647 2638 
L 3647 2100 
L 1113 2100 
L 1113 541 
L 3925 541 
L 3925 0 
L 506 0 
z
" transform="scale(0.015625)"/>
       <path id="ArialMT-68" d="M 422 0 
L 422 4581 
L 984 4581 
L 984 2938 
Q 1378 3394 1978 3394 
Q 2347 3394 2619 3248 
Q 2891 3103 3008 2847 
Q 3125 2591 3125 2103 
L 3125 0 
L 2563 0 
L 2563 2103 
Q 2563 2525 2380 2717 
Q 2197 2909 1863 2909 
Q 1613 2909 1392 2779 
Q 1172 2650 1078 2428 
Q 984 2206 984 1816 
L 984 0 
L 422 0 
z
" transform="scale(0.015625)"/>
       <path id="ArialMT-50" d="M 494 0 
L 494 4581 
L 2222 4581 
Q 2678 4581 2919 4538 
Q 3256 4481 3484 4323 
Q 3713 4166 3852 3881 
Q 3991 3597 3991 3256 
Q 3991 2672 3619 2267 
Q 3247 1863 2275 1863 
L 1100 1863 
L 1100 0 
L 494 0 
z
M 1100 2403 
L 2284 2403 
Q 2872 2403 3119 2622 
Q 3366 2841 3366 3238 
Q 3366 3525 3220 3729 
Q 3075 3934 2838 4000 
Q 2684 4041 2272 4041 
L 1100 4041 
L 1100 2403 
z
" transform="scale(0.015625)"/>
       <path id="ArialMT-24" d="M 1594 -659 
L 1594 -97 
Q 1172 -44 908 92 
Q 644 228 451 531 
Q 259 834 228 1272 
L 794 1378 
Q 859 925 1025 713 
Q 1263 413 1594 378 
L 1594 2169 
Q 1247 2234 884 2438 
Q 616 2588 470 2853 
Q 325 3119 325 3456 
Q 325 4056 750 4428 
Q 1034 4678 1594 4734 
L 1594 5003 
L 1925 5003 
L 1925 4734 
Q 2416 4688 2703 4447 
Q 3072 4141 3147 3606 
L 2566 3519 
Q 2516 3850 2358 4026 
Q 2200 4203 1925 4259 
L 1925 2638 
Q 2350 2531 2488 2472 
Q 2750 2356 2915 2190 
Q 3081 2025 3170 1797 
Q 3259 1569 3259 1303 
Q 3259 719 2887 328 
Q 2516 -63 1925 -91 
L 1925 -659 
L 1594 -659 
z
M 1594 4266 
Q 1266 4216 1077 4003 
Q 888 3791 888 3500 
Q 888 3213 1048 3019 
Q 1209 2825 1594 2709 
L 1594 4266 
z
M 1925 378 
Q 2253 419 2467 662 
Q 2681 906 2681 1266 
Q 2681 1572 2529 1758 
Q 2378 1944 1925 2091 
L 1925 378 
z
" transform="scale(0.015625)"/>
      </defs>
      <use xlink:href="#ArialMT-45"/>
      <use xlink:href="#ArialMT-74" transform="translate(66.699219 0)"/>
      <use xlink:href="#ArialMT-68" transform="translate(94.482422 0)"/>
      <use xlink:href="#ArialMT-61" transform="translate(150.097656 0)"/>
      <use xlink:href="#ArialMT-6e" transform="translate(205.712891 0)"/>
      <use xlink:href="#ArialMT-6f" transform="translate(261.328125 0)"/>
      <use xlink:href="#ArialMT-6c" transform="translate(316.943359 0)"/>
      <use xlink:href="#ArialMT-20" transform="translate(339.160156 0)"/>
      <use xlink:href="#ArialMT-50" transform="translate(366.943359 0)"/>
      <use xlink:href="#ArialMT-72" transform="translate(433.642578 0)"/>
      <use xlink:href="#ArialMT-69" transform="translate(466.943359 0)"/>
      <use xlink:href="#ArialMT-63" transform="translate(489.160156 0)"/>
      <use xlink:href="#ArialMT-65" transform="translate(539.160156 0)"/>
      <use xlink:href="#ArialMT-20" transform="translate(594.775391 0)"/>
      <use xlink:href="#ArialMT-28" transform="translate(622.558594 0)"/>
      <use xlink:href="#ArialMT-24" transform="translate(655.859375 0)"/>
      <use xlink:href="#ArialMT-2f" transform="translate(711.474609 0)"/>
      <use xlink:href="#ArialMT-67" transform="translate(739.257812 0)"/>
      <use xlink:href="#ArialMT-61" transform="translate(794.873047 0)"/>
      <use xlink:href="#ArialMT-6c" transform="translate(850.488281 0)"/>
      <use xlink:href="#ArialMT-29" transform="translate(872.705078 0)"/>
     </g>
    </g>
   </g>
   <g id="QuadContourSet_3">
    <path d="M 167.929101 116.146223 
L 160.573676 116.435042 
L 153.218251 116.666096 
L 145.862825 116.948496 
L 138.5074 117.230897 
L 131.151975 116.290633 
L 123.79655 116.579451 
L 116.441125 117.012678 
L 109.0857 117.372097 
L 101.730275 117.795697 
L 94.37485 118.312361 
L 90.192382 118.660891 
M 83.848258 119.221376 
L 79.663999 119.612043 
L 72.308574 120.478498 
L 72.308574 120.478498 
L 64.953149 121.633771 
L 57.597724 123.077863 
L 50.242299 124.9969 
L 45.688941 126.832501 
L 42.886874 127.962102 
L 35.531449 132.480504 
L 34.956806 133.186504 
L 29.899951 139.540507 
" clip-path="url(#p4cc2404511)" style="fill: none; stroke: #000000"/>
    <path d="M 167.929101 101.849717 
L 160.573676 102.12249 
L 153.218251 102.40489 
L 145.862825 102.571762 
L 138.5074 102.96969 
L 131.151975 101.994126 
L 123.79655 102.282944 
L 116.441125 102.68729 
L 109.0857 103.00499 
L 101.730275 103.53449 
L 94.37485 104.015854 
L 90.19155 104.38453 
M 83.847377 104.945029 
L 79.663999 105.315536 
L 72.308574 106.181991 
L 64.953149 107.337265 
L 62.746522 107.770492 
L 57.597724 108.758893 
L 50.242299 110.735694 
L 42.886874 113.559695 
L 41.967446 114.124495 
L 35.531449 118.167952 
L 33.692592 120.478498 
L 28.635738 126.832501 
L 28.176024 127.397301 
" clip-path="url(#p4cc2404511)" style="fill: none; stroke: #000000"/>
    <path d="M 167.929101 44.519281 
L 160.573676 44.808099 
L 153.218251 45.096917 
L 145.862825 45.360063 
L 138.5074 45.674554 
L 131.151975 44.66369 
L 123.79655 45.077663 
L 116.441125 45.385736 
L 109.0857 45.783663 
L 101.730275 46.252191 
L 94.37485 46.772064 
L 87.019425 47.407464 
L 85.05115 47.577494 
M 74.286779 48.662214 
L 72.308574 48.890065 
L 64.953149 50.006829 
L 62.010979 50.584465 
L 57.597724 51.45092 
L 50.242299 53.472648 
L 42.886874 56.360832 
L 41.967446 56.938468 
L 35.531449 60.89207 
L 33.577664 63.292471 
L 28.520809 69.646474 
L 28.176024 70.079702 
" clip-path="url(#p4cc2404511)" style="fill: none; stroke: #000000"/>
   </g>
   <g id="line2d_10">
    <path d="M 28.176024 85.386247 
" clip-path="url(#p4cc2404511)" style="fill: none; stroke: #1f77b4; stroke-linecap: square"/>
    <defs>
     <path id="m5432d6782d" d="M 0 2.5 
C 0.663008 2.5 1.29895 2.236584 1.767767 1.767767 
C 2.236584 1.29895 2.5 0.663008 2.5 0 
C 2.5 -0.663008 2.236584 -1.29895 1.767767 -1.767767 
C 1.29895 -2.236584 0.663008 -2.5 0 -2.5 
C -0.663008 -2.5 -1.29895 -2.236584 -1.767767 -1.767767 
C -2.236584 -1.29895 -2.5 -0.663008 -2.5 0 
C -2.5 0.663008 -2.236584 1.29895 -1.767767 1.767767 
C -1.29895 2.236584 -0.663008 2.5 0 2.5 
z
" style="stroke: #000000"/>
    </defs>
    <g clip-path="url(#p4cc2404511)">
     <use xlink:href="#m5432d6782d" x="28.176024" y="85.386247" style="fill: #d3d3d3; stroke: #000000"/>
    </g>
   </g>
   <g id="patch_3">
    <path d="M 28.176024 139.540507 
L 28.176024 18.81445 
" style="fill: none; stroke: #000000; stroke-width: 0.8; stroke-linejoin: miter; stroke-linecap: square"/>
   </g>
   <g id="patch_4">
    <path d="M 167.929101 139.540507 
L 167.929101 18.81445 
" style="fill: none; stroke: #000000; stroke-width: 0.8; stroke-linejoin: miter; stroke-linecap: square"/>
   </g>
   <g id="patch_5">
    <path d="M 28.176024 139.540507 
L 167.929101 139.540507 
" style="fill: none; stroke: #000000; stroke-width: 0.8; stroke-linejoin: miter; stroke-linecap: square"/>
   </g>
   <g id="patch_6">
    <path d="M 28.176024 18.81445 
L 167.929101 18.81445 
" style="fill: none; stroke: #000000; stroke-width: 0.8; stroke-linejoin: miter; stroke-linecap: square"/>
   </g>
   <g id="text_12">
    <g clip-path="url(#p4cc2404511)">
     <!-- 5 -->
     <g transform="translate(84.428133 121.700049) rotate(-4.042812) scale(0.1 -0.1)">
      <use xlink:href="#ArialMT-35"/>
     </g>
    </g>
   </g>
   <g id="text_13">
    <g clip-path="url(#p4cc2404511)">
     <!-- 6 -->
     <g transform="translate(84.428136 107.438845) rotate(-4.042876) scale(0.1 -0.1)">
      <use xlink:href="#ArialMT-36"/>
     </g>
    </g>
   </g>
   <g id="text_14">
    <g clip-path="url(#p4cc2404511)">
     <!-- 10 -->
     <g transform="translate(74.328774 51.06651) rotate(-4.608967) scale(0.1 -0.1)">
      <use xlink:href="#ArialMT-31"/>
      <use xlink:href="#ArialMT-30" transform="translate(55.615234 0)"/>
     </g>
    </g>
   </g>
   <g id="QuadContourSet_4">
    <path d="M 167.929101 123.302499 
L 160.573676 123.5849 
L 153.218251 123.799909 
L 145.862825 124.088727 
L 138.5074 124.377545 
L 131.151975 123.51109 
L 123.79655 123.799909 
L 116.441125 124.1497 
L 109.0857 124.521955 
L 101.730275 124.955182 
L 94.37485 125.532819 
L 87.019425 126.110455 
L 79.663999 126.832501 
L 79.663999 126.832501 
L 72.308574 127.679702 
L 64.953149 128.809302 
L 57.597724 130.221303 
L 50.242299 132.17564 
L 47.6679 133.186504 
L 42.886874 135.063823 
L 35.761306 139.540507 
" clip-path="url(#p4cc2404511)" style="fill: none; stroke-dasharray: 3.7,1.6; stroke-dashoffset: 0; stroke: #6c6e6e"/>
   </g>
   <g id="QuadContourSet_5">
    <path d="M 167.929101 50.295647 
L 160.573676 50.584465 
L 160.573676 50.584465 
L 153.218251 50.866865 
L 145.862825 51.017693 
L 138.5074 51.431666 
L 132.20275 50.584465 
L 131.151975 50.440056 
L 127.474263 50.584465 
L 123.79655 50.728874 
L 116.441125 51.149266 
L 109.0857 51.45092 
L 101.730275 51.996466 
L 94.37485 52.461784 
L 87.019425 53.126067 
L 79.663999 53.761467 
L 72.308574 54.627922 
L 64.953149 55.783195 
L 59.068809 56.938468 
L 57.597724 57.220868 
L 50.242299 59.197669 
L 42.886874 62.021671 
L 40.818161 63.292471 
L 35.531449 66.613882 
L 33.11795 69.646474 
L 28.176024 75.856068 
" clip-path="url(#p4cc2404511)" style="fill: none; stroke-dasharray: 3.7,1.6; stroke-dashoffset: 0; stroke: #6c6e6e"/>
   </g>
   <g id="QuadContourSet_6">
    <path d="M 167.929101 76.722523 
L 160.573676 77.011341 
L 153.218251 77.30016 
L 145.862825 77.553678 
L 138.5074 77.877796 
L 131.151975 76.988878 
L 123.79655 77.271278 
L 116.441125 77.588978 
L 109.0857 78.022205 
L 101.730275 78.455433 
L 94.37485 78.965679 
L 87.019425 79.610706 
L 79.663999 80.236479 
L 72.308574 81.08368 
L 64.953149 82.21328 
L 64.217607 82.35448 
L 57.597724 83.654163 
L 50.242299 85.675891 
L 42.886874 88.564074 
L 42.657017 88.708483 
L 35.531449 93.185167 
L 34.037378 95.062486 
L 28.865595 101.416489 
L 28.176024 102.282944 
" clip-path="url(#p4cc2404511)" style="fill: none; stroke: #a6a611"/>
   </g>
  </g>
  <g id="axes_2">
   <g id="patch_7">
    <path d="M 176.663668 139.540507 
L 182.699971 139.540507 
L 182.699971 18.81445 
L 176.663668 18.81445 
z
" style="fill: #ffffff; fill-opacity: 0.95"/>
   </g>
   <g id="QuadMesh_1">
    <path d="M 176.663668 139.540507 
L 182.699971 139.540507 
L 182.699971 136.666077 
L 176.663668 136.666077 
L 176.663668 139.540507 
" clip-path="url(#pab48be311d)" style="fill: #3e51c5"/>
    <path d="M 176.663668 136.666077 
L 182.699971 136.666077 
L 182.699971 133.791647 
L 176.663668 133.791647 
L 176.663668 136.666077 
" clip-path="url(#pab48be311d)" style="fill: #455cce"/>
    <path d="M 176.663668 133.791647 
L 182.699971 133.791647 
L 182.699971 130.917217 
L 176.663668 130.917217 
L 176.663668 133.791647 
" clip-path="url(#pab48be311d)" style="fill: #4c66d6"/>
    <path d="M 176.663668 130.917217 
L 182.699971 130.917217 
L 182.699971 128.042787 
L 176.663668 128.042787 
L 176.663668 130.917217 
" clip-path="url(#pab48be311d)" style="fill: #5470de"/>
    <path d="M 176.663668 128.042787 
L 182.699971 128.042787 
L 182.699971 125.168357 
L 176.663668 125.168357 
L 176.663668 128.042787 
" clip-path="url(#pab48be311d)" style="fill: #5b7ae5"/>
    <path d="M 176.663668 125.168357 
L 182.699971 125.168357 
L 182.699971 122.293928 
L 176.663668 122.293928 
L 176.663668 125.168357 
" clip-path="url(#pab48be311d)" style="fill: #6384eb"/>
    <path d="M 176.663668 122.293928 
L 182.699971 122.293928 
L 182.699971 119.419498 
L 176.663668 119.419498 
L 176.663668 122.293928 
" clip-path="url(#pab48be311d)" style="fill: #6b8df0"/>
    <path d="M 176.663668 119.419498 
L 182.699971 119.419498 
L 182.699971 116.545068 
L 176.663668 116.545068 
L 176.663668 119.419498 
" clip-path="url(#pab48be311d)" style="fill: #7396f5"/>
    <path d="M 176.663668 116.545068 
L 182.699971 116.545068 
L 182.699971 113.670638 
L 176.663668 113.670638 
L 176.663668 116.545068 
" clip-path="url(#pab48be311d)" style="fill: #7b9ff9"/>
    <path d="M 176.663668 113.670638 
L 182.699971 113.670638 
L 182.699971 110.796208 
L 176.663668 110.796208 
L 176.663668 113.670638 
" clip-path="url(#pab48be311d)" style="fill: #84a7fc"/>
    <path d="M 176.663668 110.796208 
L 182.699971 110.796208 
L 182.699971 107.921778 
L 176.663668 107.921778 
L 176.663668 110.796208 
" clip-path="url(#pab48be311d)" style="fill: #8db0fe"/>
    <path d="M 176.663668 107.921778 
L 182.699971 107.921778 
L 182.699971 105.047348 
L 176.663668 105.047348 
L 176.663668 107.921778 
" clip-path="url(#pab48be311d)" style="fill: #96b7ff"/>
    <path d="M 176.663668 105.047348 
L 182.699971 105.047348 
L 182.699971 102.172918 
L 176.663668 102.172918 
L 176.663668 105.047348 
" clip-path="url(#pab48be311d)" style="fill: #9ebeff"/>
    <path d="M 176.663668 102.172918 
L 182.699971 102.172918 
L 182.699971 99.298488 
L 176.663668 99.298488 
L 176.663668 102.172918 
" clip-path="url(#pab48be311d)" style="fill: #a6c4fe"/>
    <path d="M 176.663668 99.298488 
L 182.699971 99.298488 
L 182.699971 96.424058 
L 176.663668 96.424058 
L 176.663668 99.298488 
" clip-path="url(#pab48be311d)" style="fill: #aec9fc"/>
    <path d="M 176.663668 96.424058 
L 182.699971 96.424058 
L 182.699971 93.549628 
L 176.663668 93.549628 
L 176.663668 96.424058 
" clip-path="url(#pab48be311d)" style="fill: #b6cefa"/>
    <path d="M 176.663668 93.549628 
L 182.699971 93.549628 
L 182.699971 90.675198 
L 176.663668 90.675198 
L 176.663668 93.549628 
" clip-path="url(#pab48be311d)" style="fill: #bed2f6"/>
    <path d="M 176.663668 90.675198 
L 182.699971 90.675198 
L 182.699971 87.800768 
L 176.663668 87.800768 
L 176.663668 90.675198 
" clip-path="url(#pab48be311d)" style="fill: #c5d6f2"/>
    <path d="M 176.663668 87.800768 
L 182.699971 87.800768 
L 182.699971 84.926339 
L 176.663668 84.926339 
L 176.663668 87.800768 
" clip-path="url(#pab48be311d)" style="fill: #ccd9ed"/>
    <path d="M 176.663668 84.926339 
L 182.699971 84.926339 
L 182.699971 82.051909 
L 176.663668 82.051909 
L 176.663668 84.926339 
" clip-path="url(#pab48be311d)" style="fill: #d3dbe7"/>
    <path d="M 176.663668 82.051909 
L 182.699971 82.051909 
L 182.699971 79.177479 
L 176.663668 79.177479 
L 176.663668 82.051909 
" clip-path="url(#pab48be311d)" style="fill: #d9dce1"/>
    <path d="M 176.663668 79.177479 
L 182.699971 79.177479 
L 182.699971 76.303049 
L 176.663668 76.303049 
L 176.663668 79.177479 
" clip-path="url(#pab48be311d)" style="fill: #e0dbd8"/>
    <path d="M 176.663668 76.303049 
L 182.699971 76.303049 
L 182.699971 73.428619 
L 176.663668 73.428619 
L 176.663668 76.303049 
" clip-path="url(#pab48be311d)" style="fill: #e6d7cf"/>
    <path d="M 176.663668 73.428619 
L 182.699971 73.428619 
L 182.699971 70.554189 
L 176.663668 70.554189 
L 176.663668 73.428619 
" clip-path="url(#pab48be311d)" style="fill: #ebd3c6"/>
    <path d="M 176.663668 70.554189 
L 182.699971 70.554189 
L 182.699971 67.679759 
L 176.663668 67.679759 
L 176.663668 70.554189 
" clip-path="url(#pab48be311d)" style="fill: #efcebd"/>
    <path d="M 176.663668 67.679759 
L 182.699971 67.679759 
L 182.699971 64.805329 
L 176.663668 64.805329 
L 176.663668 67.679759 
" clip-path="url(#pab48be311d)" style="fill: #f2c9b4"/>
    <path d="M 176.663668 64.805329 
L 182.699971 64.805329 
L 182.699971 61.930899 
L 176.663668 61.930899 
L 176.663668 64.805329 
" clip-path="url(#pab48be311d)" style="fill: #f5c2aa"/>
    <path d="M 176.663668 61.930899 
L 182.699971 61.930899 
L 182.699971 59.056469 
L 176.663668 59.056469 
L 176.663668 61.930899 
" clip-path="url(#pab48be311d)" style="fill: #f7bca1"/>
    <path d="M 176.663668 59.056469 
L 182.699971 59.056469 
L 182.699971 56.182039 
L 176.663668 56.182039 
L 176.663668 59.056469 
" clip-path="url(#pab48be311d)" style="fill: #f7b497"/>
    <path d="M 176.663668 56.182039 
L 182.699971 56.182039 
L 182.699971 53.307609 
L 176.663668 53.307609 
L 176.663668 56.182039 
" clip-path="url(#pab48be311d)" style="fill: #f7ac8e"/>
    <path d="M 176.663668 53.307609 
L 182.699971 53.307609 
L 182.699971 50.43318 
L 176.663668 50.43318 
L 176.663668 53.307609 
" clip-path="url(#pab48be311d)" style="fill: #f6a385"/>
    <path d="M 176.663668 50.43318 
L 182.699971 50.43318 
L 182.699971 47.55875 
L 176.663668 47.55875 
L 176.663668 50.43318 
" clip-path="url(#pab48be311d)" style="fill: #f4987a"/>
    <path d="M 176.663668 47.55875 
L 182.699971 47.55875 
L 182.699971 44.68432 
L 176.663668 44.68432 
L 176.663668 47.55875 
" clip-path="url(#pab48be311d)" style="fill: #f18f71"/>
    <path d="M 176.663668 44.68432 
L 182.699971 44.68432 
L 182.699971 41.80989 
L 176.663668 41.80989 
L 176.663668 44.68432 
" clip-path="url(#pab48be311d)" style="fill: #ee8468"/>
    <path d="M 176.663668 41.80989 
L 182.699971 41.80989 
L 182.699971 38.93546 
L 176.663668 38.93546 
L 176.663668 41.80989 
" clip-path="url(#pab48be311d)" style="fill: #e97a5f"/>
    <path d="M 176.663668 38.93546 
L 182.699971 38.93546 
L 182.699971 36.06103 
L 176.663668 36.06103 
L 176.663668 38.93546 
" clip-path="url(#pab48be311d)" style="fill: #e46e56"/>
    <path d="M 176.663668 36.06103 
L 182.699971 36.06103 
L 182.699971 33.1866 
L 176.663668 33.1866 
L 176.663668 36.06103 
" clip-path="url(#pab48be311d)" style="fill: #df634e"/>
    <path d="M 176.663668 33.1866 
L 182.699971 33.1866 
L 182.699971 30.31217 
L 176.663668 30.31217 
L 176.663668 33.1866 
" clip-path="url(#pab48be311d)" style="fill: #d85646"/>
    <path d="M 176.663668 30.31217 
L 182.699971 30.31217 
L 182.699971 27.43774 
L 176.663668 27.43774 
L 176.663668 30.31217 
" clip-path="url(#pab48be311d)" style="fill: #d1493f"/>
    <path d="M 176.663668 27.43774 
L 182.699971 27.43774 
L 182.699971 24.56331 
L 176.663668 24.56331 
L 176.663668 27.43774 
" clip-path="url(#pab48be311d)" style="fill: #ca3b37"/>
    <path d="M 176.663668 24.56331 
L 182.699971 24.56331 
L 182.699971 21.68888 
L 176.663668 21.68888 
L 176.663668 24.56331 
" clip-path="url(#pab48be311d)" style="fill: #c12b30"/>
    <path d="M 176.663668 21.68888 
L 182.699971 21.68888 
L 182.699971 18.81445 
L 176.663668 18.81445 
L 176.663668 21.68888 
" clip-path="url(#pab48be311d)" style="fill: #b8122a"/>
   </g>
   <g id="matplotlib.axis_3"/>
   <g id="matplotlib.axis_4">
    <g id="ytick_6">
     <g id="line2d_11">
      <defs>
       <path id="md75de1ff1e" d="M 0 0 
L 3.5 0 
" style="stroke: #000000; stroke-width: 0.8"/>
      </defs>
      <g>
       <use xlink:href="#md75de1ff1e" x="182.699971" y="139.540507" style="stroke: #000000; stroke-width: 0.8"/>
      </g>
     </g>
     <g id="text_15">
      <!-- 3.2 -->
      <g transform="translate(189.699971 143.119413) scale(0.1 -0.1)">
       <use xlink:href="#ArialMT-33"/>
       <use xlink:href="#ArialMT-2e" transform="translate(55.615234 0)"/>
       <use xlink:href="#ArialMT-32" transform="translate(83.398438 0)"/>
      </g>
     </g>
    </g>
    <g id="ytick_7">
     <g id="line2d_12">
      <g>
       <use xlink:href="#md75de1ff1e" x="182.699971" y="125.168357" style="stroke: #000000; stroke-width: 0.8"/>
      </g>
     </g>
     <g id="text_16">
      <!-- 4.5 -->
      <g transform="translate(189.699971 128.747264) scale(0.1 -0.1)">
       <use xlink:href="#ArialMT-34"/>
       <use xlink:href="#ArialMT-2e" transform="translate(55.615234 0)"/>
       <use xlink:href="#ArialMT-35" transform="translate(83.398438 0)"/>
      </g>
     </g>
    </g>
    <g id="ytick_8">
     <g id="line2d_13">
      <g>
       <use xlink:href="#md75de1ff1e" x="182.699971" y="110.796208" style="stroke: #000000; stroke-width: 0.8"/>
      </g>
     </g>
     <g id="text_17">
      <!-- 5.8 -->
      <g transform="translate(189.699971 114.375114) scale(0.1 -0.1)">
       <use xlink:href="#ArialMT-35"/>
       <use xlink:href="#ArialMT-2e" transform="translate(55.615234 0)"/>
       <use xlink:href="#ArialMT-38" transform="translate(83.398438 0)"/>
      </g>
     </g>
    </g>
    <g id="ytick_9">
     <g id="line2d_14">
      <g>
       <use xlink:href="#md75de1ff1e" x="182.699971" y="96.424058" style="stroke: #000000; stroke-width: 0.8"/>
      </g>
     </g>
     <g id="text_18">
      <!-- 7.0 -->
      <g transform="translate(189.699971 100.002965) scale(0.1 -0.1)">
       <use xlink:href="#ArialMT-37"/>
       <use xlink:href="#ArialMT-2e" transform="translate(55.615234 0)"/>
       <use xlink:href="#ArialMT-30" transform="translate(83.398438 0)"/>
      </g>
     </g>
    </g>
    <g id="ytick_10">
     <g id="line2d_15">
      <g>
       <use xlink:href="#md75de1ff1e" x="182.699971" y="82.051909" style="stroke: #000000; stroke-width: 0.8"/>
      </g>
     </g>
     <g id="text_19">
      <!-- 8.2 -->
      <g transform="translate(189.699971 85.630815) scale(0.1 -0.1)">
       <use xlink:href="#ArialMT-38"/>
       <use xlink:href="#ArialMT-2e" transform="translate(55.615234 0)"/>
       <use xlink:href="#ArialMT-32" transform="translate(83.398438 0)"/>
      </g>
     </g>
    </g>
    <g id="ytick_11">
     <g id="line2d_16">
      <g>
       <use xlink:href="#md75de1ff1e" x="182.699971" y="67.679759" style="stroke: #000000; stroke-width: 0.8"/>
      </g>
     </g>
     <g id="text_20">
      <!-- 9.5 -->
      <g transform="translate(189.699971 71.258665) scale(0.1 -0.1)">
       <use xlink:href="#ArialMT-39"/>
       <use xlink:href="#ArialMT-2e" transform="translate(55.615234 0)"/>
       <use xlink:href="#ArialMT-35" transform="translate(83.398438 0)"/>
      </g>
     </g>
    </g>
    <g id="ytick_12">
     <g id="line2d_17">
      <g>
       <use xlink:href="#md75de1ff1e" x="182.699971" y="53.307609" style="stroke: #000000; stroke-width: 0.8"/>
      </g>
     </g>
     <g id="text_21">
      <!-- 10.8 -->
      <g transform="translate(189.699971 56.886516) scale(0.1 -0.1)">
       <use xlink:href="#ArialMT-31"/>
       <use xlink:href="#ArialMT-30" transform="translate(55.615234 0)"/>
       <use xlink:href="#ArialMT-2e" transform="translate(111.230469 0)"/>
       <use xlink:href="#ArialMT-38" transform="translate(139.013672 0)"/>
      </g>
     </g>
    </g>
    <g id="ytick_13">
     <g id="line2d_18">
      <g>
       <use xlink:href="#md75de1ff1e" x="182.699971" y="38.93546" style="stroke: #000000; stroke-width: 0.8"/>
      </g>
     </g>
     <g id="text_22">
      <!-- 12.0 -->
      <g transform="translate(189.699971 42.514366) scale(0.1 -0.1)">
       <use xlink:href="#ArialMT-31"/>
       <use xlink:href="#ArialMT-32" transform="translate(55.615234 0)"/>
       <use xlink:href="#ArialMT-2e" transform="translate(111.230469 0)"/>
       <use xlink:href="#ArialMT-30" transform="translate(139.013672 0)"/>
      </g>
     </g>
    </g>
    <g id="ytick_14">
     <g id="line2d_19">
      <g>
       <use xlink:href="#md75de1ff1e" x="182.699971" y="24.56331" style="stroke: #000000; stroke-width: 0.8"/>
      </g>
     </g>
     <g id="text_23">
      <!-- 13.2 -->
      <g transform="translate(189.699971 28.142216) scale(0.1 -0.1)">
       <use xlink:href="#ArialMT-31"/>
       <use xlink:href="#ArialMT-33" transform="translate(55.615234 0)"/>
       <use xlink:href="#ArialMT-2e" transform="translate(111.230469 0)"/>
       <use xlink:href="#ArialMT-32" transform="translate(139.013672 0)"/>
      </g>
     </g>
    </g>
    <g id="text_24">
     <!-- Minimum Jet Selling Price [$/gal] -->
     <g transform="translate(220.978096 151.700916) rotate(-90) scale(0.1 -0.1)">
      <defs>
       <path id="ArialMT-6d" d="M 422 0 
L 422 3319 
L 925 3319 
L 925 2853 
Q 1081 3097 1340 3245 
Q 1600 3394 1931 3394 
Q 2300 3394 2536 3241 
Q 2772 3088 2869 2813 
Q 3263 3394 3894 3394 
Q 4388 3394 4653 3120 
Q 4919 2847 4919 2278 
L 4919 0 
L 4359 0 
L 4359 2091 
Q 4359 2428 4304 2576 
Q 4250 2725 4106 2815 
Q 3963 2906 3769 2906 
Q 3419 2906 3187 2673 
Q 2956 2441 2956 1928 
L 2956 0 
L 2394 0 
L 2394 2156 
Q 2394 2531 2256 2718 
Q 2119 2906 1806 2906 
Q 1569 2906 1367 2781 
Q 1166 2656 1075 2415 
Q 984 2175 984 1722 
L 984 0 
L 422 0 
z
" transform="scale(0.015625)"/>
       <path id="ArialMT-4a" d="M 184 1300 
L 731 1375 
Q 753 850 928 656 
Q 1103 463 1413 463 
Q 1641 463 1806 567 
Q 1972 672 2034 851 
Q 2097 1031 2097 1425 
L 2097 4581 
L 2703 4581 
L 2703 1459 
Q 2703 884 2564 568 
Q 2425 253 2123 87 
Q 1822 -78 1416 -78 
Q 813 -78 492 269 
Q 172 616 184 1300 
z
" transform="scale(0.015625)"/>
       <path id="ArialMT-5b" d="M 434 -1272 
L 434 4581 
L 1675 4581 
L 1675 4116 
L 997 4116 
L 997 -806 
L 1675 -806 
L 1675 -1272 
L 434 -1272 
z
" transform="scale(0.015625)"/>
       <path id="ArialMT-5d" d="M 1363 -1272 
L 122 -1272 
L 122 -806 
L 800 -806 
L 800 4116 
L 122 4116 
L 122 4581 
L 1363 4581 
L 1363 -1272 
z
" transform="scale(0.015625)"/>
      </defs>
      <use xlink:href="#ArialMT-4d"/>
      <use xlink:href="#ArialMT-69" transform="translate(83.300781 0)"/>
      <use xlink:href="#ArialMT-6e" transform="translate(105.517578 0)"/>
      <use xlink:href="#ArialMT-69" transform="translate(161.132812 0)"/>
      <use xlink:href="#ArialMT-6d" transform="translate(183.349609 0)"/>
      <use xlink:href="#ArialMT-75" transform="translate(266.650391 0)"/>
      <use xlink:href="#ArialMT-6d" transform="translate(322.265625 0)"/>
      <use xlink:href="#ArialMT-20" transform="translate(405.566406 0)"/>
      <use xlink:href="#ArialMT-4a" transform="translate(433.349609 0)"/>
      <use xlink:href="#ArialMT-65" transform="translate(483.349609 0)"/>
      <use xlink:href="#ArialMT-74" transform="translate(538.964844 0)"/>
      <use xlink:href="#ArialMT-20" transform="translate(566.748047 0)"/>
      <use xlink:href="#ArialMT-53" transform="translate(594.53125 0)"/>
      <use xlink:href="#ArialMT-65" transform="translate(661.230469 0)"/>
      <use xlink:href="#ArialMT-6c" transform="translate(716.845703 0)"/>
      <use xlink:href="#ArialMT-6c" transform="translate(739.0625 0)"/>
      <use xlink:href="#ArialMT-69" transform="translate(761.279297 0)"/>
      <use xlink:href="#ArialMT-6e" transform="translate(783.496094 0)"/>
      <use xlink:href="#ArialMT-67" transform="translate(839.111328 0)"/>
      <use xlink:href="#ArialMT-20" transform="translate(894.726562 0)"/>
      <use xlink:href="#ArialMT-50" transform="translate(922.509766 0)"/>
      <use xlink:href="#ArialMT-72" transform="translate(989.208984 0)"/>
      <use xlink:href="#ArialMT-69" transform="translate(1022.509766 0)"/>
      <use xlink:href="#ArialMT-63" transform="translate(1044.726562 0)"/>
      <use xlink:href="#ArialMT-65" transform="translate(1094.726562 0)"/>
      <use xlink:href="#ArialMT-20" transform="translate(1150.341797 0)"/>
      <use xlink:href="#ArialMT-5b" transform="translate(1178.125 0)"/>
      <use xlink:href="#ArialMT-24" transform="translate(1205.908203 0)"/>
      <use xlink:href="#ArialMT-2f" transform="translate(1261.523438 0)"/>
      <use xlink:href="#ArialMT-67" transform="translate(1289.306641 0)"/>
      <use xlink:href="#ArialMT-61" transform="translate(1344.921875 0)"/>
      <use xlink:href="#ArialMT-6c" transform="translate(1400.537109 0)"/>
      <use xlink:href="#ArialMT-5d" transform="translate(1422.753906 0)"/>
     </g>
    </g>
   </g>
   <g id="LineCollection_1"/>
   <g id="patch_8">
    <path d="M 176.663668 139.540507 
L 179.68182 139.540507 
L 182.699971 139.540507 
L 182.699971 18.81445 
L 179.68182 18.81445 
L 176.663668 18.81445 
L 176.663668 139.540507 
z
" style="fill: none; stroke: #000000; stroke-width: 0.8; stroke-linejoin: miter; stroke-linecap: square"/>
   </g>
  </g>
 </g>
 <defs>
  <clipPath id="p4cc2404511">
   <rect x="28.176024" y="18.81445" width="139.753077" height="120.726057"/>
  </clipPath>
  <clipPath id="pab48be311d">
   <rect x="176.663668" y="18.81445" width="6.036303" height="120.726057"/>
  </clipPath>
 </defs>
</svg>
