<?xml version="1.0" encoding="utf-8" standalone="no"?>
<!DOCTYPE svg PUBLIC "-//W3C//DTD SVG 1.1//EN"
  "http://www.w3.org/Graphics/SVG/1.1/DTD/svg11.dtd">
<svg xmlns:xlink="http://www.w3.org/1999/xlink" width="576pt" height="432pt" viewBox="0 0 576 432" xmlns="http://www.w3.org/2000/svg" version="1.1">
 <metadata>
  <rdf:RDF xmlns:dc="http://purl.org/dc/elements/1.1/" xmlns:cc="http://creativecommons.org/ns#" xmlns:rdf="http://www.w3.org/1999/02/22-rdf-syntax-ns#">
   <cc:Work>
    <dc:type rdf:resource="http://purl.org/dc/dcmitype/StillImage"/>
    <dc:date>2025-11-13T08:13:23.549897</dc:date>
    <dc:format>image/svg+xml</dc:format>
    <dc:creator>
     <cc:Agent>
      <dc:title>Matplotlib v3.10.3, https://matplotlib.org/</dc:title>
     </cc:Agent>
    </dc:creator>
   </cc:Work>
  </rdf:RDF>
 </metadata>
 <defs>
  <style type="text/css">*{stroke-linejoin: round; stroke-linecap: butt}</style>
 </defs>
 <g id="figure_1">
  <g id="patch_1">
   <path d="M 0 432 
L 576 432 
L 576 0 
L 0 0 
z
" style="fill: #ffffff; fill-opacity: 0.95"/>
  </g>
  <g id="axes_1">
   <g id="patch_2">
    <path d="M 72 384.48 
L 429.12 384.48 
L 429.12 51.84 
L 72 51.84 
z
" style="fill: #ffffff; fill-opacity: 0.95"/>
   </g>
   <g id="QuadContourSet_1">
    <path d="M 278.753684 384.48 
L 297.549474 383.507368 
L 316.345263 382.534737 
L 335.141053 381.978947 
L 353.936842 380.978526 
L 372.732632 380.478316 
L 391.528421 379.616842 
L 410.324211 379.130526 
L 429.12 378.644211 
L 429.12 384.48 
L 410.324211 384.48 
L 391.528421 384.48 
L 372.732632 384.48 
L 353.936842 384.48 
L 335.141053 384.48 
L 316.345263 384.48 
L 297.549474 384.48 
L 278.753684 384.48 
L 278.753684 384.48 
z
" clip-path="url(#pc0fe49fbc0)" style="fill: #3e51c5"/>
    <path d="M 184.774737 383.021053 
L 203.570526 380.978526 
L 222.366316 378.977684 
L 241.162105 377.185263 
L 259.957895 375.976421 
L 278.753684 374.753684 
L 297.549474 373.781053 
L 316.345263 372.808421 
L 335.141053 371.974737 
L 353.936842 370.974316 
L 372.732632 370.474105 
L 391.528421 369.890526 
L 410.324211 369.404211 
L 429.12 368.917895 
L 429.12 378.644211 
L 410.324211 379.130526 
L 391.528421 379.616842 
L 372.732632 380.478316 
L 353.936842 380.978526 
L 335.141053 381.978947 
L 316.345263 382.534737 
L 297.549474 383.507368 
L 278.753684 384.48 
L 278.753684 384.48 
L 259.957895 384.48 
L 241.162105 384.48 
L 222.366316 384.48 
L 203.570526 384.48 
L 184.774737 384.48 
L 175.376842 384.48 
z
" clip-path="url(#pc0fe49fbc0)" style="fill: #455cce"/>
    <path d="M 128.387368 383.979789 
L 147.183158 379.477895 
L 165.978947 375.976421 
L 184.774737 373.294737 
L 203.570526 370.974316 
L 222.366316 368.973474 
L 241.162105 367.458947 
L 247.427368 366.972632 
L 259.957895 366 
L 278.753684 364.971789 
L 297.549474 363.971368 
L 316.345263 362.970947 
L 335.141053 362.109474 
L 353.936842 361.136842 
L 372.732632 360.650526 
L 391.528421 359.969684 
L 410.324211 359.469474 
L 429.12 358.969263 
L 429.12 366.972632 
L 429.12 368.917895 
L 410.324211 369.404211 
L 391.528421 369.890526 
L 372.732632 370.474105 
L 353.936842 370.974316 
L 335.141053 371.974737 
L 316.345263 372.808421 
L 297.549474 373.781053 
L 278.753684 374.753684 
L 259.957895 375.976421 
L 241.162105 377.185263 
L 222.366316 378.977684 
L 203.570526 380.978526 
L 184.774737 383.021053 
L 175.376842 384.48 
L 165.978947 384.48 
L 147.183158 384.48 
L 128.387368 384.48 
L 126.941538 384.48 
z
" clip-path="url(#pc0fe49fbc0)" style="fill: #4c66d6"/>
    <path d="M 109.591579 380.478316 
L 128.387368 373.975579 
L 147.183158 369.473684 
L 160.608722 366.972632 
L 165.978947 366 
L 184.774737 363.471158 
L 203.570526 361.136842 
L 222.366316 359.191579 
L 241.162105 357.468632 
L 259.957895 356.273684 
L 278.753684 354.967579 
L 297.549474 353.967158 
L 316.345263 352.966737 
L 335.141053 352.383158 
L 353.936842 351.410526 
L 372.732632 350.924211 
L 391.528421 349.965474 
L 410.324211 349.465263 
L 410.324211 349.465263 
L 429.12 348.978947 
L 429.12 349.465263 
L 429.12 358.969263 
L 410.324211 359.469474 
L 391.528421 359.969684 
L 372.732632 360.650526 
L 353.936842 361.136842 
L 335.141053 362.109474 
L 316.345263 362.970947 
L 297.549474 363.971368 
L 278.753684 364.971789 
L 259.957895 366 
L 247.427368 366.972632 
L 241.162105 367.458947 
L 222.366316 368.973474 
L 203.570526 370.974316 
L 184.774737 373.294737 
L 165.978947 375.976421 
L 147.183158 379.477895 
L 128.387368 383.979789 
L 126.941538 384.48 
L 109.591579 384.48 
L 102.431278 384.48 
z
" clip-path="url(#pc0fe49fbc0)" style="fill: #5470de"/>
    <path d="M 90.795789 380.978526 
L 109.591579 370.474105 
L 119.712389 366.972632 
L 128.387368 364.054737 
L 147.183158 359.677895 
L 165.978947 356.273684 
L 184.774737 353.466947 
L 203.570526 351.410526 
L 222.366316 349.465263 
L 222.366316 349.465263 
L 241.162105 347.52 
L 259.957895 346.464 
L 278.753684 345.088421 
L 297.549474 344.115789 
L 316.345263 343.143158 
L 335.141053 342.462316 
L 353.936842 341.461895 
L 372.732632 340.961684 
L 391.528421 340.225263 
L 410.324211 339.738947 
L 429.12 339.252632 
L 429.12 348.978947 
L 410.324211 349.465263 
L 410.324211 349.465263 
L 391.528421 349.965474 
L 372.732632 350.924211 
L 353.936842 351.410526 
L 335.141053 352.383158 
L 316.345263 352.966737 
L 297.549474 353.967158 
L 278.753684 354.967579 
L 259.957895 356.273684 
L 241.162105 357.468632 
L 222.366316 359.191579 
L 203.570526 361.136842 
L 184.774737 363.471158 
L 165.978947 366 
L 160.608722 366.972632 
L 147.183158 369.473684 
L 128.387368 373.975579 
L 109.591579 380.478316 
L 102.431278 384.48 
L 90.795789 384.48 
L 87.239829 384.48 
z
" clip-path="url(#pc0fe49fbc0)" style="fill: #5d7ce6"/>
    <path d="M 90.795789 370.974316 
L 97.95609 366.972632 
L 109.591579 360.650526 
L 128.387368 354.328421 
L 147.183158 349.951579 
L 149.868271 349.465263 
L 165.978947 346.464 
L 184.774737 343.629474 
L 203.570526 341.461895 
L 222.366316 339.461053 
L 241.162105 337.793684 
L 259.957895 336.459789 
L 278.753684 335.362105 
L 297.549474 334.389474 
L 316.345263 333.416842 
L 335.141053 332.458105 
L 344.538947 331.957895 
L 353.936842 331.471579 
L 372.732632 330.985263 
L 391.528421 330.457263 
L 410.324211 329.957053 
L 429.12 329.456842 
L 429.12 331.957895 
L 429.12 339.252632 
L 410.324211 339.738947 
L 391.528421 340.225263 
L 372.732632 340.961684 
L 353.936842 341.461895 
L 335.141053 342.462316 
L 316.345263 343.143158 
L 297.549474 344.115789 
L 278.753684 345.088421 
L 259.957895 346.464 
L 241.162105 347.52 
L 222.366316 349.465263 
L 222.366316 349.465263 
L 203.570526 351.410526 
L 184.774737 353.466947 
L 165.978947 356.273684 
L 147.183158 359.677895 
L 128.387368 364.054737 
L 119.712389 366.972632 
L 109.591579 370.474105 
L 90.795789 380.978526 
L 87.239829 384.48 
L 77.079943 384.48 
z
" clip-path="url(#pc0fe49fbc0)" style="fill: #6485ec"/>
    <path d="M 84.860277 366.972632 
L 90.795789 361.136842 
L 109.591579 350.924211 
L 113.929069 349.465263 
L 128.387368 344.463158 
L 147.183158 339.961263 
L 165.978947 336.459789 
L 184.774737 333.903158 
L 199.811368 331.957895 
L 203.570526 331.471579 
L 222.366316 329.526316 
L 241.162105 327.956211 
L 259.957895 326.608421 
L 278.753684 325.455158 
L 297.549474 324.454737 
L 316.345263 323.454316 
L 335.141053 322.717895 
L 353.936842 321.745263 
L 372.732632 321.258947 
L 391.528421 320.453053 
L 410.324211 319.952842 
L 429.12 319.452632 
L 429.12 329.456842 
L 410.324211 329.957053 
L 391.528421 330.457263 
L 372.732632 330.985263 
L 353.936842 331.471579 
L 344.538947 331.957895 
L 335.141053 332.458105 
L 316.345263 333.416842 
L 297.549474 334.389474 
L 278.753684 335.362105 
L 259.957895 336.459789 
L 241.162105 337.793684 
L 222.366316 339.461053 
L 203.570526 341.461895 
L 184.774737 343.629474 
L 165.978947 346.464 
L 149.868271 349.465263 
L 147.183158 349.951579 
L 128.387368 354.328421 
L 109.591579 360.650526 
L 97.95609 366.972632 
L 90.795789 370.974316 
L 77.079943 384.48 
L 72 384.48 
L 72 379.616842 
z
" clip-path="url(#pc0fe49fbc0)" style="fill: #6c8ff1"/>
    <path d="M 74.967756 366.972632 
L 90.795789 351.410526 
L 94.37594 349.465263 
L 109.591579 340.961684 
L 128.387368 334.458947 
L 138.829474 331.957895 
L 147.183158 330.012632 
L 165.978947 326.608421 
L 184.774737 323.954526 
L 203.570526 321.745263 
L 222.366316 319.8 
L 241.162105 317.952 
L 259.957895 316.882105 
L 278.753684 315.450947 
L 297.549474 314.450526 
L 297.549474 314.450526 
L 316.345263 313.477895 
L 335.141053 312.949895 
L 353.936842 311.949474 
L 372.732632 311.449263 
L 391.528421 310.56 
L 410.324211 310.073684 
L 429.12 309.587368 
L 429.12 314.450526 
L 429.12 319.452632 
L 410.324211 319.952842 
L 391.528421 320.453053 
L 372.732632 321.258947 
L 353.936842 321.745263 
L 335.141053 322.717895 
L 316.345263 323.454316 
L 297.549474 324.454737 
L 278.753684 325.455158 
L 259.957895 326.608421 
L 241.162105 327.956211 
L 222.366316 329.526316 
L 203.570526 331.471579 
L 199.811368 331.957895 
L 184.774737 333.903158 
L 165.978947 336.459789 
L 147.183158 339.961263 
L 128.387368 344.463158 
L 113.929069 349.465263 
L 109.591579 350.924211 
L 90.795789 361.136842 
L 84.860277 366.972632 
L 72 379.616842 
L 72 369.890526 
z
" clip-path="url(#pc0fe49fbc0)" style="fill: #7597f6"/>
    <path d="M 72 366.972632 
L 72 359.969684 
L 82.667881 349.465263 
L 90.795789 341.461895 
L 107.801504 331.957895 
L 109.591579 330.985263 
L 128.387368 324.663158 
L 147.183158 320.286316 
L 165.978947 316.882105 
L 181.642105 314.450526 
L 184.774737 313.964211 
L 203.570526 311.949474 
L 222.366316 309.948632 
L 241.162105 308.128421 
L 259.957895 306.947368 
L 278.753684 305.696842 
L 297.549474 304.724211 
L 316.345263 303.751579 
L 335.141053 302.945684 
L 353.936842 301.945263 
L 372.732632 301.445053 
L 391.528421 300.833684 
L 410.324211 300.347368 
L 429.12 299.861053 
L 429.12 309.587368 
L 410.324211 310.073684 
L 391.528421 310.56 
L 372.732632 311.449263 
L 353.936842 311.949474 
L 335.141053 312.949895 
L 316.345263 313.477895 
L 297.549474 314.450526 
L 297.549474 314.450526 
L 278.753684 315.450947 
L 259.957895 316.882105 
L 241.162105 317.952 
L 222.366316 319.8 
L 203.570526 321.745263 
L 184.774737 323.954526 
L 165.978947 326.608421 
L 147.183158 330.012632 
L 138.829474 331.957895 
L 128.387368 334.458947 
L 109.591579 340.961684 
L 94.37594 349.465263 
L 90.795789 351.410526 
L 74.967756 366.972632 
L 72 369.890526 
z
" clip-path="url(#pc0fe49fbc0)" style="fill: #7ea1fa"/>
    <path d="M 72.507994 349.465263 
L 90.301163 331.957895 
L 90.795789 331.471579 
L 109.591579 321.258947 
L 128.387368 314.936842 
L 130.475789 314.450526 
L 147.183158 310.448842 
L 165.978947 306.947368 
L 184.774737 304.237895 
L 203.570526 301.945263 
L 222.366316 299.944421 
L 241.162105 298.402105 
L 259.957895 296.943158 
L 259.957895 296.943158 
L 278.753684 295.942737 
L 297.549474 294.942316 
L 316.345263 293.941895 
L 335.141053 293.052632 
L 353.936842 292.08 
L 372.732632 291.593684 
L 391.528421 290.940632 
L 410.324211 290.440421 
L 429.12 289.940211 
L 429.12 296.943158 
L 429.12 299.861053 
L 410.324211 300.347368 
L 391.528421 300.833684 
L 372.732632 301.445053 
L 353.936842 301.945263 
L 335.141053 302.945684 
L 316.345263 303.751579 
L 297.549474 304.724211 
L 278.753684 305.696842 
L 259.957895 306.947368 
L 241.162105 308.128421 
L 222.366316 309.948632 
L 203.570526 311.949474 
L 184.774737 313.964211 
L 181.642105 314.450526 
L 165.978947 316.882105 
L 147.183158 320.286316 
L 128.387368 324.663158 
L 109.591579 330.985263 
L 107.801504 331.957895 
L 90.795789 341.461895 
L 82.667881 349.465263 
L 72 359.969684 
L 72 349.965474 
z
" clip-path="url(#pc0fe49fbc0)" style="fill: #86a9fc"/>
    <path d="M 72 349.465263 
L 72 340.225263 
L 80.408643 331.957895 
L 90.795789 321.745263 
L 104.221353 314.450526 
L 109.591579 311.449263 
L 128.387368 304.946526 
L 147.183158 300.444632 
L 165.978947 296.943158 
L 165.978947 296.943158 
L 184.774737 294.442105 
L 203.570526 292.08 
L 222.366316 290.134737 
L 241.162105 288.439579 
L 259.957895 287.216842 
L 278.753684 285.938526 
L 297.549474 284.938105 
L 316.345263 283.937684 
L 335.141053 283.326316 
L 353.936842 282.353684 
L 372.732632 281.867368 
L 391.528421 280.936421 
L 410.324211 280.436211 
L 429.12 279.936 
L 429.12 289.940211 
L 410.324211 290.440421 
L 391.528421 290.940632 
L 372.732632 291.593684 
L 353.936842 292.08 
L 335.141053 293.052632 
L 316.345263 293.941895 
L 297.549474 294.942316 
L 278.753684 295.942737 
L 259.957895 296.943158 
L 259.957895 296.943158 
L 241.162105 298.402105 
L 222.366316 299.944421 
L 203.570526 301.945263 
L 184.774737 304.237895 
L 165.978947 306.947368 
L 147.183158 310.448842 
L 130.475789 314.450526 
L 128.387368 314.936842 
L 109.591579 321.258947 
L 90.795789 331.471579 
L 90.301163 331.957895 
L 72.507994 349.465263 
L 72 349.965474 
z
" clip-path="url(#pc0fe49fbc0)" style="fill: #8fb1fe"/>
    <path d="M 72 331.957895 
L 72 330.457263 
L 88.255818 314.450526 
L 90.795789 311.949474 
L 109.591579 301.445053 
L 122.604049 296.943158 
L 128.387368 294.997895 
L 147.183158 290.621053 
L 165.978947 287.216842 
L 184.774737 284.437895 
L 203.570526 282.353684 
L 222.366316 280.408421 
L 231.764211 279.435789 
L 241.162105 278.463158 
L 259.957895 277.434947 
L 278.753684 276.031579 
L 297.549474 275.058947 
L 316.345263 274.086316 
L 335.141053 273.433263 
L 353.936842 272.432842 
L 372.732632 271.932632 
L 391.528421 271.168421 
L 410.324211 270.682105 
L 429.12 270.195789 
L 429.12 279.435789 
L 429.12 279.936 
L 410.324211 280.436211 
L 391.528421 280.936421 
L 372.732632 281.867368 
L 353.936842 282.353684 
L 335.141053 283.326316 
L 316.345263 283.937684 
L 297.549474 284.938105 
L 278.753684 285.938526 
L 259.957895 287.216842 
L 241.162105 288.439579 
L 222.366316 290.134737 
L 203.570526 292.08 
L 184.774737 294.442105 
L 165.978947 296.943158 
L 165.978947 296.943158 
L 147.183158 300.444632 
L 128.387368 304.946526 
L 109.591579 311.449263 
L 104.221353 314.450526 
L 90.795789 321.745263 
L 80.408643 331.957895 
L 72 340.225263 
z
" clip-path="url(#pc0fe49fbc0)" style="fill: #97b8ff"/>
    <path d="M 78.095932 314.450526 
L 90.795789 301.945263 
L 99.746165 296.943158 
L 109.591579 291.593684 
L 128.387368 285.271579 
L 147.183158 280.894737 
L 155.238496 279.435789 
L 165.978947 277.434947 
L 184.774737 274.572632 
L 203.570526 272.432842 
L 222.366316 270.432 
L 241.162105 268.736842 
L 259.957895 267.430737 
L 278.753684 266.305263 
L 297.549474 265.332632 
L 316.345263 264.36 
L 335.141053 263.429053 
L 353.936842 262.428632 
L 372.732632 261.928421 
L 372.732632 261.928421 
L 391.528421 261.428211 
L 410.324211 260.928 
L 429.12 260.427789 
L 429.12 261.928421 
L 429.12 270.195789 
L 410.324211 270.682105 
L 391.528421 271.168421 
L 372.732632 271.932632 
L 353.936842 272.432842 
L 335.141053 273.433263 
L 316.345263 274.086316 
L 297.549474 275.058947 
L 278.753684 276.031579 
L 259.957895 277.434947 
L 241.162105 278.463158 
L 231.764211 279.435789 
L 222.366316 280.408421 
L 203.570526 282.353684 
L 184.774737 284.437895 
L 165.978947 287.216842 
L 147.183158 290.621053 
L 128.387368 294.997895 
L 122.604049 296.943158 
L 109.591579 301.445053 
L 90.795789 311.949474 
L 88.255818 314.450526 
L 72 330.457263 
L 72 320.453053 
z
" clip-path="url(#pc0fe49fbc0)" style="fill: #a1c0ff"/>
    <path d="M 72 314.450526 
L 72 310.56 
L 85.849529 296.943158 
L 90.795789 292.08 
L 109.591579 281.867368 
L 116.820729 279.435789 
L 128.387368 275.434105 
L 147.183158 270.932211 
L 165.978947 267.430737 
L 184.774737 264.846316 
L 203.570526 262.428632 
L 208.269474 261.928421 
L 222.366316 260.469474 
L 241.162105 258.927158 
L 259.957895 257.551579 
L 278.753684 256.426105 
L 297.549474 255.425684 
L 316.345263 254.425263 
L 335.141053 253.661053 
L 353.936842 252.688421 
L 372.732632 252.202105 
L 391.528421 251.424 
L 410.324211 250.923789 
L 429.12 250.423579 
L 429.12 260.427789 
L 410.324211 260.928 
L 391.528421 261.428211 
L 372.732632 261.928421 
L 372.732632 261.928421 
L 353.936842 262.428632 
L 335.141053 263.429053 
L 316.345263 264.36 
L 297.549474 265.332632 
L 278.753684 266.305263 
L 259.957895 267.430737 
L 241.162105 268.736842 
L 222.366316 270.432 
L 203.570526 272.432842 
L 184.774737 274.572632 
L 165.978947 277.434947 
L 155.238496 279.435789 
L 147.183158 280.894737 
L 128.387368 285.271579 
L 109.591579 291.593684 
L 99.746165 296.943158 
L 90.795789 301.945263 
L 78.095932 314.450526 
L 72 320.453053 
z
" clip-path="url(#pc0fe49fbc0)" style="fill: #a9c6fd"/>
    <path d="M 75.957008 296.943158 
L 90.795789 282.353684 
L 96.166015 279.435789 
L 109.591579 271.932632 
L 128.387368 265.429895 
L 143.006316 261.928421 
L 147.183158 260.955789 
L 165.978947 257.551579 
L 184.774737 254.925474 
L 203.570526 252.688421 
L 222.366316 250.743158 
L 241.162105 248.922947 
L 259.957895 247.825263 
L 278.753684 246.421895 
L 297.549474 245.421474 
L 316.345263 244.421053 
L 316.345263 244.421053 
L 335.141053 243.920842 
L 353.936842 242.920421 
L 372.732632 242.420211 
L 391.528421 241.503158 
L 410.324211 241.016842 
L 429.12 240.530526 
L 429.12 244.421053 
L 429.12 250.423579 
L 410.324211 250.923789 
L 391.528421 251.424 
L 372.732632 252.202105 
L 353.936842 252.688421 
L 335.141053 253.661053 
L 316.345263 254.425263 
L 297.549474 255.425684 
L 278.753684 256.426105 
L 259.957895 257.551579 
L 241.162105 258.927158 
L 222.366316 260.469474 
L 208.269474 261.928421 
L 203.570526 262.428632 
L 184.774737 264.846316 
L 165.978947 267.430737 
L 147.183158 270.932211 
L 128.387368 275.434105 
L 116.820729 279.435789 
L 109.591579 281.867368 
L 90.795789 292.08 
L 85.849529 296.943158 
L 72 310.56 
L 72 300.833684 
z
" clip-path="url(#pc0fe49fbc0)" style="fill: #b1cbfc"/>
    <path d="M 72 296.943158 
L 72 290.940632 
L 83.683869 279.435789 
L 90.795789 272.432842 
L 109.591579 261.928421 
L 109.591579 261.928421 
L 128.387368 255.606316 
L 147.183158 251.229474 
L 165.978947 247.825263 
L 184.774737 244.921263 
L 189.473684 244.421053 
L 203.570526 242.920421 
L 222.366316 240.919579 
L 241.162105 239.071579 
L 259.957895 237.918316 
L 278.753684 236.64 
L 297.549474 235.667368 
L 316.345263 234.694737 
L 335.141053 233.916632 
L 353.936842 232.916211 
L 372.732632 232.416 
L 391.528421 231.776842 
L 410.324211 231.290526 
L 429.12 230.804211 
L 429.12 240.530526 
L 410.324211 241.016842 
L 391.528421 241.503158 
L 372.732632 242.420211 
L 353.936842 242.920421 
L 335.141053 243.920842 
L 316.345263 244.421053 
L 316.345263 244.421053 
L 297.549474 245.421474 
L 278.753684 246.421895 
L 259.957895 247.825263 
L 241.162105 248.922947 
L 222.366316 250.743158 
L 203.570526 252.688421 
L 184.774737 254.925474 
L 165.978947 257.551579 
L 147.183158 260.955789 
L 143.006316 261.928421 
L 128.387368 265.429895 
L 109.591579 271.932632 
L 96.166015 279.435789 
L 90.795789 282.353684 
L 75.957008 296.943158 
L 72 300.833684 
z
" clip-path="url(#pc0fe49fbc0)" style="fill: #b9d0f9"/>
    <path d="M 73.523983 279.435789 
L 90.795789 262.428632 
L 91.690827 261.928421 
L 109.591579 252.202105 
L 128.387368 245.88 
L 134.652632 244.421053 
L 147.183158 241.419789 
L 165.978947 237.918316 
L 184.774737 235.181053 
L 203.570526 232.916211 
L 222.366316 230.915368 
L 241.162105 229.345263 
L 259.957895 227.914105 
L 278.753684 226.913684 
L 278.753684 226.913684 
L 297.549474 225.913263 
L 316.345263 224.912842 
L 335.141053 223.995789 
L 353.936842 223.023158 
L 372.732632 222.536842 
L 391.528421 221.911579 
L 410.324211 221.411368 
L 429.12 220.911158 
L 429.12 226.913684 
L 429.12 230.804211 
L 410.324211 231.290526 
L 391.528421 231.776842 
L 372.732632 232.416 
L 353.936842 232.916211 
L 335.141053 233.916632 
L 316.345263 234.694737 
L 297.549474 235.667368 
L 278.753684 236.64 
L 259.957895 237.918316 
L 241.162105 239.071579 
L 222.366316 240.919579 
L 203.570526 242.920421 
L 189.473684 244.421053 
L 184.774737 244.921263 
L 165.978947 247.825263 
L 147.183158 251.229474 
L 128.387368 255.606316 
L 109.591579 261.928421 
L 109.591579 261.928421 
L 90.795789 272.432842 
L 83.683869 279.435789 
L 72 290.940632 
L 72 280.936421 
z
" clip-path="url(#pc0fe49fbc0)" style="fill: #c1d4f4"/>
    <path d="M 72 279.435789 
L 72 271.168421 
L 81.397895 261.928421 
L 90.795789 252.688421 
L 106.011429 244.421053 
L 109.591579 242.420211 
L 128.387368 235.917474 
L 147.183158 231.415579 
L 165.978947 227.914105 
L 173.497263 226.913684 
L 184.774737 225.413053 
L 203.570526 223.023158 
L 222.366316 221.077895 
L 241.162105 219.410526 
L 259.957895 218.16 
L 278.753684 216.909474 
L 297.549474 215.909053 
L 316.345263 214.908632 
L 335.141053 214.269474 
L 353.936842 213.296842 
L 372.732632 212.810526 
L 391.528421 211.907368 
L 410.324211 211.407158 
L 429.12 210.906947 
L 429.12 220.911158 
L 410.324211 221.411368 
L 391.528421 221.911579 
L 372.732632 222.536842 
L 353.936842 223.023158 
L 335.141053 223.995789 
L 316.345263 224.912842 
L 297.549474 225.913263 
L 278.753684 226.913684 
L 278.753684 226.913684 
L 259.957895 227.914105 
L 241.162105 229.345263 
L 222.366316 230.915368 
L 203.570526 232.916211 
L 184.774737 235.181053 
L 165.978947 237.918316 
L 147.183158 241.419789 
L 134.652632 244.421053 
L 128.387368 245.88 
L 109.591579 252.202105 
L 91.690827 261.928421 
L 90.795789 262.428632 
L 73.523983 279.435789 
L 72 280.936421 
z
" clip-path="url(#pc0fe49fbc0)" style="fill: #c9d7f0"/>
    <path d="M 72 261.928421 
L 72 261.428211 
L 89.271807 244.421053 
L 90.795789 242.920421 
L 109.591579 232.416 
L 125.495709 226.913684 
L 128.387368 225.941053 
L 147.183158 221.564211 
L 165.978947 218.16 
L 184.774737 215.408842 
L 203.570526 213.296842 
L 222.366316 211.351579 
L 241.162105 209.406316 
L 241.162105 209.406316 
L 259.957895 208.405895 
L 278.753684 206.974737 
L 297.549474 206.002105 
L 316.345263 205.029474 
L 335.141053 204.404211 
L 353.936842 203.403789 
L 372.732632 202.903579 
L 391.528421 202.111579 
L 410.324211 201.625263 
L 429.12 201.138947 
L 429.12 209.406316 
L 429.12 210.906947 
L 410.324211 211.407158 
L 391.528421 211.907368 
L 372.732632 212.810526 
L 353.936842 213.296842 
L 335.141053 214.269474 
L 316.345263 214.908632 
L 297.549474 215.909053 
L 278.753684 216.909474 
L 259.957895 218.16 
L 241.162105 219.410526 
L 222.366316 221.077895 
L 203.570526 223.023158 
L 184.774737 225.413053 
L 173.497263 226.913684 
L 165.978947 227.914105 
L 147.183158 231.415579 
L 128.387368 235.917474 
L 109.591579 242.420211 
L 106.011429 244.421053 
L 90.795789 252.688421 
L 81.397895 261.928421 
L 72 271.168421 
z
" clip-path="url(#pc0fe49fbc0)" style="fill: #cfdaea"/>
    <path d="M 79.11192 244.421053 
L 90.795789 232.916211 
L 101.536241 226.913684 
L 109.591579 222.536842 
L 128.387368 216.214737 
L 147.183158 211.837895 
L 160.608722 209.406316 
L 165.978947 208.405895 
L 184.774737 205.515789 
L 203.570526 203.403789 
L 222.366316 201.402947 
L 241.162105 199.68 
L 259.957895 198.401684 
L 278.753684 197.248421 
L 297.549474 196.275789 
L 316.345263 195.303158 
L 335.141053 194.4 
L 353.936842 193.399579 
L 372.732632 192.899368 
L 391.528421 192.385263 
L 410.324211 191.898947 
L 410.324211 191.898947 
L 429.12 191.398737 
L 429.12 191.898947 
L 429.12 201.138947 
L 410.324211 201.625263 
L 391.528421 202.111579 
L 372.732632 202.903579 
L 353.936842 203.403789 
L 335.141053 204.404211 
L 316.345263 205.029474 
L 297.549474 206.002105 
L 278.753684 206.974737 
L 259.957895 208.405895 
L 241.162105 209.406316 
L 241.162105 209.406316 
L 222.366316 211.351579 
L 203.570526 213.296842 
L 184.774737 215.408842 
L 165.978947 218.16 
L 147.183158 221.564211 
L 128.387368 225.941053 
L 125.495709 226.913684 
L 109.591579 232.416 
L 90.795789 242.920421 
L 89.271807 244.421053 
L 72 261.428211 
L 72 251.424 
z
" clip-path="url(#pc0fe49fbc0)" style="fill: #d6dce4"/>
    <path d="M 72 244.421053 
L 72 241.503158 
L 86.838781 226.913684 
L 90.795789 223.023158 
L 109.591579 212.810526 
L 119.712389 209.406316 
L 128.387368 206.405053 
L 147.183158 201.903158 
L 165.978947 198.401684 
L 184.774737 195.789474 
L 203.570526 193.399579 
L 217.667368 191.898947 
L 222.366316 191.412632 
L 241.162105 189.898105 
L 259.957895 188.494737 
L 278.753684 187.397053 
L 297.549474 186.396632 
L 316.345263 185.396211 
L 335.141053 184.604211 
L 353.936842 183.631579 
L 372.732632 183.145263 
L 391.528421 182.394947 
L 410.324211 181.894737 
L 429.12 181.394526 
L 429.12 191.398737 
L 410.324211 191.898947 
L 410.324211 191.898947 
L 391.528421 192.385263 
L 372.732632 192.899368 
L 353.936842 193.399579 
L 335.141053 194.4 
L 316.345263 195.303158 
L 297.549474 196.275789 
L 278.753684 197.248421 
L 259.957895 198.401684 
L 241.162105 199.68 
L 222.366316 201.402947 
L 203.570526 203.403789 
L 184.774737 205.515789 
L 165.978947 208.405895 
L 160.608722 209.406316 
L 147.183158 211.837895 
L 128.387368 216.214737 
L 109.591579 222.536842 
L 101.536241 226.913684 
L 90.795789 232.916211 
L 79.11192 244.421053 
L 72 251.424 
z
" clip-path="url(#pc0fe49fbc0)" style="fill: #dcdddd"/>
    <path d="M 76.94626 226.913684 
L 90.795789 213.296842 
L 97.95609 209.406316 
L 109.591579 202.903579 
L 128.387368 196.400842 
L 147.183158 191.898947 
L 147.183158 191.898947 
L 165.978947 188.494737 
L 184.774737 185.896421 
L 203.570526 183.631579 
L 222.366316 181.686316 
L 241.162105 179.893895 
L 259.957895 178.768421 
L 278.753684 177.392842 
L 297.549474 176.392421 
L 316.345263 175.392 
L 335.141053 174.877895 
L 344.538947 174.391579 
L 353.936842 173.891368 
L 372.732632 173.391158 
L 391.528421 172.446316 
L 410.324211 171.96 
L 429.12 171.473684 
L 429.12 174.391579 
L 429.12 181.394526 
L 410.324211 181.894737 
L 391.528421 182.394947 
L 372.732632 183.145263 
L 353.936842 183.631579 
L 335.141053 184.604211 
L 316.345263 185.396211 
L 297.549474 186.396632 
L 278.753684 187.397053 
L 259.957895 188.494737 
L 241.162105 189.898105 
L 222.366316 191.412632 
L 217.667368 191.898947 
L 203.570526 193.399579 
L 184.774737 195.789474 
L 165.978947 198.401684 
L 147.183158 201.903158 
L 128.387368 206.405053 
L 119.712389 209.406316 
L 109.591579 212.810526 
L 90.795789 223.023158 
L 86.838781 226.913684 
L 72 241.503158 
L 72 231.776842 
z
" clip-path="url(#pc0fe49fbc0)" style="fill: #e3d9d3"/>
    <path d="M 72 226.913684 
L 72 221.911579 
L 84.699858 209.406316 
L 90.795789 203.403789 
L 109.591579 192.899368 
L 112.483239 191.898947 
L 128.387368 186.549474 
L 147.183158 182.172632 
L 165.978947 178.768421 
L 184.774737 175.892211 
L 198.871579 174.391579 
L 203.570526 173.891368 
L 222.366316 171.890526 
L 241.162105 170.014737 
L 259.957895 168.889263 
L 278.753684 167.583158 
L 297.549474 166.610526 
L 316.345263 165.637895 
L 335.141053 164.887579 
L 353.936842 163.887158 
L 372.732632 163.386947 
L 391.528421 162.72 
L 410.324211 162.233684 
L 429.12 161.747368 
L 429.12 171.473684 
L 410.324211 171.96 
L 391.528421 172.446316 
L 372.732632 173.391158 
L 353.936842 173.891368 
L 344.538947 174.391579 
L 335.141053 174.877895 
L 316.345263 175.392 
L 297.549474 176.392421 
L 278.753684 177.392842 
L 259.957895 178.768421 
L 241.162105 179.893895 
L 222.366316 181.686316 
L 203.570526 183.631579 
L 184.774737 185.896421 
L 165.978947 188.494737 
L 147.183158 191.898947 
L 147.183158 191.898947 
L 128.387368 196.400842 
L 109.591579 202.903579 
L 97.95609 209.406316 
L 90.795789 213.296842 
L 76.94626 226.913684 
L 72 231.776842 
z
" clip-path="url(#pc0fe49fbc0)" style="fill: #e9d5cb"/>
    <path d="M 74.539972 209.406316 
L 90.795789 193.399579 
L 93.480902 191.898947 
L 109.591579 183.145263 
L 128.387368 176.823158 
L 138.829474 174.391579 
L 147.183158 172.390737 
L 165.978947 168.889263 
L 184.774737 166.124211 
L 203.570526 163.887158 
L 222.366316 161.886316 
L 241.162105 160.288421 
L 259.957895 158.885053 
L 278.753684 157.856842 
L 297.549474 156.884211 
L 297.549474 156.884211 
L 316.345263 155.883789 
L 335.141053 154.938947 
L 353.936842 153.966316 
L 372.732632 153.48 
L 391.528421 152.882526 
L 410.324211 152.382316 
L 429.12 151.882105 
L 429.12 156.884211 
L 429.12 161.747368 
L 410.324211 162.233684 
L 391.528421 162.72 
L 372.732632 163.386947 
L 353.936842 163.887158 
L 335.141053 164.887579 
L 316.345263 165.637895 
L 297.549474 166.610526 
L 278.753684 167.583158 
L 259.957895 168.889263 
L 241.162105 170.014737 
L 222.366316 171.890526 
L 203.570526 173.891368 
L 198.871579 174.391579 
L 184.774737 175.892211 
L 165.978947 178.768421 
L 147.183158 182.172632 
L 128.387368 186.549474 
L 112.483239 191.898947 
L 109.591579 192.899368 
L 90.795789 203.403789 
L 84.699858 209.406316 
L 72 221.911579 
L 72 211.907368 
z
" clip-path="url(#pc0fe49fbc0)" style="fill: #edd1c2"/>
    <path d="M 72 209.406316 
L 72 202.111579 
L 82.387147 191.898947 
L 90.795789 183.631579 
L 107.801504 174.391579 
L 109.591579 173.391158 
L 128.387368 166.888421 
L 147.183158 162.386526 
L 165.978947 158.885053 
L 181.015579 156.884211 
L 184.774737 156.384 
L 203.570526 153.966316 
L 222.366316 152.021053 
L 241.162105 150.381474 
L 259.957895 149.103158 
L 278.753684 147.880421 
L 297.549474 146.88 
L 316.345263 145.879579 
L 335.141053 145.212632 
L 353.936842 144.24 
L 372.732632 143.753684 
L 391.528421 142.878316 
L 410.324211 142.378105 
L 429.12 141.877895 
L 429.12 151.882105 
L 410.324211 152.382316 
L 391.528421 152.882526 
L 372.732632 153.48 
L 353.936842 153.966316 
L 335.141053 154.938947 
L 316.345263 155.883789 
L 297.549474 156.884211 
L 297.549474 156.884211 
L 278.753684 157.856842 
L 259.957895 158.885053 
L 241.162105 160.288421 
L 222.366316 161.886316 
L 203.570526 163.887158 
L 184.774737 166.124211 
L 165.978947 168.889263 
L 147.183158 172.390737 
L 138.829474 174.391579 
L 128.387368 176.823158 
L 109.591579 183.145263 
L 93.480902 191.898947 
L 90.795789 193.399579 
L 74.539972 209.406316 
L 72 211.907368 
z
" clip-path="url(#pc0fe49fbc0)" style="fill: #f1ccb8"/>
    <path d="M 72.494626 191.898947 
L 90.287795 174.391579 
L 90.795789 173.891368 
L 109.591579 163.386947 
L 128.387368 156.884211 
L 128.387368 156.884211 
L 147.183158 152.507368 
L 165.978947 149.103158 
L 184.774737 146.379789 
L 203.570526 144.24 
L 222.366316 142.294737 
L 241.162105 140.377263 
L 259.957895 139.376842 
L 259.957895 139.376842 
L 278.753684 137.917895 
L 297.549474 136.945263 
L 316.345263 135.972632 
L 335.141053 135.375158 
L 353.936842 134.374737 
L 372.732632 133.874526 
L 391.528421 133.054737 
L 410.324211 132.568421 
L 429.12 132.082105 
L 429.12 139.376842 
L 429.12 141.877895 
L 410.324211 142.378105 
L 391.528421 142.878316 
L 372.732632 143.753684 
L 353.936842 144.24 
L 335.141053 145.212632 
L 316.345263 145.879579 
L 297.549474 146.88 
L 278.753684 147.880421 
L 259.957895 149.103158 
L 241.162105 150.381474 
L 222.366316 152.021053 
L 203.570526 153.966316 
L 184.774737 156.384 
L 181.015579 156.884211 
L 165.978947 158.885053 
L 147.183158 162.386526 
L 128.387368 166.888421 
L 109.591579 173.391158 
L 107.801504 174.391579 
L 90.795789 183.631579 
L 82.387147 191.898947 
L 72 202.111579 
L 72 192.385263 
z
" clip-path="url(#pc0fe49fbc0)" style="fill: #f4c5ad"/>
    <path d="M 72 191.898947 
L 72 182.394947 
L 80.127909 174.391579 
L 90.795789 163.887158 
L 103.326316 156.884211 
L 109.591579 153.48 
L 128.387368 147.157895 
L 147.183158 142.781053 
L 165.978947 139.376842 
L 165.978947 139.376842 
L 184.774737 136.458947 
L 203.570526 134.374737 
L 222.366316 132.373895 
L 241.162105 130.623158 
L 259.957895 129.372632 
L 278.753684 128.191579 
L 297.549474 127.218947 
L 316.345263 126.246316 
L 335.141053 125.370947 
L 353.936842 124.370526 
L 372.732632 123.870316 
L 391.528421 123.328421 
L 410.324211 122.842105 
L 429.12 122.355789 
L 429.12 132.082105 
L 410.324211 132.568421 
L 391.528421 133.054737 
L 372.732632 133.874526 
L 353.936842 134.374737 
L 335.141053 135.375158 
L 316.345263 135.972632 
L 297.549474 136.945263 
L 278.753684 137.917895 
L 259.957895 139.376842 
L 259.957895 139.376842 
L 241.162105 140.377263 
L 222.366316 142.294737 
L 203.570526 144.24 
L 184.774737 146.379789 
L 165.978947 149.103158 
L 147.183158 152.507368 
L 128.387368 156.884211 
L 128.387368 156.884211 
L 109.591579 163.386947 
L 90.795789 173.891368 
L 90.287795 174.391579 
L 72.494626 191.898947 
L 72 192.385263 
z
" clip-path="url(#pc0fe49fbc0)" style="fill: #f6bea4"/>
    <path d="M 72 174.391579 
L 72 172.446316 
L 87.828033 156.884211 
L 90.795789 153.966316 
L 109.591579 143.753684 
L 122.604049 139.376842 
L 128.387368 137.376 
L 147.183158 132.874105 
L 165.978947 129.372632 
L 184.774737 126.732632 
L 203.570526 124.370526 
L 222.366316 122.369684 
L 228.631579 121.869474 
L 241.162105 120.869053 
L 259.957895 119.437895 
L 278.753684 118.368 
L 297.549474 117.367579 
L 316.345263 116.367158 
L 335.141053 115.547368 
L 353.936842 114.574737 
L 372.732632 114.088421 
L 391.528421 113.365895 
L 410.324211 112.865684 
L 429.12 112.365474 
L 429.12 121.869474 
L 429.12 122.355789 
L 410.324211 122.842105 
L 391.528421 123.328421 
L 372.732632 123.870316 
L 353.936842 124.370526 
L 335.141053 125.370947 
L 316.345263 126.246316 
L 297.549474 127.218947 
L 278.753684 128.191579 
L 259.957895 129.372632 
L 241.162105 130.623158 
L 222.366316 132.373895 
L 203.570526 134.374737 
L 184.774737 136.458947 
L 165.978947 139.376842 
L 165.978947 139.376842 
L 147.183158 142.781053 
L 128.387368 147.157895 
L 109.591579 153.48 
L 103.326316 156.884211 
L 90.795789 163.887158 
L 80.127909 174.391579 
L 72 182.394947 
z
" clip-path="url(#pc0fe49fbc0)" style="fill: #f7b79b"/>
    <path d="M 77.935512 156.884211 
L 90.795789 144.24 
L 99.746165 139.376842 
L 109.591579 133.874526 
L 128.387368 127.371789 
L 147.183158 122.869895 
L 152.553383 121.869474 
L 165.978947 119.437895 
L 184.774737 116.867368 
L 203.570526 114.574737 
L 222.366316 112.629474 
L 241.162105 110.864842 
L 259.957895 109.711579 
L 278.753684 108.363789 
L 297.549474 107.363368 
L 316.345263 106.362947 
L 335.141053 105.821053 
L 353.936842 104.848421 
L 372.732632 104.362105 
L 372.732632 104.362105 
L 391.528421 103.389474 
L 410.324211 102.903158 
L 429.12 102.416842 
L 429.12 104.362105 
L 429.12 112.365474 
L 410.324211 112.865684 
L 391.528421 113.365895 
L 372.732632 114.088421 
L 353.936842 114.574737 
L 335.141053 115.547368 
L 316.345263 116.367158 
L 297.549474 117.367579 
L 278.753684 118.368 
L 259.957895 119.437895 
L 241.162105 120.869053 
L 228.631579 121.869474 
L 222.366316 122.369684 
L 203.570526 124.370526 
L 184.774737 126.732632 
L 165.978947 129.372632 
L 147.183158 132.874105 
L 128.387368 137.376 
L 122.604049 139.376842 
L 109.591579 143.753684 
L 90.795789 153.966316 
L 87.828033 156.884211 
L 72 172.446316 
L 72 162.72 
z
" clip-path="url(#pc0fe49fbc0)" style="fill: #f7af91"/>
    <path d="M 72 156.884211 
L 72 152.882526 
L 85.715846 139.376842 
L 90.795789 134.374737 
L 109.591579 123.870316 
L 115.374899 121.869474 
L 128.387368 117.492632 
L 147.183158 113.115789 
L 165.978947 109.711579 
L 184.774737 106.863158 
L 203.570526 104.848421 
L 208.269474 104.362105 
L 222.366316 102.861474 
L 241.162105 100.957895 
L 259.957895 99.860211 
L 278.753684 98.526316 
L 297.549474 97.553684 
L 316.345263 96.581053 
L 335.141053 95.858526 
L 353.936842 94.858105 
L 372.732632 94.357895 
L 391.528421 93.663158 
L 410.324211 93.176842 
L 429.12 92.690526 
L 429.12 102.416842 
L 410.324211 102.903158 
L 391.528421 103.389474 
L 372.732632 104.362105 
L 372.732632 104.362105 
L 353.936842 104.848421 
L 335.141053 105.821053 
L 316.345263 106.362947 
L 297.549474 107.363368 
L 278.753684 108.363789 
L 259.957895 109.711579 
L 241.162105 110.864842 
L 222.366316 112.629474 
L 203.570526 114.574737 
L 184.774737 116.867368 
L 165.978947 119.437895 
L 152.553383 121.869474 
L 147.183158 122.869895 
L 128.387368 127.371789 
L 109.591579 133.874526 
L 99.746165 139.376842 
L 90.795789 144.24 
L 77.935512 156.884211 
L 72 162.72 
z
" clip-path="url(#pc0fe49fbc0)" style="fill: #f6a586"/>
    <path d="M 75.55596 139.376842 
L 90.795789 124.370526 
L 95.270977 121.869474 
L 109.591579 114.088421 
L 128.387368 107.766316 
L 143.006316 104.362105 
L 147.183158 103.361684 
L 165.978947 99.860211 
L 184.774737 97.067368 
L 203.570526 94.858105 
L 222.366316 92.857263 
L 241.162105 91.231579 
L 259.957895 89.856 
L 278.753684 88.8 
L 297.549474 87.827368 
L 316.345263 86.854737 
L 316.345263 86.854737 
L 335.141053 85.882105 
L 353.936842 84.909474 
L 372.732632 84.423158 
L 391.528421 83.853474 
L 410.324211 83.353263 
L 429.12 82.853053 
L 429.12 86.854737 
L 429.12 92.690526 
L 410.324211 93.176842 
L 391.528421 93.663158 
L 372.732632 94.357895 
L 353.936842 94.858105 
L 335.141053 95.858526 
L 316.345263 96.581053 
L 297.549474 97.553684 
L 278.753684 98.526316 
L 259.957895 99.860211 
L 241.162105 100.957895 
L 222.366316 102.861474 
L 208.269474 104.362105 
L 203.570526 104.848421 
L 184.774737 106.863158 
L 165.978947 109.711579 
L 147.183158 113.115789 
L 128.387368 117.492632 
L 115.374899 121.869474 
L 109.591579 123.870316 
L 90.795789 134.374737 
L 85.715846 139.376842 
L 72 152.882526 
L 72 142.878316 
z
" clip-path="url(#pc0fe49fbc0)" style="fill: #f59c7d"/>
    <path d="M 72 139.376842 
L 72 133.054737 
L 83.376399 121.869474 
L 90.795789 114.574737 
L 109.591579 104.362105 
L 109.591579 104.362105 
L 128.387368 97.859368 
L 147.183158 93.357474 
L 165.978947 89.856 
L 184.774737 87.341053 
L 188.533895 86.854737 
L 203.570526 84.909474 
L 222.366316 82.964211 
L 241.162105 81.352421 
L 259.957895 80.046316 
L 278.753684 78.851368 
L 297.549474 77.850947 
L 316.345263 76.850526 
L 335.141053 76.155789 
L 353.936842 75.183158 
L 372.732632 74.696842 
L 391.528421 73.849263 
L 410.324211 73.349053 
L 429.12 72.848842 
L 429.12 82.853053 
L 410.324211 83.353263 
L 391.528421 83.853474 
L 372.732632 84.423158 
L 353.936842 84.909474 
L 335.141053 85.882105 
L 316.345263 86.854737 
L 316.345263 86.854737 
L 297.549474 87.827368 
L 278.753684 88.8 
L 259.957895 89.856 
L 241.162105 91.231579 
L 222.366316 92.857263 
L 203.570526 94.858105 
L 184.774737 97.067368 
L 165.978947 99.860211 
L 147.183158 103.361684 
L 143.006316 104.362105 
L 128.387368 107.766316 
L 109.591579 114.088421 
L 95.270977 121.869474 
L 90.795789 124.370526 
L 75.55596 139.376842 
L 72 142.878316 
z
" clip-path="url(#pc0fe49fbc0)" style="fill: #f29274"/>
    <path d="M 73.483878 121.869474 
L 90.795789 104.848421 
L 91.690827 104.362105 
L 109.591579 94.357895 
L 128.387368 87.855158 
L 132.564211 86.854737 
L 147.183158 83.450526 
L 165.978947 80.046316 
L 184.774737 77.350737 
L 203.570526 75.183158 
L 222.366316 73.237895 
L 241.162105 71.348211 
L 259.957895 70.32 
L 272.488421 69.347368 
L 278.753684 68.861053 
L 297.549474 67.888421 
L 316.345263 66.915789 
L 335.141053 66.346105 
L 353.936842 65.345684 
L 372.732632 64.845474 
L 391.528421 63.997895 
L 410.324211 63.511579 
L 429.12 63.025263 
L 429.12 69.347368 
L 429.12 72.848842 
L 410.324211 73.349053 
L 391.528421 73.849263 
L 372.732632 74.696842 
L 353.936842 75.183158 
L 335.141053 76.155789 
L 316.345263 76.850526 
L 297.549474 77.850947 
L 278.753684 78.851368 
L 259.957895 80.046316 
L 241.162105 81.352421 
L 222.366316 82.964211 
L 203.570526 84.909474 
L 188.533895 86.854737 
L 184.774737 87.341053 
L 165.978947 89.856 
L 147.183158 93.357474 
L 128.387368 97.859368 
L 109.591579 104.362105 
L 109.591579 104.362105 
L 90.795789 114.574737 
L 83.376399 121.869474 
L 72 133.054737 
L 72 123.328421 
z
" clip-path="url(#pc0fe49fbc0)" style="fill: #ef886b"/>
    <path d="M 72 121.869474 
L 72 113.365895 
L 81.143898 104.362105 
L 90.795789 94.858105 
L 105.116391 86.854737 
L 109.591579 84.423158 
L 128.387368 78.101053 
L 147.183158 73.724211 
L 165.978947 70.32 
L 172.244211 69.347368 
L 184.774737 67.402105 
L 203.570526 65.345684 
L 222.366316 63.344842 
L 241.162105 61.566316 
L 259.957895 60.343579 
L 278.753684 59.134737 
L 297.549474 58.162105 
L 316.345263 57.189474 
L 335.141053 56.341895 
L 353.936842 55.341474 
L 372.732632 54.841263 
L 391.528421 54.271579 
L 410.324211 53.785263 
L 429.12 53.298947 
L 429.12 63.025263 
L 410.324211 63.511579 
L 391.528421 63.997895 
L 372.732632 64.845474 
L 353.936842 65.345684 
L 335.141053 66.346105 
L 316.345263 66.915789 
L 297.549474 67.888421 
L 278.753684 68.861053 
L 272.488421 69.347368 
L 259.957895 70.32 
L 241.162105 71.348211 
L 222.366316 73.237895 
L 203.570526 75.183158 
L 184.774737 77.350737 
L 165.978947 80.046316 
L 147.183158 83.450526 
L 132.564211 86.854737 
L 128.387368 87.855158 
L 109.591579 94.357895 
L 91.690827 104.362105 
L 90.795789 104.848421 
L 73.483878 121.869474 
L 72 123.328421 
z
" clip-path="url(#pc0fe49fbc0)" style="fill: #ea7b60"/>
    <path d="M 72 104.362105 
L 72 103.389474 
L 88.817285 86.854737 
L 90.795789 84.909474 
L 109.591579 74.696842 
L 125.495709 69.347368 
L 128.387368 68.346947 
L 147.183158 63.845053 
L 165.978947 60.343579 
L 184.774737 57.675789 
L 203.570526 55.341474 
L 222.366316 53.340632 
L 241.162105 51.84 
L 241.162105 51.84 
L 259.957895 51.84 
L 278.753684 51.84 
L 297.549474 51.84 
L 316.345263 51.84 
L 335.141053 51.84 
L 353.936842 51.84 
L 372.732632 51.84 
L 391.528421 51.84 
L 410.324211 51.84 
L 429.12 51.84 
L 429.12 53.298947 
L 410.324211 53.785263 
L 391.528421 54.271579 
L 372.732632 54.841263 
L 353.936842 55.341474 
L 335.141053 56.341895 
L 316.345263 57.189474 
L 297.549474 58.162105 
L 278.753684 59.134737 
L 259.957895 60.343579 
L 241.162105 61.566316 
L 222.366316 63.344842 
L 203.570526 65.345684 
L 184.774737 67.402105 
L 172.244211 69.347368 
L 165.978947 70.32 
L 147.183158 73.724211 
L 128.387368 78.101053 
L 109.591579 84.423158 
L 105.116391 86.854737 
L 90.795789 94.858105 
L 81.143898 104.362105 
L 72 113.365895 
z
" clip-path="url(#pc0fe49fbc0)" style="fill: #e57058"/>
    <path d="M 78.924765 86.854737 
L 90.795789 75.183158 
L 101.536241 69.347368 
L 109.591579 64.845474 
L 128.387368 58.342737 
L 147.183158 53.840842 
L 157.923609 51.84 
L 165.978947 51.84 
L 184.774737 51.84 
L 203.570526 51.84 
L 222.366316 51.84 
L 241.162105 51.84 
L 222.366316 53.340632 
L 203.570526 55.341474 
L 184.774737 57.675789 
L 165.978947 60.343579 
L 147.183158 63.845053 
L 128.387368 68.346947 
L 125.495709 69.347368 
L 109.591579 74.696842 
L 90.795789 84.909474 
L 88.817285 86.854737 
L 72 103.389474 
L 72 93.663158 
z
" clip-path="url(#pc0fe49fbc0)" style="fill: #e0654f"/>
    <path d="M 72 86.854737 
L 72 83.853474 
L 86.731835 69.347368 
L 90.795789 65.345684 
L 109.591579 54.841263 
L 118.266559 51.84 
L 128.387368 51.84 
L 147.183158 51.84 
L 157.923609 51.84 
L 147.183158 53.840842 
L 128.387368 58.342737 
L 109.591579 64.845474 
L 101.536241 69.347368 
L 90.795789 75.183158 
L 78.924765 86.854737 
L 72 93.663158 
z
" clip-path="url(#pc0fe49fbc0)" style="fill: #d95847"/>
    <path d="M 76.571949 69.347368 
L 90.795789 55.341474 
L 97.061053 51.84 
L 109.591579 51.84 
L 118.266559 51.84 
L 109.591579 54.841263 
L 90.795789 65.345684 
L 86.731835 69.347368 
L 72 83.853474 
L 72 73.849263 
z
" clip-path="url(#pc0fe49fbc0)" style="fill: #d1493f"/>
    <path d="M 72 69.347368 
L 72 63.997895 
L 84.365651 51.84 
L 90.795789 51.84 
L 97.061053 51.84 
L 90.795789 55.341474 
L 76.571949 69.347368 
L 72 73.849263 
z
" clip-path="url(#pc0fe49fbc0)" style="fill: #ca3b37"/>
    <path d="M 74.47313 51.84 
L 84.365651 51.84 
L 72 63.997895 
L 72 54.271579 
z
" clip-path="url(#pc0fe49fbc0)" style="fill: #c12b30"/>
    <path d="M 72 51.84 
L 74.47313 51.84 
L 72 54.271579 
z
" clip-path="url(#pc0fe49fbc0)" style="fill: #b8122a"/>
   </g>
   <g id="matplotlib.axis_1">
    <g id="xtick_1">
     <g id="line2d_1">
      <defs>
       <path id="m60d702782f" d="M 0 0 
L 0 3.5 
" style="stroke: #000000; stroke-width: 0.8"/>
      </defs>
      <g>
       <use xlink:href="#m60d702782f" x="72" y="384.48" style="stroke: #000000; stroke-width: 0.8"/>
      </g>
     </g>
     <g id="text_1">
      <!-- 10 -->
      <g transform="translate(58.65375 408.65875) scale(0.24 -0.24)">
       <defs>
        <path id="ArialMT-31" d="M 2384 0 
L 1822 0 
L 1822 3584 
Q 1619 3391 1289 3197 
Q 959 3003 697 2906 
L 697 3450 
Q 1169 3672 1522 3987 
Q 1875 4303 2022 4600 
L 2384 4600 
L 2384 0 
z
" transform="scale(0.015625)"/>
        <path id="ArialMT-30" d="M 266 2259 
Q 266 3072 433 3567 
Q 600 4063 929 4331 
Q 1259 4600 1759 4600 
Q 2128 4600 2406 4451 
Q 2684 4303 2865 4023 
Q 3047 3744 3150 3342 
Q 3253 2941 3253 2259 
Q 3253 1453 3087 958 
Q 2922 463 2592 192 
Q 2263 -78 1759 -78 
Q 1097 -78 719 397 
Q 266 969 266 2259 
z
M 844 2259 
Q 844 1131 1108 757 
Q 1372 384 1759 384 
Q 2147 384 2411 759 
Q 2675 1134 2675 2259 
Q 2675 3391 2411 3762 
Q 2147 4134 1753 4134 
Q 1366 4134 1134 3806 
Q 844 3388 844 2259 
z
" transform="scale(0.015625)"/>
       </defs>
       <use xlink:href="#ArialMT-31"/>
       <use xlink:href="#ArialMT-30" transform="translate(55.615234 0)"/>
      </g>
     </g>
    </g>
    <g id="xtick_2">
     <g id="line2d_2">
      <g>
       <use xlink:href="#m60d702782f" x="111.68" y="384.48" style="stroke: #000000; stroke-width: 0.8"/>
      </g>
     </g>
     <g id="text_2">
      <!-- 20 -->
      <g transform="translate(98.33375 408.65875) scale(0.24 -0.24)">
       <defs>
        <path id="ArialMT-32" d="M 3222 541 
L 3222 0 
L 194 0 
Q 188 203 259 391 
Q 375 700 629 1000 
Q 884 1300 1366 1694 
Q 2113 2306 2375 2664 
Q 2638 3022 2638 3341 
Q 2638 3675 2398 3904 
Q 2159 4134 1775 4134 
Q 1369 4134 1125 3890 
Q 881 3647 878 3216 
L 300 3275 
Q 359 3922 746 4261 
Q 1134 4600 1788 4600 
Q 2447 4600 2831 4234 
Q 3216 3869 3216 3328 
Q 3216 3053 3103 2787 
Q 2991 2522 2730 2228 
Q 2469 1934 1863 1422 
Q 1356 997 1212 845 
Q 1069 694 975 541 
L 3222 541 
z
" transform="scale(0.015625)"/>
       </defs>
       <use xlink:href="#ArialMT-32"/>
       <use xlink:href="#ArialMT-30" transform="translate(55.615234 0)"/>
      </g>
     </g>
    </g>
    <g id="xtick_3">
     <g id="line2d_3">
      <g>
       <use xlink:href="#m60d702782f" x="151.36" y="384.48" style="stroke: #000000; stroke-width: 0.8"/>
      </g>
     </g>
     <g id="text_3">
      <!-- 30 -->
      <g transform="translate(138.01375 408.65875) scale(0.24 -0.24)">
       <defs>
        <path id="ArialMT-33" d="M 269 1209 
L 831 1284 
Q 928 806 1161 595 
Q 1394 384 1728 384 
Q 2125 384 2398 659 
Q 2672 934 2672 1341 
Q 2672 1728 2419 1979 
Q 2166 2231 1775 2231 
Q 1616 2231 1378 2169 
L 1441 2663 
Q 1497 2656 1531 2656 
Q 1891 2656 2178 2843 
Q 2466 3031 2466 3422 
Q 2466 3731 2256 3934 
Q 2047 4138 1716 4138 
Q 1388 4138 1169 3931 
Q 950 3725 888 3313 
L 325 3413 
Q 428 3978 793 4289 
Q 1159 4600 1703 4600 
Q 2078 4600 2393 4439 
Q 2709 4278 2876 4000 
Q 3044 3722 3044 3409 
Q 3044 3113 2884 2869 
Q 2725 2625 2413 2481 
Q 2819 2388 3044 2092 
Q 3269 1797 3269 1353 
Q 3269 753 2831 336 
Q 2394 -81 1725 -81 
Q 1122 -81 723 278 
Q 325 638 269 1209 
z
" transform="scale(0.015625)"/>
       </defs>
       <use xlink:href="#ArialMT-33"/>
       <use xlink:href="#ArialMT-30" transform="translate(55.615234 0)"/>
      </g>
     </g>
    </g>
    <g id="xtick_4">
     <g id="line2d_4">
      <g>
       <use xlink:href="#m60d702782f" x="191.04" y="384.48" style="stroke: #000000; stroke-width: 0.8"/>
      </g>
     </g>
     <g id="text_4">
      <!-- 40 -->
      <g transform="translate(177.69375 408.65875) scale(0.24 -0.24)">
       <defs>
        <path id="ArialMT-34" d="M 2069 0 
L 2069 1097 
L 81 1097 
L 81 1613 
L 2172 4581 
L 2631 4581 
L 2631 1613 
L 3250 1613 
L 3250 1097 
L 2631 1097 
L 2631 0 
L 2069 0 
z
M 2069 1613 
L 2069 3678 
L 634 1613 
L 2069 1613 
z
" transform="scale(0.015625)"/>
       </defs>
       <use xlink:href="#ArialMT-34"/>
       <use xlink:href="#ArialMT-30" transform="translate(55.615234 0)"/>
      </g>
     </g>
    </g>
    <g id="xtick_5">
     <g id="line2d_5">
      <g>
       <use xlink:href="#m60d702782f" x="230.72" y="384.48" style="stroke: #000000; stroke-width: 0.8"/>
      </g>
     </g>
     <g id="text_5">
      <!-- 50 -->
      <g transform="translate(217.37375 408.65875) scale(0.24 -0.24)">
       <defs>
        <path id="ArialMT-35" d="M 266 1200 
L 856 1250 
Q 922 819 1161 601 
Q 1400 384 1738 384 
Q 2144 384 2425 690 
Q 2706 997 2706 1503 
Q 2706 1984 2436 2262 
Q 2166 2541 1728 2541 
Q 1456 2541 1237 2417 
Q 1019 2294 894 2097 
L 366 2166 
L 809 4519 
L 3088 4519 
L 3088 3981 
L 1259 3981 
L 1013 2750 
Q 1425 3038 1878 3038 
Q 2478 3038 2890 2622 
Q 3303 2206 3303 1553 
Q 3303 931 2941 478 
Q 2500 -78 1738 -78 
Q 1113 -78 717 272 
Q 322 622 266 1200 
z
" transform="scale(0.015625)"/>
       </defs>
       <use xlink:href="#ArialMT-35"/>
       <use xlink:href="#ArialMT-30" transform="translate(55.615234 0)"/>
      </g>
     </g>
    </g>
    <g id="xtick_6">
     <g id="line2d_6">
      <g>
       <use xlink:href="#m60d702782f" x="270.4" y="384.48" style="stroke: #000000; stroke-width: 0.8"/>
      </g>
     </g>
     <g id="text_6">
      <!-- 60 -->
      <g transform="translate(257.05375 408.65875) scale(0.24 -0.24)">
       <defs>
        <path id="ArialMT-36" d="M 3184 3459 
L 2625 3416 
Q 2550 3747 2413 3897 
Q 2184 4138 1850 4138 
Q 1581 4138 1378 3988 
Q 1113 3794 959 3422 
Q 806 3050 800 2363 
Q 1003 2672 1297 2822 
Q 1591 2972 1913 2972 
Q 2475 2972 2870 2558 
Q 3266 2144 3266 1488 
Q 3266 1056 3080 686 
Q 2894 316 2569 119 
Q 2244 -78 1831 -78 
Q 1128 -78 684 439 
Q 241 956 241 2144 
Q 241 3472 731 4075 
Q 1159 4600 1884 4600 
Q 2425 4600 2770 4297 
Q 3116 3994 3184 3459 
z
M 888 1484 
Q 888 1194 1011 928 
Q 1134 663 1356 523 
Q 1578 384 1822 384 
Q 2178 384 2434 671 
Q 2691 959 2691 1453 
Q 2691 1928 2437 2201 
Q 2184 2475 1800 2475 
Q 1419 2475 1153 2201 
Q 888 1928 888 1484 
z
" transform="scale(0.015625)"/>
       </defs>
       <use xlink:href="#ArialMT-36"/>
       <use xlink:href="#ArialMT-30" transform="translate(55.615234 0)"/>
      </g>
     </g>
    </g>
    <g id="xtick_7">
     <g id="line2d_7">
      <g>
       <use xlink:href="#m60d702782f" x="310.08" y="384.48" style="stroke: #000000; stroke-width: 0.8"/>
      </g>
     </g>
     <g id="text_7">
      <!-- 70 -->
      <g transform="translate(296.73375 408.65875) scale(0.24 -0.24)">
       <defs>
        <path id="ArialMT-37" d="M 303 3981 
L 303 4522 
L 3269 4522 
L 3269 4084 
Q 2831 3619 2401 2847 
Q 1972 2075 1738 1259 
Q 1569 684 1522 0 
L 944 0 
Q 953 541 1156 1306 
Q 1359 2072 1739 2783 
Q 2119 3494 2547 3981 
L 303 3981 
z
" transform="scale(0.015625)"/>
       </defs>
       <use xlink:href="#ArialMT-37"/>
       <use xlink:href="#ArialMT-30" transform="translate(55.615234 0)"/>
      </g>
     </g>
    </g>
    <g id="xtick_8">
     <g id="line2d_8">
      <g>
       <use xlink:href="#m60d702782f" x="349.76" y="384.48" style="stroke: #000000; stroke-width: 0.8"/>
      </g>
     </g>
     <g id="text_8">
      <!-- 80 -->
      <g transform="translate(336.41375 408.65875) scale(0.24 -0.24)">
       <defs>
        <path id="ArialMT-38" d="M 1131 2484 
Q 781 2613 612 2850 
Q 444 3088 444 3419 
Q 444 3919 803 4259 
Q 1163 4600 1759 4600 
Q 2359 4600 2725 4251 
Q 3091 3903 3091 3403 
Q 3091 3084 2923 2848 
Q 2756 2613 2416 2484 
Q 2838 2347 3058 2040 
Q 3278 1734 3278 1309 
Q 3278 722 2862 322 
Q 2447 -78 1769 -78 
Q 1091 -78 675 323 
Q 259 725 259 1325 
Q 259 1772 486 2073 
Q 713 2375 1131 2484 
z
M 1019 3438 
Q 1019 3113 1228 2906 
Q 1438 2700 1772 2700 
Q 2097 2700 2305 2904 
Q 2513 3109 2513 3406 
Q 2513 3716 2298 3927 
Q 2084 4138 1766 4138 
Q 1444 4138 1231 3931 
Q 1019 3725 1019 3438 
z
M 838 1322 
Q 838 1081 952 856 
Q 1066 631 1291 507 
Q 1516 384 1775 384 
Q 2178 384 2440 643 
Q 2703 903 2703 1303 
Q 2703 1709 2433 1975 
Q 2163 2241 1756 2241 
Q 1359 2241 1098 1978 
Q 838 1716 838 1322 
z
" transform="scale(0.015625)"/>
       </defs>
       <use xlink:href="#ArialMT-38"/>
       <use xlink:href="#ArialMT-30" transform="translate(55.615234 0)"/>
      </g>
     </g>
    </g>
    <g id="xtick_9">
     <g id="line2d_9">
      <g>
       <use xlink:href="#m60d702782f" x="389.44" y="384.48" style="stroke: #000000; stroke-width: 0.8"/>
      </g>
     </g>
     <g id="text_9">
      <!-- 90 -->
      <g transform="translate(376.09375 408.65875) scale(0.24 -0.24)">
       <defs>
        <path id="ArialMT-39" d="M 350 1059 
L 891 1109 
Q 959 728 1153 556 
Q 1347 384 1650 384 
Q 1909 384 2104 503 
Q 2300 622 2425 820 
Q 2550 1019 2634 1356 
Q 2719 1694 2719 2044 
Q 2719 2081 2716 2156 
Q 2547 1888 2255 1720 
Q 1963 1553 1622 1553 
Q 1053 1553 659 1965 
Q 266 2378 266 3053 
Q 266 3750 677 4175 
Q 1088 4600 1706 4600 
Q 2153 4600 2523 4359 
Q 2894 4119 3086 3673 
Q 3278 3228 3278 2384 
Q 3278 1506 3087 986 
Q 2897 466 2520 194 
Q 2144 -78 1638 -78 
Q 1100 -78 759 220 
Q 419 519 350 1059 
z
M 2653 3081 
Q 2653 3566 2395 3850 
Q 2138 4134 1775 4134 
Q 1400 4134 1122 3828 
Q 844 3522 844 3034 
Q 844 2597 1108 2323 
Q 1372 2050 1759 2050 
Q 2150 2050 2401 2323 
Q 2653 2597 2653 3081 
z
" transform="scale(0.015625)"/>
       </defs>
       <use xlink:href="#ArialMT-39"/>
       <use xlink:href="#ArialMT-30" transform="translate(55.615234 0)"/>
      </g>
     </g>
    </g>
    <g id="xtick_10">
     <g id="line2d_10">
      <g>
       <use xlink:href="#m60d702782f" x="429.12" y="384.48" style="stroke: #000000; stroke-width: 0.8"/>
      </g>
     </g>
     <g id="text_10">
      <!-- 100 -->
      <g transform="translate(409.100625 408.65875) scale(0.24 -0.24)">
       <use xlink:href="#ArialMT-31"/>
       <use xlink:href="#ArialMT-30" transform="translate(55.615234 0)"/>
       <use xlink:href="#ArialMT-30" transform="translate(111.230469 0)"/>
      </g>
     </g>
    </g>
    <g id="text_11">
     <!-- SAF production scale (MM gal/year) -->
     <g transform="translate(59.169375 434.9) scale(0.24 -0.24)">
      <defs>
       <path id="ArialMT-53" d="M 288 1472 
L 859 1522 
Q 900 1178 1048 958 
Q 1197 738 1509 602 
Q 1822 466 2213 466 
Q 2559 466 2825 569 
Q 3091 672 3220 851 
Q 3350 1031 3350 1244 
Q 3350 1459 3225 1620 
Q 3100 1781 2813 1891 
Q 2628 1963 1997 2114 
Q 1366 2266 1113 2400 
Q 784 2572 623 2826 
Q 463 3081 463 3397 
Q 463 3744 659 4045 
Q 856 4347 1234 4503 
Q 1613 4659 2075 4659 
Q 2584 4659 2973 4495 
Q 3363 4331 3572 4012 
Q 3781 3694 3797 3291 
L 3216 3247 
Q 3169 3681 2898 3903 
Q 2628 4125 2100 4125 
Q 1550 4125 1298 3923 
Q 1047 3722 1047 3438 
Q 1047 3191 1225 3031 
Q 1400 2872 2139 2705 
Q 2878 2538 3153 2413 
Q 3553 2228 3743 1945 
Q 3934 1663 3934 1294 
Q 3934 928 3725 604 
Q 3516 281 3123 101 
Q 2731 -78 2241 -78 
Q 1619 -78 1198 103 
Q 778 284 539 648 
Q 300 1013 288 1472 
z
" transform="scale(0.015625)"/>
       <path id="ArialMT-41" d="M -9 0 
L 1750 4581 
L 2403 4581 
L 4278 0 
L 3588 0 
L 3053 1388 
L 1138 1388 
L 634 0 
L -9 0 
z
M 1313 1881 
L 2866 1881 
L 2388 3150 
Q 2169 3728 2063 4100 
Q 1975 3659 1816 3225 
L 1313 1881 
z
" transform="scale(0.015625)"/>
       <path id="ArialMT-46" d="M 525 0 
L 525 4581 
L 3616 4581 
L 3616 4041 
L 1131 4041 
L 1131 2622 
L 3281 2622 
L 3281 2081 
L 1131 2081 
L 1131 0 
L 525 0 
z
" transform="scale(0.015625)"/>
       <path id="ArialMT-20" transform="scale(0.015625)"/>
       <path id="ArialMT-70" d="M 422 -1272 
L 422 3319 
L 934 3319 
L 934 2888 
Q 1116 3141 1344 3267 
Q 1572 3394 1897 3394 
Q 2322 3394 2647 3175 
Q 2972 2956 3137 2557 
Q 3303 2159 3303 1684 
Q 3303 1175 3120 767 
Q 2938 359 2589 142 
Q 2241 -75 1856 -75 
Q 1575 -75 1351 44 
Q 1128 163 984 344 
L 984 -1272 
L 422 -1272 
z
M 931 1641 
Q 931 1000 1190 694 
Q 1450 388 1819 388 
Q 2194 388 2461 705 
Q 2728 1022 2728 1688 
Q 2728 2322 2467 2637 
Q 2206 2953 1844 2953 
Q 1484 2953 1207 2617 
Q 931 2281 931 1641 
z
" transform="scale(0.015625)"/>
       <path id="ArialMT-72" d="M 416 0 
L 416 3319 
L 922 3319 
L 922 2816 
Q 1116 3169 1280 3281 
Q 1444 3394 1641 3394 
Q 1925 3394 2219 3213 
L 2025 2691 
Q 1819 2813 1613 2813 
Q 1428 2813 1281 2702 
Q 1134 2591 1072 2394 
Q 978 2094 978 1738 
L 978 0 
L 416 0 
z
" transform="scale(0.015625)"/>
       <path id="ArialMT-6f" d="M 213 1659 
Q 213 2581 725 3025 
Q 1153 3394 1769 3394 
Q 2453 3394 2887 2945 
Q 3322 2497 3322 1706 
Q 3322 1066 3130 698 
Q 2938 331 2570 128 
Q 2203 -75 1769 -75 
Q 1072 -75 642 372 
Q 213 819 213 1659 
z
M 791 1659 
Q 791 1022 1069 705 
Q 1347 388 1769 388 
Q 2188 388 2466 706 
Q 2744 1025 2744 1678 
Q 2744 2294 2464 2611 
Q 2184 2928 1769 2928 
Q 1347 2928 1069 2612 
Q 791 2297 791 1659 
z
" transform="scale(0.015625)"/>
       <path id="ArialMT-64" d="M 2575 0 
L 2575 419 
Q 2259 -75 1647 -75 
Q 1250 -75 917 144 
Q 584 363 401 755 
Q 219 1147 219 1656 
Q 219 2153 384 2558 
Q 550 2963 881 3178 
Q 1213 3394 1622 3394 
Q 1922 3394 2156 3267 
Q 2391 3141 2538 2938 
L 2538 4581 
L 3097 4581 
L 3097 0 
L 2575 0 
z
M 797 1656 
Q 797 1019 1065 703 
Q 1334 388 1700 388 
Q 2069 388 2326 689 
Q 2584 991 2584 1609 
Q 2584 2291 2321 2609 
Q 2059 2928 1675 2928 
Q 1300 2928 1048 2622 
Q 797 2316 797 1656 
z
" transform="scale(0.015625)"/>
       <path id="ArialMT-75" d="M 2597 0 
L 2597 488 
Q 2209 -75 1544 -75 
Q 1250 -75 995 37 
Q 741 150 617 320 
Q 494 491 444 738 
Q 409 903 409 1263 
L 409 3319 
L 972 3319 
L 972 1478 
Q 972 1038 1006 884 
Q 1059 663 1231 536 
Q 1403 409 1656 409 
Q 1909 409 2131 539 
Q 2353 669 2445 892 
Q 2538 1116 2538 1541 
L 2538 3319 
L 3100 3319 
L 3100 0 
L 2597 0 
z
" transform="scale(0.015625)"/>
       <path id="ArialMT-63" d="M 2588 1216 
L 3141 1144 
Q 3050 572 2676 248 
Q 2303 -75 1759 -75 
Q 1078 -75 664 370 
Q 250 816 250 1647 
Q 250 2184 428 2587 
Q 606 2991 970 3192 
Q 1334 3394 1763 3394 
Q 2303 3394 2647 3120 
Q 2991 2847 3088 2344 
L 2541 2259 
Q 2463 2594 2264 2762 
Q 2066 2931 1784 2931 
Q 1359 2931 1093 2626 
Q 828 2322 828 1663 
Q 828 994 1084 691 
Q 1341 388 1753 388 
Q 2084 388 2306 591 
Q 2528 794 2588 1216 
z
" transform="scale(0.015625)"/>
       <path id="ArialMT-74" d="M 1650 503 
L 1731 6 
Q 1494 -44 1306 -44 
Q 1000 -44 831 53 
Q 663 150 594 308 
Q 525 466 525 972 
L 525 2881 
L 113 2881 
L 113 3319 
L 525 3319 
L 525 4141 
L 1084 4478 
L 1084 3319 
L 1650 3319 
L 1650 2881 
L 1084 2881 
L 1084 941 
Q 1084 700 1114 631 
Q 1144 563 1211 522 
Q 1278 481 1403 481 
Q 1497 481 1650 503 
z
" transform="scale(0.015625)"/>
       <path id="ArialMT-69" d="M 425 3934 
L 425 4581 
L 988 4581 
L 988 3934 
L 425 3934 
z
M 425 0 
L 425 3319 
L 988 3319 
L 988 0 
L 425 0 
z
" transform="scale(0.015625)"/>
       <path id="ArialMT-6e" d="M 422 0 
L 422 3319 
L 928 3319 
L 928 2847 
Q 1294 3394 1984 3394 
Q 2284 3394 2536 3286 
Q 2788 3178 2913 3003 
Q 3038 2828 3088 2588 
Q 3119 2431 3119 2041 
L 3119 0 
L 2556 0 
L 2556 2019 
Q 2556 2363 2490 2533 
Q 2425 2703 2258 2804 
Q 2091 2906 1866 2906 
Q 1506 2906 1245 2678 
Q 984 2450 984 1813 
L 984 0 
L 422 0 
z
" transform="scale(0.015625)"/>
       <path id="ArialMT-73" d="M 197 991 
L 753 1078 
Q 800 744 1014 566 
Q 1228 388 1613 388 
Q 2000 388 2187 545 
Q 2375 703 2375 916 
Q 2375 1106 2209 1216 
Q 2094 1291 1634 1406 
Q 1016 1563 777 1677 
Q 538 1791 414 1992 
Q 291 2194 291 2438 
Q 291 2659 392 2848 
Q 494 3038 669 3163 
Q 800 3259 1026 3326 
Q 1253 3394 1513 3394 
Q 1903 3394 2198 3281 
Q 2494 3169 2634 2976 
Q 2775 2784 2828 2463 
L 2278 2388 
Q 2241 2644 2061 2787 
Q 1881 2931 1553 2931 
Q 1166 2931 1000 2803 
Q 834 2675 834 2503 
Q 834 2394 903 2306 
Q 972 2216 1119 2156 
Q 1203 2125 1616 2013 
Q 2213 1853 2448 1751 
Q 2684 1650 2818 1456 
Q 2953 1263 2953 975 
Q 2953 694 2789 445 
Q 2625 197 2315 61 
Q 2006 -75 1616 -75 
Q 969 -75 630 194 
Q 291 463 197 991 
z
" transform="scale(0.015625)"/>
       <path id="ArialMT-61" d="M 2588 409 
Q 2275 144 1986 34 
Q 1697 -75 1366 -75 
Q 819 -75 525 192 
Q 231 459 231 875 
Q 231 1119 342 1320 
Q 453 1522 633 1644 
Q 813 1766 1038 1828 
Q 1203 1872 1538 1913 
Q 2219 1994 2541 2106 
Q 2544 2222 2544 2253 
Q 2544 2597 2384 2738 
Q 2169 2928 1744 2928 
Q 1347 2928 1158 2789 
Q 969 2650 878 2297 
L 328 2372 
Q 403 2725 575 2942 
Q 747 3159 1072 3276 
Q 1397 3394 1825 3394 
Q 2250 3394 2515 3294 
Q 2781 3194 2906 3042 
Q 3031 2891 3081 2659 
Q 3109 2516 3109 2141 
L 3109 1391 
Q 3109 606 3145 398 
Q 3181 191 3288 0 
L 2700 0 
Q 2613 175 2588 409 
z
M 2541 1666 
Q 2234 1541 1622 1453 
Q 1275 1403 1131 1340 
Q 988 1278 909 1158 
Q 831 1038 831 891 
Q 831 666 1001 516 
Q 1172 366 1500 366 
Q 1825 366 2078 508 
Q 2331 650 2450 897 
Q 2541 1088 2541 1459 
L 2541 1666 
z
" transform="scale(0.015625)"/>
       <path id="ArialMT-6c" d="M 409 0 
L 409 4581 
L 972 4581 
L 972 0 
L 409 0 
z
" transform="scale(0.015625)"/>
       <path id="ArialMT-65" d="M 2694 1069 
L 3275 997 
Q 3138 488 2766 206 
Q 2394 -75 1816 -75 
Q 1088 -75 661 373 
Q 234 822 234 1631 
Q 234 2469 665 2931 
Q 1097 3394 1784 3394 
Q 2450 3394 2872 2941 
Q 3294 2488 3294 1666 
Q 3294 1616 3291 1516 
L 816 1516 
Q 847 969 1125 678 
Q 1403 388 1819 388 
Q 2128 388 2347 550 
Q 2566 713 2694 1069 
z
M 847 1978 
L 2700 1978 
Q 2663 2397 2488 2606 
Q 2219 2931 1791 2931 
Q 1403 2931 1139 2672 
Q 875 2413 847 1978 
z
" transform="scale(0.015625)"/>
       <path id="ArialMT-28" d="M 1497 -1347 
Q 1031 -759 709 28 
Q 388 816 388 1659 
Q 388 2403 628 3084 
Q 909 3875 1497 4659 
L 1900 4659 
Q 1522 4009 1400 3731 
Q 1209 3300 1100 2831 
Q 966 2247 966 1656 
Q 966 153 1900 -1347 
L 1497 -1347 
z
" transform="scale(0.015625)"/>
       <path id="ArialMT-4d" d="M 475 0 
L 475 4581 
L 1388 4581 
L 2472 1338 
Q 2622 884 2691 659 
Q 2769 909 2934 1394 
L 4031 4581 
L 4847 4581 
L 4847 0 
L 4263 0 
L 4263 3834 
L 2931 0 
L 2384 0 
L 1059 3900 
L 1059 0 
L 475 0 
z
" transform="scale(0.015625)"/>
       <path id="ArialMT-67" d="M 319 -275 
L 866 -356 
Q 900 -609 1056 -725 
Q 1266 -881 1628 -881 
Q 2019 -881 2231 -725 
Q 2444 -569 2519 -288 
Q 2563 -116 2559 434 
Q 2191 0 1641 0 
Q 956 0 581 494 
Q 206 988 206 1678 
Q 206 2153 378 2554 
Q 550 2956 876 3175 
Q 1203 3394 1644 3394 
Q 2231 3394 2613 2919 
L 2613 3319 
L 3131 3319 
L 3131 450 
Q 3131 -325 2973 -648 
Q 2816 -972 2473 -1159 
Q 2131 -1347 1631 -1347 
Q 1038 -1347 672 -1080 
Q 306 -813 319 -275 
z
M 784 1719 
Q 784 1066 1043 766 
Q 1303 466 1694 466 
Q 2081 466 2343 764 
Q 2606 1063 2606 1700 
Q 2606 2309 2336 2618 
Q 2066 2928 1684 2928 
Q 1309 2928 1046 2623 
Q 784 2319 784 1719 
z
" transform="scale(0.015625)"/>
       <path id="ArialMT-2f" d="M 0 -78 
L 1328 4659 
L 1778 4659 
L 453 -78 
L 0 -78 
z
" transform="scale(0.015625)"/>
       <path id="ArialMT-79" d="M 397 -1278 
L 334 -750 
Q 519 -800 656 -800 
Q 844 -800 956 -737 
Q 1069 -675 1141 -563 
Q 1194 -478 1313 -144 
Q 1328 -97 1363 -6 
L 103 3319 
L 709 3319 
L 1400 1397 
Q 1534 1031 1641 628 
Q 1738 1016 1872 1384 
L 2581 3319 
L 3144 3319 
L 1881 -56 
Q 1678 -603 1566 -809 
Q 1416 -1088 1222 -1217 
Q 1028 -1347 759 -1347 
Q 597 -1347 397 -1278 
z
" transform="scale(0.015625)"/>
       <path id="ArialMT-29" d="M 791 -1347 
L 388 -1347 
Q 1322 153 1322 1656 
Q 1322 2244 1188 2822 
Q 1081 3291 891 3722 
Q 769 4003 388 4659 
L 791 4659 
Q 1378 3875 1659 3084 
Q 1900 2403 1900 1659 
Q 1900 816 1576 28 
Q 1253 -759 791 -1347 
z
" transform="scale(0.015625)"/>
      </defs>
      <use xlink:href="#ArialMT-53"/>
      <use xlink:href="#ArialMT-41" transform="translate(66.699219 0)"/>
      <use xlink:href="#ArialMT-46" transform="translate(133.398438 0)"/>
      <use xlink:href="#ArialMT-20" transform="translate(194.482422 0)"/>
      <use xlink:href="#ArialMT-70" transform="translate(222.265625 0)"/>
      <use xlink:href="#ArialMT-72" transform="translate(277.880859 0)"/>
      <use xlink:href="#ArialMT-6f" transform="translate(311.181641 0)"/>
      <use xlink:href="#ArialMT-64" transform="translate(366.796875 0)"/>
      <use xlink:href="#ArialMT-75" transform="translate(422.412109 0)"/>
      <use xlink:href="#ArialMT-63" transform="translate(478.027344 0)"/>
      <use xlink:href="#ArialMT-74" transform="translate(528.027344 0)"/>
      <use xlink:href="#ArialMT-69" transform="translate(555.810547 0)"/>
      <use xlink:href="#ArialMT-6f" transform="translate(578.027344 0)"/>
      <use xlink:href="#ArialMT-6e" transform="translate(633.642578 0)"/>
      <use xlink:href="#ArialMT-20" transform="translate(689.257812 0)"/>
      <use xlink:href="#ArialMT-73" transform="translate(717.041016 0)"/>
      <use xlink:href="#ArialMT-63" transform="translate(767.041016 0)"/>
      <use xlink:href="#ArialMT-61" transform="translate(817.041016 0)"/>
      <use xlink:href="#ArialMT-6c" transform="translate(872.65625 0)"/>
      <use xlink:href="#ArialMT-65" transform="translate(894.873047 0)"/>
      <use xlink:href="#ArialMT-20" transform="translate(950.488281 0)"/>
      <use xlink:href="#ArialMT-28" transform="translate(978.271484 0)"/>
      <use xlink:href="#ArialMT-4d" transform="translate(1011.572266 0)"/>
      <use xlink:href="#ArialMT-4d" transform="translate(1094.873047 0)"/>
      <use xlink:href="#ArialMT-20" transform="translate(1178.173828 0)"/>
      <use xlink:href="#ArialMT-67" transform="translate(1205.957031 0)"/>
      <use xlink:href="#ArialMT-61" transform="translate(1261.572266 0)"/>
      <use xlink:href="#ArialMT-6c" transform="translate(1317.1875 0)"/>
      <use xlink:href="#ArialMT-2f" transform="translate(1339.404297 0)"/>
      <use xlink:href="#ArialMT-79" transform="translate(1367.1875 0)"/>
      <use xlink:href="#ArialMT-65" transform="translate(1417.1875 0)"/>
      <use xlink:href="#ArialMT-61" transform="translate(1472.802734 0)"/>
      <use xlink:href="#ArialMT-72" transform="translate(1528.417969 0)"/>
      <use xlink:href="#ArialMT-29" transform="translate(1561.71875 0)"/>
     </g>
    </g>
   </g>
   <g id="matplotlib.axis_2">
    <g id="ytick_1">
     <g id="line2d_11">
      <defs>
       <path id="me0812ce293" d="M 0 0 
L -3.5 0 
" style="stroke: #000000; stroke-width: 0.8"/>
      </defs>
      <g>
       <use xlink:href="#me0812ce293" x="72" y="372.6" style="stroke: #000000; stroke-width: 0.8"/>
      </g>
     </g>
     <g id="text_12">
      <!-- 1.5 -->
      <g transform="translate(31.64 381.189375) scale(0.24 -0.24)">
       <defs>
        <path id="ArialMT-2e" d="M 581 0 
L 581 641 
L 1222 641 
L 1222 0 
L 581 0 
z
" transform="scale(0.015625)"/>
       </defs>
       <use xlink:href="#ArialMT-31"/>
       <use xlink:href="#ArialMT-2e" transform="translate(55.615234 0)"/>
       <use xlink:href="#ArialMT-35" transform="translate(83.398438 0)"/>
      </g>
     </g>
    </g>
    <g id="ytick_2">
     <g id="line2d_12">
      <g>
       <use xlink:href="#me0812ce293" x="72" y="313.2" style="stroke: #000000; stroke-width: 0.8"/>
      </g>
     </g>
     <g id="text_13">
      <!-- 2.0 -->
      <g transform="translate(31.64 321.789375) scale(0.24 -0.24)">
       <use xlink:href="#ArialMT-32"/>
       <use xlink:href="#ArialMT-2e" transform="translate(55.615234 0)"/>
       <use xlink:href="#ArialMT-30" transform="translate(83.398438 0)"/>
      </g>
     </g>
    </g>
    <g id="ytick_3">
     <g id="line2d_13">
      <g>
       <use xlink:href="#me0812ce293" x="72" y="253.8" style="stroke: #000000; stroke-width: 0.8"/>
      </g>
     </g>
     <g id="text_14">
      <!-- 2.5 -->
      <g transform="translate(31.64 262.389375) scale(0.24 -0.24)">
       <use xlink:href="#ArialMT-32"/>
       <use xlink:href="#ArialMT-2e" transform="translate(55.615234 0)"/>
       <use xlink:href="#ArialMT-35" transform="translate(83.398438 0)"/>
      </g>
     </g>
    </g>
    <g id="ytick_4">
     <g id="line2d_14">
      <g>
       <use xlink:href="#me0812ce293" x="72" y="194.4" style="stroke: #000000; stroke-width: 0.8"/>
      </g>
     </g>
     <g id="text_15">
      <!-- 3.0 -->
      <g transform="translate(31.64 202.989375) scale(0.24 -0.24)">
       <use xlink:href="#ArialMT-33"/>
       <use xlink:href="#ArialMT-2e" transform="translate(55.615234 0)"/>
       <use xlink:href="#ArialMT-30" transform="translate(83.398438 0)"/>
      </g>
     </g>
    </g>
    <g id="ytick_5">
     <g id="line2d_15">
      <g>
       <use xlink:href="#me0812ce293" x="72" y="135" style="stroke: #000000; stroke-width: 0.8"/>
      </g>
     </g>
     <g id="text_16">
      <!-- 3.5 -->
      <g transform="translate(31.64 143.589375) scale(0.24 -0.24)">
       <use xlink:href="#ArialMT-33"/>
       <use xlink:href="#ArialMT-2e" transform="translate(55.615234 0)"/>
       <use xlink:href="#ArialMT-35" transform="translate(83.398438 0)"/>
      </g>
     </g>
    </g>
    <g id="ytick_6">
     <g id="line2d_16">
      <g>
       <use xlink:href="#me0812ce293" x="72" y="75.6" style="stroke: #000000; stroke-width: 0.8"/>
      </g>
     </g>
     <g id="text_17">
      <!-- 4.0 -->
      <g transform="translate(31.64 84.189375) scale(0.24 -0.24)">
       <use xlink:href="#ArialMT-34"/>
       <use xlink:href="#ArialMT-2e" transform="translate(55.615234 0)"/>
       <use xlink:href="#ArialMT-30" transform="translate(83.398438 0)"/>
      </g>
     </g>
    </g>
    <g id="text_18">
     <!-- Ethanol Price ($/gal) -->
     <g transform="translate(22.58875 326.874375) rotate(-90) scale(0.24 -0.24)">
      <defs>
       <path id="ArialMT-45" d="M 506 0 
L 506 4581 
L 3819 4581 
L 3819 4041 
L 1113 4041 
L 1113 2638 
L 3647 2638 
L 3647 2100 
L 1113 2100 
L 1113 541 
L 3925 541 
L 3925 0 
L 506 0 
z
" transform="scale(0.015625)"/>
       <path id="ArialMT-68" d="M 422 0 
L 422 4581 
L 984 4581 
L 984 2938 
Q 1378 3394 1978 3394 
Q 2347 3394 2619 3248 
Q 2891 3103 3008 2847 
Q 3125 2591 3125 2103 
L 3125 0 
L 2563 0 
L 2563 2103 
Q 2563 2525 2380 2717 
Q 2197 2909 1863 2909 
Q 1613 2909 1392 2779 
Q 1172 2650 1078 2428 
Q 984 2206 984 1816 
L 984 0 
L 422 0 
z
" transform="scale(0.015625)"/>
       <path id="ArialMT-50" d="M 494 0 
L 494 4581 
L 2222 4581 
Q 2678 4581 2919 4538 
Q 3256 4481 3484 4323 
Q 3713 4166 3852 3881 
Q 3991 3597 3991 3256 
Q 3991 2672 3619 2267 
Q 3247 1863 2275 1863 
L 1100 1863 
L 1100 0 
L 494 0 
z
M 1100 2403 
L 2284 2403 
Q 2872 2403 3119 2622 
Q 3366 2841 3366 3238 
Q 3366 3525 3220 3729 
Q 3075 3934 2838 4000 
Q 2684 4041 2272 4041 
L 1100 4041 
L 1100 2403 
z
" transform="scale(0.015625)"/>
       <path id="ArialMT-24" d="M 1594 -659 
L 1594 -97 
Q 1172 -44 908 92 
Q 644 228 451 531 
Q 259 834 228 1272 
L 794 1378 
Q 859 925 1025 713 
Q 1263 413 1594 378 
L 1594 2169 
Q 1247 2234 884 2438 
Q 616 2588 470 2853 
Q 325 3119 325 3456 
Q 325 4056 750 4428 
Q 1034 4678 1594 4734 
L 1594 5003 
L 1925 5003 
L 1925 4734 
Q 2416 4688 2703 4447 
Q 3072 4141 3147 3606 
L 2566 3519 
Q 2516 3850 2358 4026 
Q 2200 4203 1925 4259 
L 1925 2638 
Q 2350 2531 2488 2472 
Q 2750 2356 2915 2190 
Q 3081 2025 3170 1797 
Q 3259 1569 3259 1303 
Q 3259 719 2887 328 
Q 2516 -63 1925 -91 
L 1925 -659 
L 1594 -659 
z
M 1594 4266 
Q 1266 4216 1077 4003 
Q 888 3791 888 3500 
Q 888 3213 1048 3019 
Q 1209 2825 1594 2709 
L 1594 4266 
z
M 1925 378 
Q 2253 419 2467 662 
Q 2681 906 2681 1266 
Q 2681 1572 2529 1758 
Q 2378 1944 1925 2091 
L 1925 378 
z
" transform="scale(0.015625)"/>
      </defs>
      <use xlink:href="#ArialMT-45"/>
      <use xlink:href="#ArialMT-74" transform="translate(66.699219 0)"/>
      <use xlink:href="#ArialMT-68" transform="translate(94.482422 0)"/>
      <use xlink:href="#ArialMT-61" transform="translate(150.097656 0)"/>
      <use xlink:href="#ArialMT-6e" transform="translate(205.712891 0)"/>
      <use xlink:href="#ArialMT-6f" transform="translate(261.328125 0)"/>
      <use xlink:href="#ArialMT-6c" transform="translate(316.943359 0)"/>
      <use xlink:href="#ArialMT-20" transform="translate(339.160156 0)"/>
      <use xlink:href="#ArialMT-50" transform="translate(366.943359 0)"/>
      <use xlink:href="#ArialMT-72" transform="translate(433.642578 0)"/>
      <use xlink:href="#ArialMT-69" transform="translate(466.943359 0)"/>
      <use xlink:href="#ArialMT-63" transform="translate(489.160156 0)"/>
      <use xlink:href="#ArialMT-65" transform="translate(539.160156 0)"/>
      <use xlink:href="#ArialMT-20" transform="translate(594.775391 0)"/>
      <use xlink:href="#ArialMT-28" transform="translate(622.558594 0)"/>
      <use xlink:href="#ArialMT-24" transform="translate(655.859375 0)"/>
      <use xlink:href="#ArialMT-2f" transform="translate(711.474609 0)"/>
      <use xlink:href="#ArialMT-67" transform="translate(739.257812 0)"/>
      <use xlink:href="#ArialMT-61" transform="translate(794.873047 0)"/>
      <use xlink:href="#ArialMT-6c" transform="translate(850.488281 0)"/>
      <use xlink:href="#ArialMT-29" transform="translate(872.705078 0)"/>
     </g>
    </g>
   </g>
   <g id="QuadContourSet_2">
    <path d="M 429.12 329.456842 
L 410.324211 329.957053 
L 391.528421 330.457263 
L 372.732632 330.985263 
L 353.936842 331.471579 
L 344.538947 331.957895 
L 335.141053 332.458105 
L 316.345263 333.416842 
L 297.549474 334.389474 
L 278.753684 335.362105 
L 259.957895 336.459789 
L 247.451976 337.347306 
M 234.87791 338.351153 
L 222.366316 339.461053 
L 203.570526 341.461895 
L 184.774737 343.629474 
L 165.978947 346.464 
L 149.868271 349.465263 
L 147.183158 349.951579 
L 128.387368 354.328421 
L 109.591579 360.650526 
L 97.95609 366.972632 
L 90.795789 370.974316 
L 77.079943 384.48 
" clip-path="url(#pc0fe49fbc0)" style="fill: none; stroke: #000000"/>
    <path d="M 429.12 279.936 
L 410.324211 280.436211 
L 391.528421 280.936421 
L 372.732632 281.867368 
L 353.936842 282.353684 
L 335.141053 283.326316 
L 316.345263 283.937684 
L 297.549474 284.938105 
L 278.753684 285.938526 
L 259.957895 287.216842 
L 241.162105 288.439579 
L 228.649982 289.568025 
M 216.087799 290.78453 
L 203.570526 292.08 
L 184.774737 294.442105 
L 165.978947 296.943158 
L 165.978947 296.943158 
L 147.183158 300.444632 
L 128.387368 304.946526 
L 109.591579 311.449263 
L 104.221353 314.450526 
L 90.795789 321.745263 
L 80.408643 331.957895 
L 72 340.225263 
" clip-path="url(#pc0fe49fbc0)" style="fill: none; stroke: #000000"/>
    <path d="M 429.12 181.394526 
L 410.324211 181.894737 
L 391.528421 182.394947 
L 372.732632 183.145263 
L 353.936842 183.631579 
L 335.141053 184.604211 
L 316.345263 185.396211 
L 297.549474 186.396632 
L 278.753684 187.397053 
L 259.957895 188.494737 
L 241.162105 189.898105 
L 228.641292 190.907007 
M 216.100067 192.065789 
L 203.570526 193.399579 
L 184.774737 195.789474 
L 165.978947 198.401684 
L 147.183158 201.903158 
L 128.387368 206.405053 
L 119.712389 209.406316 
L 109.591579 212.810526 
L 90.795789 223.023158 
L 86.838781 226.913684 
L 72 241.503158 
" clip-path="url(#pc0fe49fbc0)" style="fill: none; stroke: #000000"/>
    <path d="M 429.12 82.853053 
L 410.324211 83.353263 
L 391.528421 83.853474 
L 372.732632 84.423158 
L 353.936842 84.909474 
L 335.141053 85.882105 
L 316.345263 86.854737 
L 316.345263 86.854737 
L 297.549474 87.827368 
L 278.753684 88.8 
L 259.957895 89.856 
L 241.162105 91.231579 
L 233.978551 91.852898 
M 210.768297 94.091891 
L 203.570526 94.858105 
L 184.774737 97.067368 
L 165.978947 99.860211 
L 147.183158 103.361684 
L 143.006316 104.362105 
L 128.387368 107.766316 
L 109.591579 114.088421 
L 95.270977 121.869474 
L 90.795789 124.370526 
L 75.55596 139.376842 
L 72 142.878316 
" clip-path="url(#pc0fe49fbc0)" style="fill: none; stroke: #000000"/>
   </g>
   <g id="patch_3">
    <path d="M 72 384.48 
L 72 51.84 
" style="fill: none; stroke: #000000; stroke-width: 0.8; stroke-linejoin: miter; stroke-linecap: square"/>
   </g>
   <g id="patch_4">
    <path d="M 429.12 384.48 
L 429.12 51.84 
" style="fill: none; stroke: #000000; stroke-width: 0.8; stroke-linejoin: miter; stroke-linecap: square"/>
   </g>
   <g id="patch_5">
    <path d="M 72 384.48 
L 429.12 384.48 
" style="fill: none; stroke: #000000; stroke-width: 0.8; stroke-linejoin: miter; stroke-linecap: square"/>
   </g>
   <g id="patch_6">
    <path d="M 72 51.84 
L 429.12 51.84 
" style="fill: none; stroke: #000000; stroke-width: 0.8; stroke-linejoin: miter; stroke-linecap: square"/>
   </g>
   <g id="text_19">
    <g clip-path="url(#pc0fe49fbc0)">
     <!-- 5 -->
     <g transform="translate(234.898003 344.410775) rotate(-3.65439) scale(0.24 -0.24)">
      <use xlink:href="#ArialMT-35"/>
     </g>
    </g>
   </g>
   <g id="text_20">
    <g clip-path="url(#pc0fe49fbc0)">
     <!-- 6 -->
     <g transform="translate(216.192349 296.836006) rotate(-4.429909) scale(0.24 -0.24)">
      <use xlink:href="#ArialMT-36"/>
     </g>
    </g>
   </g>
   <g id="text_21">
    <g clip-path="url(#pc0fe49fbc0)">
     <!-- 8 -->
     <g transform="translate(216.167656 198.091066) rotate(-4.218425) scale(0.24 -0.24)">
      <use xlink:href="#ArialMT-38"/>
     </g>
    </g>
   </g>
   <g id="text_22">
    <g clip-path="url(#pc0fe49fbc0)">
     <!-- 10 -->
     <g transform="translate(209.537019 100.070155) rotate(-4.412914) scale(0.24 -0.24)">
      <use xlink:href="#ArialMT-31"/>
      <use xlink:href="#ArialMT-30" transform="translate(55.615234 0)"/>
     </g>
    </g>
   </g>
  </g>
  <g id="axes_2">
   <g id="patch_7">
    <path d="M 451.44 384.48 
L 468.072 384.48 
L 468.072 51.84 
L 451.44 51.84 
z
" style="fill: #ffffff; fill-opacity: 0.95"/>
   </g>
   <g id="QuadMesh_1">
    <path d="M 451.44 384.48 
L 468.072 384.48 
L 468.072 376.366829 
L 451.44 376.366829 
L 451.44 384.48 
" clip-path="url(#pda67e07457)" style="fill: #3e51c5"/>
    <path d="M 451.44 376.366829 
L 468.072 376.366829 
L 468.072 368.253659 
L 451.44 368.253659 
L 451.44 376.366829 
" clip-path="url(#pda67e07457)" style="fill: #455cce"/>
    <path d="M 451.44 368.253659 
L 468.072 368.253659 
L 468.072 360.140488 
L 451.44 360.140488 
L 451.44 368.253659 
" clip-path="url(#pda67e07457)" style="fill: #4c66d6"/>
    <path d="M 451.44 360.140488 
L 468.072 360.140488 
L 468.072 352.027317 
L 451.44 352.027317 
L 451.44 360.140488 
" clip-path="url(#pda67e07457)" style="fill: #5470de"/>
    <path d="M 451.44 352.027317 
L 468.072 352.027317 
L 468.072 343.914146 
L 451.44 343.914146 
L 451.44 352.027317 
" clip-path="url(#pda67e07457)" style="fill: #5d7ce6"/>
    <path d="M 451.44 343.914146 
L 468.072 343.914146 
L 468.072 335.800976 
L 451.44 335.800976 
L 451.44 343.914146 
" clip-path="url(#pda67e07457)" style="fill: #6485ec"/>
    <path d="M 451.44 335.800976 
L 468.072 335.800976 
L 468.072 327.687805 
L 451.44 327.687805 
L 451.44 335.800976 
" clip-path="url(#pda67e07457)" style="fill: #6c8ff1"/>
    <path d="M 451.44 327.687805 
L 468.072 327.687805 
L 468.072 319.574634 
L 451.44 319.574634 
L 451.44 327.687805 
" clip-path="url(#pda67e07457)" style="fill: #7597f6"/>
    <path d="M 451.44 319.574634 
L 468.072 319.574634 
L 468.072 311.461463 
L 451.44 311.461463 
L 451.44 319.574634 
" clip-path="url(#pda67e07457)" style="fill: #7ea1fa"/>
    <path d="M 451.44 311.461463 
L 468.072 311.461463 
L 468.072 303.348293 
L 451.44 303.348293 
L 451.44 311.461463 
" clip-path="url(#pda67e07457)" style="fill: #86a9fc"/>
    <path d="M 451.44 303.348293 
L 468.072 303.348293 
L 468.072 295.235122 
L 451.44 295.235122 
L 451.44 303.348293 
" clip-path="url(#pda67e07457)" style="fill: #8fb1fe"/>
    <path d="M 451.44 295.235122 
L 468.072 295.235122 
L 468.072 287.121951 
L 451.44 287.121951 
L 451.44 295.235122 
" clip-path="url(#pda67e07457)" style="fill: #97b8ff"/>
    <path d="M 451.44 287.121951 
L 468.072 287.121951 
L 468.072 279.00878 
L 451.44 279.00878 
L 451.44 287.121951 
" clip-path="url(#pda67e07457)" style="fill: #a1c0ff"/>
    <path d="M 451.44 279.00878 
L 468.072 279.00878 
L 468.072 270.89561 
L 451.44 270.89561 
L 451.44 279.00878 
" clip-path="url(#pda67e07457)" style="fill: #a9c6fd"/>
    <path d="M 451.44 270.89561 
L 468.072 270.89561 
L 468.072 262.782439 
L 451.44 262.782439 
L 451.44 270.89561 
" clip-path="url(#pda67e07457)" style="fill: #b1cbfc"/>
    <path d="M 451.44 262.782439 
L 468.072 262.782439 
L 468.072 254.669268 
L 451.44 254.669268 
L 451.44 262.782439 
" clip-path="url(#pda67e07457)" style="fill: #b9d0f9"/>
    <path d="M 451.44 254.669268 
L 468.072 254.669268 
L 468.072 246.556098 
L 451.44 246.556098 
L 451.44 254.669268 
" clip-path="url(#pda67e07457)" style="fill: #c1d4f4"/>
    <path d="M 451.44 246.556098 
L 468.072 246.556098 
L 468.072 238.442927 
L 451.44 238.442927 
L 451.44 246.556098 
" clip-path="url(#pda67e07457)" style="fill: #c9d7f0"/>
    <path d="M 451.44 238.442927 
L 468.072 238.442927 
L 468.072 230.329756 
L 451.44 230.329756 
L 451.44 238.442927 
" clip-path="url(#pda67e07457)" style="fill: #cfdaea"/>
    <path d="M 451.44 230.329756 
L 468.072 230.329756 
L 468.072 222.216585 
L 451.44 222.216585 
L 451.44 230.329756 
" clip-path="url(#pda67e07457)" style="fill: #d6dce4"/>
    <path d="M 451.44 222.216585 
L 468.072 222.216585 
L 468.072 214.103415 
L 451.44 214.103415 
L 451.44 222.216585 
" clip-path="url(#pda67e07457)" style="fill: #dcdddd"/>
    <path d="M 451.44 214.103415 
L 468.072 214.103415 
L 468.072 205.990244 
L 451.44 205.990244 
L 451.44 214.103415 
" clip-path="url(#pda67e07457)" style="fill: #e3d9d3"/>
    <path d="M 451.44 205.990244 
L 468.072 205.990244 
L 468.072 197.877073 
L 451.44 197.877073 
L 451.44 205.990244 
" clip-path="url(#pda67e07457)" style="fill: #e9d5cb"/>
    <path d="M 451.44 197.877073 
L 468.072 197.877073 
L 468.072 189.763902 
L 451.44 189.763902 
L 451.44 197.877073 
" clip-path="url(#pda67e07457)" style="fill: #edd1c2"/>
    <path d="M 451.44 189.763902 
L 468.072 189.763902 
L 468.072 181.650732 
L 451.44 181.650732 
L 451.44 189.763902 
" clip-path="url(#pda67e07457)" style="fill: #f1ccb8"/>
    <path d="M 451.44 181.650732 
L 468.072 181.650732 
L 468.072 173.537561 
L 451.44 173.537561 
L 451.44 181.650732 
" clip-path="url(#pda67e07457)" style="fill: #f4c5ad"/>
    <path d="M 451.44 173.537561 
L 468.072 173.537561 
L 468.072 165.42439 
L 451.44 165.42439 
L 451.44 173.537561 
" clip-path="url(#pda67e07457)" style="fill: #f6bea4"/>
    <path d="M 451.44 165.42439 
L 468.072 165.42439 
L 468.072 157.31122 
L 451.44 157.31122 
L 451.44 165.42439 
" clip-path="url(#pda67e07457)" style="fill: #f7b79b"/>
    <path d="M 451.44 157.31122 
L 468.072 157.31122 
L 468.072 149.198049 
L 451.44 149.198049 
L 451.44 157.31122 
" clip-path="url(#pda67e07457)" style="fill: #f7af91"/>
    <path d="M 451.44 149.198049 
L 468.072 149.198049 
L 468.072 141.084878 
L 451.44 141.084878 
L 451.44 149.198049 
" clip-path="url(#pda67e07457)" style="fill: #f6a586"/>
    <path d="M 451.44 141.084878 
L 468.072 141.084878 
L 468.072 132.971707 
L 451.44 132.971707 
L 451.44 141.084878 
" clip-path="url(#pda67e07457)" style="fill: #f59c7d"/>
    <path d="M 451.44 132.971707 
L 468.072 132.971707 
L 468.072 124.858537 
L 451.44 124.858537 
L 451.44 132.971707 
" clip-path="url(#pda67e07457)" style="fill: #f29274"/>
    <path d="M 451.44 124.858537 
L 468.072 124.858537 
L 468.072 116.745366 
L 451.44 116.745366 
L 451.44 124.858537 
" clip-path="url(#pda67e07457)" style="fill: #ef886b"/>
    <path d="M 451.44 116.745366 
L 468.072 116.745366 
L 468.072 108.632195 
L 451.44 108.632195 
L 451.44 116.745366 
" clip-path="url(#pda67e07457)" style="fill: #ea7b60"/>
    <path d="M 451.44 108.632195 
L 468.072 108.632195 
L 468.072 100.519024 
L 451.44 100.519024 
L 451.44 108.632195 
" clip-path="url(#pda67e07457)" style="fill: #e57058"/>
    <path d="M 451.44 100.519024 
L 468.072 100.519024 
L 468.072 92.405854 
L 451.44 92.405854 
L 451.44 100.519024 
" clip-path="url(#pda67e07457)" style="fill: #e0654f"/>
    <path d="M 451.44 92.405854 
L 468.072 92.405854 
L 468.072 84.292683 
L 451.44 84.292683 
L 451.44 92.405854 
" clip-path="url(#pda67e07457)" style="fill: #d95847"/>
    <path d="M 451.44 84.292683 
L 468.072 84.292683 
L 468.072 76.179512 
L 451.44 76.179512 
L 451.44 84.292683 
" clip-path="url(#pda67e07457)" style="fill: #d1493f"/>
    <path d="M 451.44 76.179512 
L 468.072 76.179512 
L 468.072 68.066341 
L 451.44 68.066341 
L 451.44 76.179512 
" clip-path="url(#pda67e07457)" style="fill: #ca3b37"/>
    <path d="M 451.44 68.066341 
L 468.072 68.066341 
L 468.072 59.953171 
L 451.44 59.953171 
L 451.44 68.066341 
" clip-path="url(#pda67e07457)" style="fill: #c12b30"/>
    <path d="M 451.44 59.953171 
L 468.072 59.953171 
L 468.072 51.84 
L 451.44 51.84 
L 451.44 59.953171 
" clip-path="url(#pda67e07457)" style="fill: #b8122a"/>
   </g>
   <g id="matplotlib.axis_3"/>
   <g id="matplotlib.axis_4">
    <g id="ytick_7">
     <g id="line2d_17">
      <defs>
       <path id="mf002dd43a8" d="M 0 0 
L 3.5 0 
" style="stroke: #000000; stroke-width: 0.8"/>
      </defs>
      <g>
       <use xlink:href="#mf002dd43a8" x="468.072" y="384.48" style="stroke: #000000; stroke-width: 0.8"/>
      </g>
     </g>
     <g id="text_23">
      <!-- 3.8 -->
      <g transform="translate(475.072 393.069375) scale(0.24 -0.24)">
       <use xlink:href="#ArialMT-33"/>
       <use xlink:href="#ArialMT-2e" transform="translate(55.615234 0)"/>
       <use xlink:href="#ArialMT-38" transform="translate(83.398438 0)"/>
      </g>
     </g>
    </g>
    <g id="ytick_8">
     <g id="line2d_18">
      <g>
       <use xlink:href="#mf002dd43a8" x="468.072" y="343.914146" style="stroke: #000000; stroke-width: 0.8"/>
      </g>
     </g>
     <g id="text_24">
      <!-- 4.8 -->
      <g transform="translate(475.072 352.503521) scale(0.24 -0.24)">
       <use xlink:href="#ArialMT-34"/>
       <use xlink:href="#ArialMT-2e" transform="translate(55.615234 0)"/>
       <use xlink:href="#ArialMT-38" transform="translate(83.398438 0)"/>
      </g>
     </g>
    </g>
    <g id="ytick_9">
     <g id="line2d_19">
      <g>
       <use xlink:href="#mf002dd43a8" x="468.072" y="303.348293" style="stroke: #000000; stroke-width: 0.8"/>
      </g>
     </g>
     <g id="text_25">
      <!-- 5.8 -->
      <g transform="translate(475.072 311.937668) scale(0.24 -0.24)">
       <use xlink:href="#ArialMT-35"/>
       <use xlink:href="#ArialMT-2e" transform="translate(55.615234 0)"/>
       <use xlink:href="#ArialMT-38" transform="translate(83.398438 0)"/>
      </g>
     </g>
    </g>
    <g id="ytick_10">
     <g id="line2d_20">
      <g>
       <use xlink:href="#mf002dd43a8" x="468.072" y="262.782439" style="stroke: #000000; stroke-width: 0.8"/>
      </g>
     </g>
     <g id="text_26">
      <!-- 6.8 -->
      <g transform="translate(475.072 271.371814) scale(0.24 -0.24)">
       <use xlink:href="#ArialMT-36"/>
       <use xlink:href="#ArialMT-2e" transform="translate(55.615234 0)"/>
       <use xlink:href="#ArialMT-38" transform="translate(83.398438 0)"/>
      </g>
     </g>
    </g>
    <g id="ytick_11">
     <g id="line2d_21">
      <g>
       <use xlink:href="#mf002dd43a8" x="468.072" y="222.216585" style="stroke: #000000; stroke-width: 0.8"/>
      </g>
     </g>
     <g id="text_27">
      <!-- 7.8 -->
      <g transform="translate(475.072 230.80596) scale(0.24 -0.24)">
       <use xlink:href="#ArialMT-37"/>
       <use xlink:href="#ArialMT-2e" transform="translate(55.615234 0)"/>
       <use xlink:href="#ArialMT-38" transform="translate(83.398438 0)"/>
      </g>
     </g>
    </g>
    <g id="ytick_12">
     <g id="line2d_22">
      <g>
       <use xlink:href="#mf002dd43a8" x="468.072" y="181.650732" style="stroke: #000000; stroke-width: 0.8"/>
      </g>
     </g>
     <g id="text_28">
      <!-- 8.8 -->
      <g transform="translate(475.072 190.240107) scale(0.24 -0.24)">
       <use xlink:href="#ArialMT-38"/>
       <use xlink:href="#ArialMT-2e" transform="translate(55.615234 0)"/>
       <use xlink:href="#ArialMT-38" transform="translate(83.398438 0)"/>
      </g>
     </g>
    </g>
    <g id="ytick_13">
     <g id="line2d_23">
      <g>
       <use xlink:href="#mf002dd43a8" x="468.072" y="141.084878" style="stroke: #000000; stroke-width: 0.8"/>
      </g>
     </g>
     <g id="text_29">
      <!-- 9.8 -->
      <g transform="translate(475.072 149.674253) scale(0.24 -0.24)">
       <use xlink:href="#ArialMT-39"/>
       <use xlink:href="#ArialMT-2e" transform="translate(55.615234 0)"/>
       <use xlink:href="#ArialMT-38" transform="translate(83.398438 0)"/>
      </g>
     </g>
    </g>
    <g id="ytick_14">
     <g id="line2d_24">
      <g>
       <use xlink:href="#mf002dd43a8" x="468.072" y="100.519024" style="stroke: #000000; stroke-width: 0.8"/>
      </g>
     </g>
     <g id="text_30">
      <!-- 10.8 -->
      <g transform="translate(475.072 109.108399) scale(0.24 -0.24)">
       <use xlink:href="#ArialMT-31"/>
       <use xlink:href="#ArialMT-30" transform="translate(55.615234 0)"/>
       <use xlink:href="#ArialMT-2e" transform="translate(111.230469 0)"/>
       <use xlink:href="#ArialMT-38" transform="translate(139.013672 0)"/>
      </g>
     </g>
    </g>
    <g id="ytick_15">
     <g id="line2d_25">
      <g>
       <use xlink:href="#mf002dd43a8" x="468.072" y="59.953171" style="stroke: #000000; stroke-width: 0.8"/>
      </g>
     </g>
     <g id="text_31">
      <!-- 11.8 -->
      <g transform="translate(475.072 68.542546) scale(0.24 -0.24)">
       <use xlink:href="#ArialMT-31"/>
       <use xlink:href="#ArialMT-31" transform="translate(48.240234 0)"/>
       <use xlink:href="#ArialMT-2e" transform="translate(103.855469 0)"/>
       <use xlink:href="#ArialMT-38" transform="translate(131.638672 0)"/>
      </g>
     </g>
    </g>
    <g id="text_32">
     <!-- Minimum Jet Selling Price [$/gal] -->
     <g transform="translate(544.5395 392.21625) rotate(-90) scale(0.24 -0.24)">
      <defs>
       <path id="ArialMT-6d" d="M 422 0 
L 422 3319 
L 925 3319 
L 925 2853 
Q 1081 3097 1340 3245 
Q 1600 3394 1931 3394 
Q 2300 3394 2536 3241 
Q 2772 3088 2869 2813 
Q 3263 3394 3894 3394 
Q 4388 3394 4653 3120 
Q 4919 2847 4919 2278 
L 4919 0 
L 4359 0 
L 4359 2091 
Q 4359 2428 4304 2576 
Q 4250 2725 4106 2815 
Q 3963 2906 3769 2906 
Q 3419 2906 3187 2673 
Q 2956 2441 2956 1928 
L 2956 0 
L 2394 0 
L 2394 2156 
Q 2394 2531 2256 2718 
Q 2119 2906 1806 2906 
Q 1569 2906 1367 2781 
Q 1166 2656 1075 2415 
Q 984 2175 984 1722 
L 984 0 
L 422 0 
z
" transform="scale(0.015625)"/>
       <path id="ArialMT-4a" d="M 184 1300 
L 731 1375 
Q 753 850 928 656 
Q 1103 463 1413 463 
Q 1641 463 1806 567 
Q 1972 672 2034 851 
Q 2097 1031 2097 1425 
L 2097 4581 
L 2703 4581 
L 2703 1459 
Q 2703 884 2564 568 
Q 2425 253 2123 87 
Q 1822 -78 1416 -78 
Q 813 -78 492 269 
Q 172 616 184 1300 
z
" transform="scale(0.015625)"/>
       <path id="ArialMT-5b" d="M 434 -1272 
L 434 4581 
L 1675 4581 
L 1675 4116 
L 997 4116 
L 997 -806 
L 1675 -806 
L 1675 -1272 
L 434 -1272 
z
" transform="scale(0.015625)"/>
       <path id="ArialMT-5d" d="M 1363 -1272 
L 122 -1272 
L 122 -806 
L 800 -806 
L 800 4116 
L 122 4116 
L 122 4581 
L 1363 4581 
L 1363 -1272 
z
" transform="scale(0.015625)"/>
      </defs>
      <use xlink:href="#ArialMT-4d"/>
      <use xlink:href="#ArialMT-69" transform="translate(83.300781 0)"/>
      <use xlink:href="#ArialMT-6e" transform="translate(105.517578 0)"/>
      <use xlink:href="#ArialMT-69" transform="translate(161.132812 0)"/>
      <use xlink:href="#ArialMT-6d" transform="translate(183.349609 0)"/>
      <use xlink:href="#ArialMT-75" transform="translate(266.650391 0)"/>
      <use xlink:href="#ArialMT-6d" transform="translate(322.265625 0)"/>
      <use xlink:href="#ArialMT-20" transform="translate(405.566406 0)"/>
      <use xlink:href="#ArialMT-4a" transform="translate(433.349609 0)"/>
      <use xlink:href="#ArialMT-65" transform="translate(483.349609 0)"/>
      <use xlink:href="#ArialMT-74" transform="translate(538.964844 0)"/>
      <use xlink:href="#ArialMT-20" transform="translate(566.748047 0)"/>
      <use xlink:href="#ArialMT-53" transform="translate(594.53125 0)"/>
      <use xlink:href="#ArialMT-65" transform="translate(661.230469 0)"/>
      <use xlink:href="#ArialMT-6c" transform="translate(716.845703 0)"/>
      <use xlink:href="#ArialMT-6c" transform="translate(739.0625 0)"/>
      <use xlink:href="#ArialMT-69" transform="translate(761.279297 0)"/>
      <use xlink:href="#ArialMT-6e" transform="translate(783.496094 0)"/>
      <use xlink:href="#ArialMT-67" transform="translate(839.111328 0)"/>
      <use xlink:href="#ArialMT-20" transform="translate(894.726562 0)"/>
      <use xlink:href="#ArialMT-50" transform="translate(922.509766 0)"/>
      <use xlink:href="#ArialMT-72" transform="translate(989.208984 0)"/>
      <use xlink:href="#ArialMT-69" transform="translate(1022.509766 0)"/>
      <use xlink:href="#ArialMT-63" transform="translate(1044.726562 0)"/>
      <use xlink:href="#ArialMT-65" transform="translate(1094.726562 0)"/>
      <use xlink:href="#ArialMT-20" transform="translate(1150.341797 0)"/>
      <use xlink:href="#ArialMT-5b" transform="translate(1178.125 0)"/>
      <use xlink:href="#ArialMT-24" transform="translate(1205.908203 0)"/>
      <use xlink:href="#ArialMT-2f" transform="translate(1261.523438 0)"/>
      <use xlink:href="#ArialMT-67" transform="translate(1289.306641 0)"/>
      <use xlink:href="#ArialMT-61" transform="translate(1344.921875 0)"/>
      <use xlink:href="#ArialMT-6c" transform="translate(1400.537109 0)"/>
      <use xlink:href="#ArialMT-5d" transform="translate(1422.753906 0)"/>
     </g>
    </g>
   </g>
   <g id="LineCollection_1"/>
   <g id="patch_8">
    <path d="M 451.44 384.48 
L 459.756 384.48 
L 468.072 384.48 
L 468.072 51.84 
L 459.756 51.84 
L 451.44 51.84 
L 451.44 384.48 
z
" style="fill: none; stroke: #000000; stroke-width: 0.8; stroke-linejoin: miter; stroke-linecap: square"/>
   </g>
  </g>
 </g>
 <defs>
  <clipPath id="pc0fe49fbc0">
   <rect x="72" y="51.84" width="357.12" height="332.64"/>
  </clipPath>
  <clipPath id="pda67e07457">
   <rect x="451.44" y="51.84" width="16.632" height="332.64"/>
  </clipPath>
 </defs>
</svg>
